<?xml version="1.0" encoding="UTF-8" standalone="no"?>
<!-- Created with Inkscape (http://www.inkscape.org/) -->

<svg
   width="82.346458mm"
   height="51.328438mm"
   viewBox="0 0 82.346458 51.328438"
   version="1.1"
   id="svg1"
   xml:space="preserve"
   xmlns="http://www.w3.org/2000/svg"
   xmlns:svg="http://www.w3.org/2000/svg"><defs
     id="defs1" /><g
     id="layer1"
     transform="translate(-59.468286,-193.27282)"><path
       style="fill:#000000"
       d="m 88.00848,243.99882 c -0.336233,-0.39723 -0.532451,-0.4773 -0.616959,-0.25176 -0.151493,0.40432 -3.670547,0.46376 -3.916282,0.0661 -0.08994,-0.14552 -0.926779,-0.26458 -1.85965,-0.26458 -1.153547,0 -1.97378,-0.15531 -2.564073,-0.4855 -0.477369,-0.26702 -1.195365,-0.56695 -1.595547,-0.6665 -0.400183,-0.0995 -0.727605,-0.2978 -0.727605,-0.44055 0,-0.14274 -0.2743,-0.25954 -0.609555,-0.25954 -0.633549,0 -2.091895,-1.34375 -2.396216,-2.20793 -0.09455,-0.26848 -0.407361,-0.54971 -0.695149,-0.62497 -0.555438,-0.14525 -1.326163,-1.43227 -1.326163,-2.21453 0,-0.25752 -0.297656,-0.82196 -0.661458,-1.25432 -0.363802,-0.43235 -0.661458,-0.90316 -0.661458,-1.04623 0,-0.14308 -0.190998,-0.41865 -0.424439,-0.61239 -0.233441,-0.19374 -0.53253,-0.63656 -0.664644,-0.98404 -0.132113,-0.34749 -0.476897,-0.69369 -0.766186,-0.76934 -0.3879,-0.10144 -0.525981,-0.36179 -0.525981,-0.99172 0,-0.51816 -0.208166,-1.04257 -0.529167,-1.33307 -0.291042,-0.26339 -0.529167,-0.73181 -0.529167,-1.04093 0,-0.30912 -0.238125,-0.73367 -0.529166,-0.94344 -0.380354,-0.27415 -0.529167,-0.68493 -0.529167,-1.4607 0,-0.59362 -0.12568,-1.20498 -0.279289,-1.35859 -0.153609,-0.15361 -0.349826,-1.36805 -0.436039,-2.69875 -0.08621,-1.33071 -0.258188,-2.41946 -0.382169,-2.41946 -0.123981,0 -0.22542,-0.23813 -0.22542,-0.52917 0,-0.29104 -0.119062,-0.52917 -0.264583,-0.52917 -0.145521,0 -0.264583,-0.16014 -0.264583,-0.35587 0,-0.47885 -0.861734,-1.23163 -1.409896,-1.23163 -0.27239,0 -0.442188,-0.21271 -0.442188,-0.55393 0,-0.30509 -0.208049,-0.60835 -0.463109,-0.67505 -0.620449,-0.16225 -1.124391,-1.29525 -1.124391,-2.52793 0,-0.55307 -0.119062,-1.00559 -0.264583,-1.00559 -0.145521,0 -0.264583,-0.2282 -0.264583,-0.50712 0,-0.27891 -0.138473,-0.55327 -0.307718,-0.60969 -0.208497,-0.0695 -0.29924,-0.93978 -0.281425,-2.69904 0.02266,-2.23733 0.101818,-2.67687 0.572302,-3.17768 0.300304,-0.31966 0.546007,-0.75815 0.546007,-0.97442 0,-0.6534 0.638886,-1.81736 0.998737,-1.81957 0.185502,-0.001 0.450446,-0.29972 0.588763,-0.66352 0.170605,-0.44872 0.453138,-0.66146 0.878486,-0.66146 0.34485,0 0.8425,-0.23812 1.105889,-0.52916 0.263389,-0.29105 0.63903,-0.52917 0.834757,-0.52917 0.195728,0 0.355868,-0.17562 0.355868,-0.39026 0,-0.21465 0.508966,-0.62213 1.131036,-0.90551 0.622069,-0.28339 1.354517,-0.76219 1.627661,-1.06401 0.379506,-0.41935 0.580751,-0.47895 0.85334,-0.25272 0.263196,0.21843 0.356713,0.21819 0.356713,-9.4e-4 0,-0.16334 0.353566,-0.29698 0.785703,-0.29698 0.432136,0 1.209663,-0.23812 1.727839,-0.52916 0.518175,-0.29105 1.331422,-0.52917 1.807214,-0.52917 0.475793,0 0.994475,-0.1294 1.152627,-0.28755 0.158152,-0.15815 1.283293,-0.34856 2.500313,-0.42313 2.133386,-0.13071 3.667971,-0.52457 3.667971,-0.94141 0,-0.11 0.357187,-0.19999 0.79375,-0.19999 0.440972,0 0.79375,0.14111 0.79375,0.3175 0,0.24694 0.07055,0.24694 0.3175,0 0.174625,-0.17463 0.581421,-0.3175 0.903993,-0.3175 0.322571,0 0.64039,-0.14883 0.706264,-0.33073 0.09511,-0.26264 0.233309,-0.26376 0.671241,-0.005 0.347358,0.20491 0.610753,0.22939 0.711642,0.0661 0.08809,-0.14254 0.443775,-0.25916 0.790401,-0.25916 0.346626,0 0.703813,-0.11906 0.79375,-0.26458 0.220227,-0.35634 17.239011,-0.36162 17.459151,-0.005 0.10089,0.16324 0.36428,0.13876 0.71164,-0.0661 0.43793,-0.25833 0.57613,-0.25722 0.67124,0.005 0.08,0.22079 0.72292,0.33073 1.93419,0.33073 0.99793,0 1.88801,0.11906 1.97794,0.26458 0.0899,0.14552 0.391,0.26459 0.66903,0.26459 0.27803,0 0.9172,0.23123 1.42038,0.51385 0.50318,0.28262 1.63284,0.59508 2.51036,0.69436 1.04971,0.11877 1.74911,0.35027 2.04459,0.67677 0.24702,0.27295 0.60926,0.49627 0.80498,0.49627 0.19573,0 0.35587,0.11906 0.35587,0.26458 0,0.14552 0.3389,0.26458 0.7531,0.26458 0.89995,0 2.15353,0.58783 2.817,1.32095 0.26436,0.29213 0.64081,0.53114 0.83653,0.53114 0.19573,0 0.35587,0.1533 0.35587,0.34067 0,0.18737 0.59531,0.92704 1.32292,1.6437 0.7276,0.71666 1.32291,1.45633 1.32291,1.6437 0,0.18737 0.14883,0.3411 0.33073,0.34162 0.1819,5.2e-4 0.62839,0.65494 0.99219,1.45426 0.3638,0.79933 0.75076,1.45375 0.8599,1.45427 0.10914,5.2e-4 0.19843,0.29157 0.19843,0.64679 0,0.35521 0.13363,0.72842 0.29695,0.82936 0.16332,0.10094 2.00879,0.16133 4.10104,0.13421 l 3.8041,-0.0493 v 0.67516 c 0,0.53028 0.13204,0.67515 0.61534,0.67515 0.60382,0 1.76591,0.97539 1.76591,1.48221 0,0.14161 0.59531,0.84383 1.32291,1.5605 0.72761,0.71666 1.32292,1.44175 1.32292,1.6113 0,0.16955 0.17859,0.4565 0.39688,0.63766 0.4243,0.35214 0.54854,1.9917 0.1687,2.22645 -0.1255,0.0776 -0.28761,1.2774 -0.36026,2.6663 -0.13411,2.56399 -0.54017,3.57391 -1.43695,3.57391 -0.24326,0 -0.35587,0.36217 -0.35587,1.14451 0,0.85424 -0.15531,1.2904 -0.61236,1.71979 -0.33681,0.31641 -0.75352,0.57529 -0.92605,0.57529 -0.17252,0 -0.31367,0.24663 -0.31367,0.54806 0,0.56998 -0.32699,0.96999 -1.19327,1.45977 -0.28021,0.15842 -0.70034,0.63467 -0.93363,1.05833 -0.2333,0.42366 -0.74315,0.92562 -1.13301,1.11546 -0.38986,0.18984 -0.70884,0.51726 -0.70884,0.7276 0,0.22908 -0.25899,0.38244 -0.64585,0.38244 -0.35521,0 -0.71942,0.11907 -0.80936,0.26459 -0.0899,0.14552 -0.57321,0.26458 -1.07395,0.26458 -0.50073,0 -0.91043,0.11906 -0.91043,0.26458 0,0.14552 -0.50601,0.26532 -1.12447,0.26622 -0.61847,8.9e-4 -1.46552,0.17949 -1.88233,0.39687 -0.86586,0.45158 -2.17508,0.52235 -2.41715,0.13066 -0.0899,-0.14552 -0.69146,-0.26458 -1.33672,-0.26458 -1.49344,0 -3.29349,-0.75715 -3.29349,-1.38533 0,-0.25672 0.12609,-0.46675 0.2802,-0.46675 0.15411,0 0.20661,-0.11907 0.11667,-0.26459 -0.0899,-0.14552 -0.46903,-0.26458 -0.84243,-0.26458 -0.60873,0 -0.66299,0.0797 -0.52479,0.77067 0.0938,0.46918 0.0245,0.87823 -0.17713,1.0456 -0.18219,0.15121 -0.49349,0.68838 -0.69176,1.19371 -0.19828,0.50533 -0.57994,0.97616 -0.84813,1.04629 -0.31112,0.0814 -0.48763,0.36898 -0.48763,0.79455 0,0.39635 -0.26841,0.87815 -0.66146,1.18733 -0.3638,0.28616 -0.66146,0.66779 -0.66146,0.84806 0,0.18027 -0.21443,0.52032 -0.47651,0.75567 -0.26208,0.23535 -0.67052,0.84463 -0.90766,1.35395 -0.83883,1.80168 -2.363,2.79921 -4.67709,3.06101 -0.89292,0.10103 -1.68739,0.28706 -1.76548,0.41342 -0.0781,0.12636 -0.43262,0.22974 -0.78783,0.22974 -0.35522,0 -0.64585,0.11906 -0.64585,0.26458 0,0.14552 -0.52875,0.26459 -1.17501,0.26459 -0.64625,0 -1.25645,0.13177 -1.35598,0.29283 -0.12611,0.20404 -0.24873,0.18399 -0.40442,-0.0662 -0.18132,-0.29131 -0.32402,-0.29664 -0.75709,-0.0282 -0.37877,0.23475 -2.01666,0.33073 -5.643694,0.33073 -3.517769,0 -5.205487,0.0954 -5.416335,0.30629 -0.231993,0.23199 -0.410165,0.22007 -0.734541,-0.0491 -0.360003,-0.29878 -0.465919,-0.29488 -0.664598,0.0244 -0.187993,0.30215 -0.339308,0.31608 -0.739631,0.0681 -0.289705,-0.17946 -0.602077,-0.21297 -0.736079,-0.079 -0.134002,0.134 -0.442025,-0.0144 -0.725832,-0.34969 z m 12.00322,-1.47613 c 0,-0.33351 -0.776681,-0.93141 -0.965125,-0.74297 -0.270948,0.27095 0.133414,0.97516 0.559943,0.97516 0.222849,0 0.405182,-0.10449 0.405182,-0.23219 z m 2.74783,-0.36221 c 0.21537,-0.34199 0.20554,-0.59897 -0.0378,-0.9886 -0.47452,-0.75983 -0.4391,-0.79825 0.73609,-0.79825 0.89242,0 1.10561,0.10712 1.31636,0.66145 0.13832,0.36381 0.43303,0.66146 0.65491,0.66146 0.46302,0 0.53862,-0.41438 0.12252,-0.67154 -0.15449,-0.0955 -0.38967,-0.4597 -0.52261,-0.80937 -0.13295,-0.34966 -0.40481,-0.63575 -0.60413,-0.63575 -0.49719,0 -1.32884,-0.96218 -1.12155,-1.29758 0.17861,-0.28901 1.70422,-0.10358 2.10013,0.25527 0.47272,0.42846 2.01657,-0.77275 2.01657,-1.56901 0,-0.67141 -0.35618,-0.89129 -1.55894,-0.96239 -0.52503,-0.031 -1.22623,-0.0731 -1.55822,-0.0934 -0.78871,-0.0484 -1.0212,-0.69895 -0.45287,-1.26728 0.36312,-0.36312 0.54638,-0.39 0.94815,-0.13909 0.27392,0.17106 1.27355,0.31103 2.22141,0.31103 1.37121,0 1.72338,-0.0828 1.72338,-0.40518 0,-0.22285 0.20836,-0.47872 0.46303,-0.5686 0.67268,-0.23741 1.65364,-1.17818 1.65364,-1.58589 0,-0.59962 1.24381,-0.41724 1.40687,0.20629 0.18564,0.70989 0.81411,0.51896 0.93134,-0.28294 0.14135,-0.96681 0.61014,-1.3323 1.09148,-0.85096 0.30031,0.30031 0.31895,0.42974 0.0737,0.5115 -0.48681,0.16227 -0.39868,0.71346 0.2008,1.25598 0.51625,0.46721 0.52916,0.46213 0.52916,-0.20796 0,-0.37776 0.11907,-0.76043 0.26459,-0.85037 0.14552,-0.0899 0.26458,-0.51368 0.26458,-0.94166 0,-0.65362 -0.10584,-0.77813 -0.66146,-0.77813 -0.52916,0 -0.66146,-0.13229 -0.66146,-0.66146 0,-0.80027 0.35838,-0.84119 1.12357,-0.1283 0.77027,0.71761 1.1092,0.54365 1.20751,-0.61976 l 0.0821,-0.97173 h -1.45557 c -0.80056,0 -1.52915,0.11906 -1.61908,0.26458 -0.0899,0.14552 -0.57322,0.26459 -1.07395,0.26459 -0.8641,0 -0.91043,0.0471 -0.91043,0.92604 v 0.92604 h -1.3073 c -0.71902,0 -1.38446,0.12484 -1.47876,0.27743 -0.11859,0.19188 -0.27932,0.18792 -0.52123,-0.0129 -0.23655,-0.19632 -0.40418,-0.20223 -0.51788,-0.0183 -0.11218,0.18151 -0.34008,0.16461 -0.68501,-0.0508 -0.40763,-0.25457 -0.628,-0.25343 -1.04248,0.005 -0.28907,0.18052 -0.91414,0.32749 -1.38906,0.3266 l -0.86349,-0.002 0.75785,-0.39525 c 0.47041,-0.24533 1.49067,-0.39524 2.68993,-0.39524 1.28696,0 1.98362,-0.11043 2.08642,-0.33073 0.12127,-0.25986 0.18858,-0.25639 0.31408,0.0162 0.12515,0.2718 0.26835,0.24861 0.66145,-0.10715 0.54161,-0.49015 0.66431,-1.29867 0.23715,-1.56267 -0.14552,-0.0899 -0.26416,-0.30532 -0.26364,-0.47863 6.3e-4,-0.20952 0.57591,-0.32083 1.71661,-0.33216 1.42481,-0.0141 1.82834,-0.12289 2.3803,-0.64143 0.83892,-0.78812 0.83974,-1.06132 0.003,-1.06132 -0.57741,0 -0.66146,-0.11569 -0.66146,-0.91043 0,-0.92669 -0.38348,-1.48072 -0.60714,-0.87716 -0.0907,0.2447 -0.25118,0.21024 -0.60846,-0.13064 -0.46827,-0.44677 -0.46153,-0.46302 0.19185,-0.46302 0.37243,0 0.89265,-0.23813 1.15604,-0.52917 0.50549,-0.55856 2.51354,-0.76993 2.51354,-0.26458 0,0.14552 -0.15784,0.26458 -0.35075,0.26458 -0.19292,0 -0.6103,0.27628 -0.92753,0.61395 l -0.57677,0.61394 0.6654,0.62511 c 0.4297,0.40369 0.61135,0.7954 0.51282,1.10585 -0.16452,0.51835 0.51085,0.69877 0.80912,0.21615 0.0899,-0.14552 0.69228,-0.26458 1.33853,-0.26458 0.64626,0 1.17501,-0.11906 1.17501,-0.26458 0,-0.14552 0.2679,-0.26248 0.59532,-0.25991 0.45842,0.004 0.74198,0.323 1.23319,1.38906 0.96366,2.09141 1.4985,2.57501 2.84782,2.57501 0.62948,0 1.14451,0.11907 1.14451,0.26459 0,0.14552 0.29765,0.26458 0.66146,0.26458 0.39953,0 0.66145,0.15097 0.66145,0.38126 0,0.71546 0.49463,0.68891 0.84494,-0.0454 0.3782,-0.79271 1.55883,-1.13075 2.17197,-0.62189 0.43138,0.35802 0.68726,0.1033 0.68726,-0.68414 0,-0.70791 0.3163,-0.79578 0.79375,-0.22049 0.40371,0.48644 -0.0264,1.11318 -1.0244,1.49261 -0.49346,0.18761 -0.57544,0.32068 -0.3416,0.55452 0.23383,0.23383 0.38386,0.23147 0.62517,-0.01 0.17462,-0.17463 0.62714,-0.3175 1.00558,-0.3175 0.72249,0 2.1109,-0.54337 2.11444,-0.8275 0.001,-0.0913 -0.17653,-0.31426 -0.39481,-0.49542 -0.21829,-0.18116 -0.39688,-0.62597 -0.39688,-0.98848 0,-0.62598 0.0568,-0.65059 1.12998,-0.48965 1.06295,0.1594 1.1913,0.10664 2.16378,-0.88926 0.97924,-1.00283 1.01036,-1.0846 0.58981,-1.5493 -0.24419,-0.26983 -0.44399,-0.59262 -0.44399,-0.7173 0,-0.48135 1.18027,-1.45143 1.76592,-1.45143 0.43895,0 0.61533,-0.15168 0.61533,-0.52916 0,-0.29105 -0.11906,-0.52917 -0.26458,-0.52917 -0.14552,0 -0.26458,-0.40283 -0.26458,-0.89518 0,-0.67267 0.13153,-0.92958 0.52916,-1.03357 0.41887,-0.10953 0.52917,-0.36089 0.52917,-1.20587 0,-0.58711 -0.11906,-1.14107 -0.26458,-1.23101 -0.37383,-0.23103 -0.33001,-1.91846 0.0531,-2.04618 0.37444,-0.12481 -0.31821,-1.77089 -0.97429,-2.31539 -0.22097,-0.18338 -0.40461,-0.46768 -0.40809,-0.63176 -0.01,-0.46024 -2.43097,-1.53874 -2.74637,-1.22334 -0.44642,0.44642 -0.95147,0.29228 -0.95147,-0.29039 0,-0.33142 -0.21256,-0.60952 -0.52916,-0.69231 -0.29104,-0.0761 -0.52917,-0.24356 -0.52917,-0.37211 0,-0.12855 -1.06453,-0.23372 -2.36563,-0.23372 -1.3011,0 -2.43922,-0.11907 -2.52916,-0.26459 -0.21202,-0.34305 -1.37548,-0.34305 -1.5875,0 -0.0899,0.14552 -0.62572,0.26459 -1.19063,0.26459 -0.5649,0 -1.10125,0.11997 -1.19187,0.26661 -0.10206,0.16513 -0.31749,0.11391 -0.56596,-0.13456 -0.34028,-0.34029 -0.34906,-0.51892 -0.0578,-1.17686 0.18884,-0.42663 0.54164,-0.82754 0.78399,-0.89091 0.58786,-0.15373 0.83144,-2.25892 0.32949,-2.84762 -0.19589,-0.22974 -0.35616,-0.60233 -0.35616,-0.82799 0,-0.59671 -2.00937,-2.57293 -3.06425,-3.01368 -0.68578,-0.28654 -0.9045,-0.53702 -0.9045,-1.03584 0,-0.48151 -0.14187,-0.6579 -0.52917,-0.6579 -0.29104,0 -0.52916,-0.091 -0.52916,-0.20217 0,-0.17602 -1.89728,-1.12075 -2.25078,-1.12075 -0.0718,0 -0.13047,0.17859 -0.13047,0.39687 0,0.23775 -0.24401,0.39688 -0.60854,0.39688 -0.3347,0 -0.75142,0.14287 -0.92605,0.3175 -0.24694,0.24694 -0.3175,0.0999 -0.3175,-0.66146 0,-0.86152 -0.0775,-0.97896 -0.64584,-0.97896 -0.35521,0 -0.71943,-0.11906 -0.80936,-0.26458 -0.0899,-0.14552 -0.57322,-0.26458 -1.07395,-0.26458 -0.50074,0 -0.91043,-0.11907 -0.91043,-0.26459 0,-0.14552 -0.23812,-0.26458 -0.52917,-0.26458 -0.29104,0 -0.52916,-0.11906 -0.52916,-0.26458 0,-0.14552 -0.52876,-0.26459 -1.17501,-0.26459 -0.64626,0 -1.2486,-0.11906 -1.33853,-0.26458 -0.0985,-0.15934 -1.92539,-0.26458 -4.59291,-0.26458 -2.880712,0 -4.531606,-0.10222 -4.721747,-0.29236 -0.370124,-0.37013 -7.220648,-0.3438 -7.593628,0.0292 -0.144748,0.14475 -1.065776,0.26318 -2.046729,0.26318 -0.980953,0 -1.857136,0.11906 -1.947073,0.26458 -0.08994,0.14552 -0.454151,0.26458 -0.809365,0.26458 -0.497535,0 -0.645844,0.13975 -0.645844,0.60854 0,0.67329 -0.448924,1.24355 -0.978958,1.24355 -0.1905,0 -0.343958,-0.29512 -0.343958,-0.66146 0,-0.41158 0.14993,-0.66146 0.396875,-0.66146 0.218281,0 0.396875,-0.11906 0.396875,-0.26458 0,-0.14552 -0.29063,-0.26459 -0.645844,-0.26459 -0.355213,0 -0.719428,0.11907 -0.809364,0.26459 -0.08994,0.14552 -0.573214,0.26458 -1.073949,0.26458 -0.500734,0 -0.910426,0.11906 -0.910426,0.26458 0,0.14552 -0.29063,0.26459 -0.645844,0.26459 -0.355214,0 -0.711254,0.10583 -0.7912,0.23519 -0.07995,0.12936 -1.576402,0.32118 -3.325456,0.42626 -1.749055,0.10509 -3.24551,0.29691 -3.325456,0.42627 -0.07995,0.12936 -0.42896,0.23519 -0.775586,0.23519 -0.346626,0 -0.703813,0.11907 -0.79375,0.26459 -0.08994,0.14552 -0.396235,0.26458 -0.680663,0.26458 -0.480786,0 -1.529198,0.46507 -1.832878,0.81305 -0.07276,0.0834 -0.340651,0.22847 -0.595313,0.32242 -0.254661,0.094 -0.463021,0.34709 -0.463021,0.5625 0,0.22181 -0.752032,0.75058 -1.734069,1.21926 -1.153671,0.5506 -1.815656,1.04218 -1.977827,1.46872 -0.134066,0.35263 -0.425297,0.64113 -0.64718,0.64113 -0.221883,0 -0.403424,0.16014 -0.403424,0.35587 0,0.19573 -0.238125,0.57137 -0.529166,0.83476 -0.291042,0.26339 -0.529167,0.73428 -0.529167,1.04642 0,0.31215 -0.125915,0.69345 -0.27981,0.84735 -0.153896,0.15389 -0.349147,0.95161 -0.433891,1.7727 l -0.154081,1.4929 h 0.963058 c 0.529681,0 0.963057,0.11907 0.963057,0.26459 0,0.14552 0.24663,0.26458 0.548066,0.26458 0.487169,0 0.503968,0.0441 0.15119,0.39687 -0.218281,0.21829 -0.636477,0.39688 -0.929325,0.39688 -0.729714,0 -0.943227,0.43739 -0.296121,0.60661 0.289405,0.0757 0.52619,0.32734 0.52619,0.55924 0,0.23191 0.186617,0.42165 0.414705,0.42165 0.294299,0 0.365942,0.15364 0.246754,0.52917 -0.09635,0.30356 -0.04755,0.52916 0.114462,0.52916 0.155327,0 0.282413,0.40284 0.282413,0.89519 0,0.67086 0.131805,0.92965 0.525981,1.03273 0.289289,0.0756 0.667732,0.47649 0.840984,0.89075 0.299364,0.71581 0.32014,0.72365 0.418463,0.1579 0.0569,-0.32743 0.190504,-0.59532 0.296892,-0.59532 0.502378,0 1.617944,0.7004 1.619782,1.01696 0.0011,0.19553 0.240189,0.41777 0.531231,0.49388 0.291042,0.0761 0.529167,0.2892 0.529167,0.47354 0,0.18433 0.208359,0.40865 0.46302,0.49848 0.254662,0.0898 0.611849,0.23269 0.79375,0.31749 0.21902,0.10209 0.33073,-0.0767 0.33073,-0.52934 0,-0.43117 0.146516,-0.68351 0.396875,-0.68351 0.218281,0 0.396875,0.1786 0.396875,0.39688 0,0.21828 0.119062,0.39687 0.264583,0.39687 0.145521,0 0.264583,0.42046 0.264583,0.93435 0,0.98148 0.444392,1.373 1.220424,1.0752 0.29155,-0.11187 0.347095,-0.26747 0.175392,-0.49132 -0.160851,-0.20971 -0.147163,-0.52545 0.03803,-0.87736 0.277309,-0.52695 0.322191,-0.53162 1.081379,-0.11269 0.517467,0.28555 0.821086,0.68253 0.875782,1.14507 0.07674,0.64895 0.0063,0.708 -0.844281,0.708 -0.510401,0 -1.001586,0.11907 -1.091523,0.26459 -0.08994,0.14552 -0.454151,0.26458 -0.809364,0.26458 -0.741478,0 -0.799883,0.14834 -0.267868,0.68036 0.459243,0.45924 1.049663,0.48229 1.714737,0.0669 0.399041,-0.24921 0.582391,-0.22667 0.922451,0.11339 0.233431,0.23343 0.424419,0.66402 0.424419,0.95687 0,0.29285 0.12497,0.60968 0.27771,0.70408 0.169593,0.10482 0.04084,0.38228 -0.330729,0.7127 -0.410687,0.36521 -0.500947,0.57965 -0.27771,0.65978 0.181901,0.0653 0.330729,0.32318 0.330729,0.57309 0,0.69895 0.622231,1.87841 0.992188,1.88071 0.421364,0.003 0.430229,0.85507 0.01323,1.27207 -0.174625,0.17462 -0.609797,0.3175 -0.967049,0.3175 -0.632789,0 -0.637193,0.0136 -0.170659,0.52917 0.263389,0.29104 0.63903,0.52916 0.834757,0.52916 0.195727,0 0.355868,0.15524 0.355868,0.34498 0,0.18973 0.416718,0.74887 0.926041,1.24252 0.509323,0.49366 0.926042,0.74723 0.926042,0.5635 0,-0.20834 0.273835,-0.30255 0.727604,-0.25034 0.571912,0.0658 0.74555,0.23973 0.81147,0.81283 0.08495,0.73858 -0.607981,1.33149 -0.970465,0.83037 -0.315604,-0.4363 -1.572883,-0.96266 -1.866297,-0.78132 -0.453892,0.28052 -0.339486,1.20401 0.173209,1.39815 0.584684,0.2214 1.124479,0.74775 1.124479,1.09647 0,0.44256 0.528409,0.6291 0.902527,0.31861 0.579057,-0.48058 1.041068,0.34684 0.876939,1.57051 -0.141149,1.05235 -0.138666,1.05581 0.759252,1.05581 0.87016,0 1.182004,-0.32419 0.636282,-0.66146 -0.145521,-0.0899 -0.264583,-0.39082 -0.264583,-0.66862 0,-0.44048 0.186137,-0.50019 1.455208,-0.4668 1.011492,0.0266 1.455208,0.14504 1.455208,0.38841 0,0.19257 0.119063,0.35013 0.264583,0.35013 0.145521,0 0.264584,0.23813 0.264584,0.52917 0,0.38464 0.176389,0.52917 0.645843,0.52917 0.355214,0 0.719428,0.11906 0.809365,0.26458 0.280298,0.45353 0.968944,0.28997 1.113962,-0.26458 0.139553,-0.53365 0.870413,-0.75582 0.870413,-0.26459 0,0.14552 0.14316,0.26459 0.318133,0.26459 0.174973,0 0.680989,0.34515 1.124479,0.76702 0.808936,0.76948 3.344012,1.50167 2.940882,0.84939 -0.09976,-0.16142 -0.367536,-0.2935 -0.595047,-0.2935 -0.313225,0 -0.343082,-0.085 -0.122973,-0.35025 0.212272,-0.25577 0.206737,-0.4342 -0.02052,-0.66146 -0.238551,-0.23855 -0.237081,-0.3112 0.0063,-0.3112 0.174625,0 0.3175,-0.1871 0.3175,-0.41578 0,-0.22867 0.178594,-0.59437 0.396875,-0.81265 0.352778,-0.35277 0.396875,-0.32301 0.396875,0.26787 0,0.36561 0.119062,0.73833 0.264583,0.82826 0.145521,0.0899 0.264584,0.5881 0.264584,1.10703 0,0.90942 0.02897,0.9377 0.802173,0.78306 0.683084,-0.13662 0.839229,-0.063 1.051784,0.49609 0.307504,0.8088 0.706022,0.82943 1.505931,0.078 0.475192,-0.44642 0.687593,-0.50685 0.929866,-0.26458 0.172697,0.1727 0.479457,0.314 0.681689,0.314 0.425494,0 1.356793,-1.03438 1.369754,-1.52136 0.01091,-0.4098 0.336794,-0.42607 0.726585,-0.0363 0.4634,0.4634 0.86972,0.0212 0.86972,-0.94663 0,-0.84925 0.027,-0.873 0.65939,-0.5797 0.50029,0.23204 0.65989,0.50956 0.66146,1.15012 0.001,0.46436 -0.117,0.91787 -0.26252,1.0078 -0.14552,0.0899 -0.26458,0.43034 -0.26458,0.75645 0,0.32611 -0.1325,0.72543 -0.29445,0.88738 -0.3759,0.3759 -0.0481,0.92411 0.48919,0.81822 0.2255,-0.0444 0.54095,-0.28874 0.70101,-0.5429 z m -6.804777,-3.28616 c -0.09701,-0.097 -0.176389,-0.40295 -0.176389,-0.67986 0,-0.37078 0.156895,-0.48119 0.595312,-0.41892 0.777685,0.11045 1.016021,1.27517 0.260937,1.27517 -0.276909,0 -0.582846,-0.0794 -0.67986,-0.17639 z m -2.410603,-1.6594 c -0.261689,-0.28916 -0.405563,-0.70878 -0.319721,-0.93248 0.170599,-0.44457 1.495602,-0.57051 1.495602,-0.14215 0,0.14552 0.178593,0.26459 0.396875,0.26459 0.550681,0 0.499269,0.69591 -0.06615,0.89535 -0.254662,0.0898 -0.590774,0.22567 -0.746917,0.30188 -0.156143,0.0762 -0.498005,-0.098 -0.759693,-0.38719 z m -8.825369,-0.86296 c -0.174625,-0.17463 -0.3175,-0.47228 -0.3175,-0.66146 0,-0.18918 -0.178594,-0.34396 -0.396875,-0.34396 -0.277183,0 -0.396875,-0.27928 -0.396875,-0.92604 0,-1.13494 0.450482,-1.20167 1.339561,-0.19844 1.026614,1.15843 1.316944,1.80173 0.96981,2.14886 -0.385437,0.38544 -0.800288,0.37887 -1.198121,-0.019 z m 21.290139,-2.24014 c -0.36108,-0.36108 -0.15808,-0.65147 0.3982,-0.56962 0.7271,0.10699 0.97149,0.74601 0.2853,0.74601 -0.27891,0 -0.58649,-0.0794 -0.6835,-0.17639 z M 79.109614,231.2455 c 0,-0.51383 0.13582,-0.66146 0.608542,-0.66146 0.867675,0 1.309565,0.50094 0.848556,0.96195 -0.198532,0.19853 -0.607596,0.36097 -0.909032,0.36097 -0.408215,0 -0.548066,-0.16879 -0.548066,-0.66146 z m -2.38125,-0.59113 c 0,-0.41571 0.65704,-1.65366 0.878795,-1.65576 0.119535,-0.001 0.408594,0.18919 0.642353,0.42295 0.314036,0.31403 0.353949,0.53857 0.152853,0.8599 -0.286426,0.45766 -1.674001,0.76676 -1.674001,0.37291 z m 2.98708,-1.65783 c -0.07611,-0.29104 -0.26907,-0.52916 -0.428802,-0.52916 -0.166141,0 -0.12396,-0.16646 0.09857,-0.389 0.232186,-0.23218 0.628337,-0.3264 0.982738,-0.23372 0.589089,0.15405 0.836822,0.62272 0.329162,0.62272 -0.145521,0 -0.264583,0.23812 -0.264583,0.52916 0,0.29104 -0.130209,0.52917 -0.289354,0.52917 -0.159144,0 -0.351624,-0.23813 -0.427733,-0.52917 z m 45.055916,-2.34707 c -0.0783,-0.12673 -0.52402,-0.30674 -0.99044,-0.40002 -1.03733,-0.20747 -1.80881,-0.86692 -1.80881,-1.54615 0,-0.55133 -0.5857,-1.26301 -1.03943,-1.26301 -0.15592,0 -0.28349,-0.21585 -0.28349,-0.47966 0,-0.26382 -0.35501,-0.81979 -0.78891,-1.23549 -0.53814,-0.51558 -0.70835,-0.8529 -0.53546,-1.06122 0.16317,-0.1966 0.15323,-0.4056 -0.0279,-0.58673 -0.19873,-0.19873 -0.19689,-0.33354 0.006,-0.45911 0.43411,-0.26829 0.35057,-1.7265 -0.10901,-1.90285 -0.23396,-0.0898 -0.6981,0.1578 -1.1316,0.60361 -0.95212,0.97916 -1.7443,1.41729 -2.56259,1.41729 -0.60139,0 -0.64368,-0.0745 -0.48813,-0.8599 0.15448,-0.78 0.12928,-0.82616 -0.2712,-0.49677 -0.39235,0.3227 -0.4415,0.28589 -0.4415,-0.33073 0,-0.63138 0.0939,-0.69385 1.04272,-0.69385 0.5735,0 1.11631,-0.11907 1.20624,-0.26459 0.0899,-0.14552 0.75555,-0.26458 1.47913,-0.26458 0.9911,0 1.35793,-0.1103 1.48719,-0.44715 0.0958,-0.24965 0.0337,-0.49312 -0.14059,-0.55122 -0.1717,-0.0572 -0.31219,-0.51086 -0.31219,-1.00805 0,-0.88092 0.0275,-0.904 1.07724,-0.904 1.23963,0 1.83318,-0.46505 1.83318,-1.43631 0,-0.46254 -0.14324,-0.68035 -0.44744,-0.68035 -0.39017,0 -0.38171,-0.0497 0.0661,-0.38846 0.63142,-0.47758 1.70403,-0.52449 1.70474,-0.0746 3.6e-4,0.22118 0.52617,0.3503 1.5875,0.38981 1.24822,0.0465 1.58698,-0.0241 1.58698,-0.33073 0,-0.42794 0.67269,-0.53516 0.91346,-0.14559 0.083,0.13433 0.48025,0.31656 0.88274,0.40496 0.53068,0.11656 0.85685,0.44937 1.18681,1.21098 0.5969,1.37778 0.79543,1.32932 0.57503,-0.14037 -0.1489,-0.99295 -0.10766,-1.19063 0.24837,-1.19063 0.412,0 0.55347,0.4164 0.47196,1.38907 -0.0272,0.32455 0.15341,0.46302 0.60392,0.46302 0.3535,0 0.71631,0.11906 0.80625,0.26458 0.0899,0.14552 0.45415,0.26458 0.80936,0.26458 0.3977,0 0.64585,0.15249 0.64585,0.39688 0,0.49293 0.20164,0.49545 1.12448,0.0141 0.63269,-0.33005 0.7276,-0.32983 0.7276,0.002 0,0.20965 0.11906,0.38118 0.26458,0.38118 0.14552,0 0.26459,0.23813 0.26459,0.52917 0,0.39187 -0.17639,0.52917 -0.67986,0.52917 -0.55371,0 -0.66417,0.11046 -0.59532,0.59531 0.0465,0.32742 0.35244,0.71284 0.67986,0.85649 0.44282,0.19427 0.59532,0.48289 0.59532,1.12672 0,0.7926 -0.0436,0.83833 -0.51714,0.54259 -0.70172,-0.43824 -0.99759,-0.0674 -0.43883,0.54998 0.38018,0.4201 0.39507,0.55683 0.0938,0.86152 -0.19695,0.1992 -0.43698,0.57054 -0.53342,0.8252 -0.0964,0.25466 -0.33543,0.46302 -0.53112,0.46302 -0.19569,0 -0.5193,0.41672 -0.71915,0.92604 -0.19984,0.50932 -0.53086,0.92604 -0.73561,0.92604 -0.20474,0 -0.43453,0.23813 -0.51064,0.52917 -0.0761,0.29104 -0.2768,0.52917 -0.44599,0.52917 -0.16918,0 -0.47923,0.23812 -0.68901,0.52916 -0.20977,0.29104 -0.58332,0.52917 -0.83011,0.52917 -0.24679,0 -0.48898,0.12082 -0.5382,0.26848 -0.0492,0.14767 -0.89258,0.34348 -1.87413,0.43514 -0.98155,0.0917 -1.78464,0.26849 -1.78464,0.39297 0,0.29691 -0.98561,0.29347 -1.1695,-0.004 z m 2.62471,-1.62168 c 0.51817,-0.29104 1.15819,-0.52916 1.42225,-0.52916 0.51421,0 1.17217,-0.63484 1.43965,-1.38907 0.0903,-0.25466 0.34653,-0.46302 0.56938,-0.46302 0.22285,0 0.40518,-0.16014 0.40518,-0.35587 0,-0.19572 0.23812,-0.57136 0.52916,-0.83475 0.55195,-0.4995 0.75777,-2.24896 0.26459,-2.24896 -0.14552,0 -0.26459,-0.23813 -0.26459,-0.52917 0,-0.29104 -0.11906,-0.52916 -0.26458,-0.52916 -0.14552,0 -0.26458,-0.18087 -0.26458,-0.40192 0,-0.2917 -0.17347,-0.35838 -0.6326,-0.24314 -0.34792,0.0873 -0.71214,0.0301 -0.80936,-0.12726 -0.4053,-0.65578 -4.23466,-0.24458 -4.90804,0.52703 -0.0728,0.0834 -0.34065,0.22847 -0.59531,0.32243 -0.25467,0.094 -0.46303,0.35316 -0.46303,0.57601 0,0.22285 -0.11906,0.40518 -0.26458,0.40518 -0.14552,0 -0.26458,0.15004 -0.26458,0.33343 0,0.18339 -0.29766,0.65444 -0.66146,1.04679 -0.3638,0.39234 -0.66146,0.97876 -0.66146,1.30316 0,0.65692 0.9578,1.81454 1.50133,1.81454 0.19291,0 0.35075,0.26942 0.35075,0.59871 0,1.18215 2.02541,1.5928 3.57188,0.7242 z m -11.24479,-6.99584 c 0,-0.0642 -0.11906,-0.19026 -0.26459,-0.2802 -0.14552,-0.0899 -0.26458,-0.0374 -0.26458,0.11668 0,0.15411 0.11906,0.2802 0.26458,0.2802 0.14553,0 0.26459,-0.0525 0.26459,-0.11668 z m 9.26041,-4.91041 c 0,-0.14552 -0.11906,-0.26458 -0.26458,-0.26458 -0.14552,0 -0.26458,0.11906 -0.26458,0.26458 0,0.14552 0.11906,0.26459 0.26458,0.26459 0.14552,0 0.26458,-0.11907 0.26458,-0.26459 z m -49.036103,12.7882 c -0.348365,-0.34837 -0.160682,-0.75503 0.487133,-1.05549 0.621691,-0.28835 0.659394,-0.26188 0.659394,0.46302 0,0.56917 -0.125982,0.76886 -0.485069,0.76886 -0.266788,0 -0.564445,-0.0794 -0.661458,-0.17639 z m 2.337152,-1.14653 c 0.08994,-0.14552 0.275558,-0.26458 0.41249,-0.26458 0.136933,0 0.248969,0.11906 0.248969,0.26458 0,0.14552 -0.185621,0.26458 -0.41249,0.26458 -0.22687,0 -0.338906,-0.11906 -0.248969,-0.26458 z m 38.496871,-0.66146 c 0,-0.24694 0.24989,-0.39687 0.66146,-0.39687 0.41157,0 0.66146,0.14993 0.66146,0.39687 0,0.24695 -0.24989,0.39688 -0.66146,0.39688 -0.41157,0 -0.66146,-0.14993 -0.66146,-0.39688 z m -40.995116,-1.30663 c -0.630111,-0.67073 -0.547689,-1.20691 0.185527,-1.20691 0.337693,0 0.363621,-0.0706 0.116677,-0.3175 -0.692987,-0.69299 -0.163998,-2.59292 0.721934,-2.59292 0.389103,0 0.360258,2.19864 -0.03402,2.59292 -0.246944,0.24694 -0.246944,0.3175 0,0.3175 0.431337,0 0.403533,1.18672 -0.03636,1.5518 -0.270245,0.22428 -0.495609,0.14279 -0.953762,-0.34489 z m 3.953454,-0.41316 c 0,-0.14552 0.357187,-0.26458 0.79375,-0.26458 0.436562,0 0.79375,0.11906 0.79375,0.26458 0,0.14552 -0.357188,0.26458 -0.79375,0.26458 -0.436563,0 -0.79375,-0.11906 -0.79375,-0.26458 z m 32.070802,-0.0496 c -0.4964,-0.4964 -0.38087,-0.78948 0.27451,-0.6964 0.32742,0.0465 0.59531,0.25322 0.59531,0.45938 0,0.50373 -0.47395,0.63289 -0.86982,0.23702 z M 84.136697,221.6641 c -0.82401,-0.30507 -1.081857,-0.65477 -0.764615,-1.03703 0.478246,-0.57625 1.474295,-0.44725 1.647036,0.21332 0.236178,0.90314 -0.02054,1.14279 -0.882421,0.82371 z m 9.172222,-0.25227 c -0.379857,-0.37986 -0.165622,-1.14653 0.320381,-1.14653 0.595869,0 1.204656,0.65995 0.965602,1.04675 -0.190558,0.30833 -1.013577,0.37219 -1.285983,0.0998 z m 6.069627,-0.77129 c -0.285202,-0.74323 -0.175148,-0.9044 0.617536,-0.9044 0.943968,0 1.246738,0.39417 0.712838,0.92807 -0.51435,0.51436 -1.128104,0.50344 -1.330374,-0.0237 z m 7.512314,-0.9233 c 0,-0.81068 0.50224,-1.5686 1.03944,-1.5686 0.15591,0 0.28348,0.11078 0.28348,0.24618 0,0.1354 0.26789,0.29304 0.59531,0.35032 0.57489,0.10057 0.57716,0.11204 0.0662,0.33433 -0.88609,0.38544 -1.19956,0.80649 -0.85612,1.14992 0.22427,0.22427 0.11928,0.3005 -0.41388,0.3005 -0.62106,0 -0.71438,-0.10616 -0.71438,-0.81265 z m 9.78958,0.44817 c 0,-0.29697 0.22425,-0.42284 0.72761,-0.40839 0.4147,0.0119 0.55693,0.0841 0.33073,0.16782 -0.21828,0.0808 -0.54571,0.26459 -0.72761,0.40839 -0.23611,0.18666 -0.33073,0.13865 -0.33073,-0.16782 z m -5.29166,-1.35532 c 0,-0.88194 0.0441,-0.92604 0.92604,-0.92604 0.72372,0 0.92604,0.10665 0.92604,0.48816 0,0.59008 -0.79993,1.36393 -1.40989,1.36393 -0.32897,0 -0.44219,-0.23711 -0.44219,-0.92605 z m -42.425663,-2.33166 c 0.388098,-0.51452 0.558141,-0.56714 1.068621,-0.33073 0.981392,0.45449 0.743462,0.9426 -0.459476,0.9426 h -1.070685 z m 14.524659,-0.10607 c -1.157271,-0.055 -2.262658,-0.23156 -2.456415,-0.39237 -0.259773,-0.21559 -0.527907,-0.19838 -1.021052,0.0655 -0.527935,0.28255 -0.776008,0.29095 -1.178016,0.0399 -0.280087,-0.17492 -0.966936,-0.31803 -1.526331,-0.31803 -0.987207,0 -3.048487,-0.86045 -3.963628,-1.65455 -0.247736,-0.21497 -1.037039,-0.46703 -1.754007,-0.56013 -1.324552,-0.17201 -2.268296,-0.75374 -2.268296,-1.39821 0,-0.19572 -0.157839,-0.35586 -0.350754,-0.35586 -0.425756,0 -1.501329,-1.10214 -1.501329,-1.53841 0,-0.17252 -0.160141,-0.31368 -0.355868,-0.31368 -0.547776,0 -1.231867,-0.89482 -1.229568,-1.60833 0.0023,-0.72305 0.958326,-1.30208 2.149777,-1.30208 0.592509,0 0.738578,-0.13168 0.807147,-0.72761 0.07114,-0.61824 0.222562,-0.74078 1.00745,-0.81527 0.508051,-0.0482 1.000755,-0.2123 1.094898,-0.36463 0.262901,-0.42538 0.759497,0.0154 0.759497,0.67409 0,0.32309 -0.249577,0.76254 -0.554616,0.97657 -1.453805,1.02004 -1.440238,1.0025 -1.146273,1.48237 0.457591,0.74699 0.907139,0.74062 0.907139,-0.0129 0,-0.43117 0.146517,-0.68351 0.396875,-0.68351 0.218281,0 0.396875,-0.11906 0.396875,-0.26458 0,-0.14552 0.238125,-0.26458 0.529167,-0.26458 0.291041,0 0.530095,-0.0893 0.531231,-0.19844 0.004,-0.38024 1.434312,-0.8599 2.564226,-0.8599 1.124041,0 1.137876,0.0113 1.137876,0.92604 0,0.87765 -0.04725,0.92605 -0.903993,0.92605 -0.497196,0 -0.953963,-0.14883 -1.015038,-0.33073 -0.136434,-0.40635 -1.334756,0.15136 -2.248156,1.0463 -0.795062,0.779 -0.757915,0.87193 0.348558,0.87193 0.855939,0 0.927051,0.0555 0.763318,0.59531 -0.154788,0.51036 -0.04406,0.46519 0.77592,-0.31649 0.526061,-0.50149 0.956474,-0.76938 0.956474,-0.59531 0,0.39225 2.802812,0.44006 3.042709,0.0519 0.08994,-0.14552 0.393714,-0.26458 0.67506,-0.26458 0.281347,0 0.817832,-0.26789 1.192189,-0.59531 0.374356,-0.32742 0.940809,-0.66257 1.258783,-0.74476 0.470694,-0.12168 0.572526,-0.33065 0.547955,-1.12448 -0.02797,-0.90372 0.02524,-0.97503 0.727604,-0.97503 0.660781,0 0.757784,0.0988 0.757784,0.7717 0,0.42443 -0.101211,0.81139 -0.224913,0.85989 -0.123702,0.0485 -0.291432,0.59769 -0.372734,1.2204 l -0.147822,1.13221 3.349297,-0.0739 3.349296,-0.0739 0.08291,-0.85989 c 0.06644,-0.68912 0.200436,-0.8599 0.674687,-0.8599 0.759712,0 1.226778,0.47345 1.226778,1.24354 0,0.47273 0.14763,0.60855 0.661459,0.60855 0.579563,0 0.661458,0.11465 0.661458,0.92604 0,0.78991 -0.08945,0.92604 -0.608542,0.92604 -0.775401,0 -1.243541,-0.46814 -1.243541,-1.24354 0,-0.42334 -0.154341,-0.60854 -0.507118,-0.60854 -0.278915,0 -0.546806,0.11096 -0.595313,0.24658 -0.04851,0.13562 -1.576476,0.32966 -3.395486,0.4312 -1.81901,0.10154 -3.461166,0.307 -3.649234,0.45658 -0.23698,0.18848 -0.435961,0.17794 -0.648229,-0.0343 -0.463974,-0.46397 -0.65453,-0.37911 -1.084601,0.48298 l -0.393738,0.78927 2.400675,-0.17041 c 1.839708,-0.13058 2.35464,-0.0959 2.203665,0.14837 -0.236036,0.38191 0.292279,1.08934 0.813533,1.08934 0.204064,0 0.479318,-0.28483 0.611675,-0.63296 0.235124,-0.61842 0.299713,-0.63052 2.812964,-0.52721 2.694666,0.11077 3.398809,0.37939 3.139142,1.19752 -0.106822,0.33657 -0.02519,0.49182 0.25861,0.49182 0.271925,0 0.414705,0.24071 0.414705,0.69915 0,0.69841 0.0017,0.69897 1.626312,0.52916 0.894471,-0.0935 1.96977,-0.16998 2.389553,-0.16998 1.01456,0 1.234724,-0.65403 0.487805,-1.44908 -0.324699,-0.34563 -0.511329,-0.75629 -0.414734,-0.91258 0.29996,-0.48535 1.064554,-0.31268 1.338427,0.30226 0.143648,0.32253 0.737428,0.82855 1.319511,1.12448 0.582085,0.29592 1.144245,0.65711 1.249235,0.80263 0.31726,0.43969 1.12339,-0.24541 1.21724,-1.0345 0.103,-0.86594 0.71498,-1.15575 1.45916,-0.691 0.34697,0.21668 0.58131,0.24321 0.63829,0.0722 0.1005,-0.30151 1.38358,0.1876 1.38713,0.52877 0.001,0.10914 0.64233,0.19844 1.42488,0.19844 1.55755,0 2.17593,-0.42113 1.94048,-1.32151 -0.1019,-0.38965 -0.009,-0.53058 0.35003,-0.53058 0.71618,0 0.93084,-0.54046 0.28205,-0.71012 -0.65315,-0.1708 -0.75087,-1.08371 -0.14106,-1.31771 0.22809,-0.0875 0.70477,-0.004 1.05929,0.18581 0.56882,0.30443 0.71641,0.27747 1.25597,-0.22942 0.33627,-0.31592 0.87163,-0.57439 1.18967,-0.57439 0.43287,0 0.57826,-0.15854 0.57826,-0.6306 0,-0.40808 0.18672,-0.67943 0.52916,-0.76898 0.66405,-0.17365 0.688,-1.0205 0.0453,-1.60212 -0.64836,-0.58675 -1.17953,-0.56461 -0.98727,0.0412 0.11591,0.36518 -0.0691,0.5658 -0.77846,0.84413 -0.61139,0.23989 -0.84105,0.45454 -0.66967,0.62592 0.37424,0.37424 -0.18684,0.96133 -0.91875,0.96133 -0.36667,0 -0.64944,-0.19595 -0.73059,-0.50628 -0.12933,-0.49455 -0.4706,-0.57587 -3.76578,-0.89731 -0.78782,-0.0768 -0.91957,-1.75345 -0.15353,-1.95378 0.76385,-0.19974 0.41135,-0.61138 -0.52355,-0.61138 -0.51528,0 -0.77813,-0.13406 -0.77813,-0.39687 0,-0.28322 0.28821,-0.39688 1.00643,-0.39688 0.80285,0 1.18798,0.18732 1.90398,0.92604 0.752,0.77586 1.08224,0.92605 2.03628,0.92605 0.6263,0 1.13872,-0.11907 1.13872,-0.26459 0,-0.14552 -0.36569,-0.26458 -0.81264,-0.26458 -0.86945,0 -1.7091,-0.61696 -1.43757,-1.0563 0.0906,-0.14664 0.33635,-0.26662 0.54604,-0.26662 0.20969,0 0.38126,-0.11906 0.38126,-0.26458 0,-0.14552 -0.17157,-0.26458 -0.38126,-0.26458 -0.55826,0 -0.7707,-0.49443 -0.40287,-0.93764 0.42105,-0.50733 1.81532,-0.49929 2.01136,0.0116 0.0838,0.21829 0.38642,0.39688 0.67256,0.39688 0.73425,0 0.51214,0.90202 -0.24885,1.01059 -0.32593,0.0465 -0.59261,0.18182 -0.59261,0.3007 0,0.31047 1.51476,0.48864 2.48272,0.29202 0.71719,-0.14568 0.84552,-0.30405 0.98546,-1.21613 0.0885,-0.57675 0.17779,-0.78075 0.19844,-0.45333 0.0207,0.32743 0.14272,0.59532 0.27127,0.59532 0.12855,0 0.30714,0.26789 0.39687,0.59531 0.12813,0.46756 0.21419,0.51607 0.40103,0.22603 0.30954,-0.48051 1.09521,-0.17817 1.26956,0.48855 0.0962,0.36792 0.40724,0.5363 1.09716,0.59398 0.72324,0.0605 0.98437,0.2122 1.0492,0.60967 0.0475,0.29104 0.25724,0.9052 0.46613,1.36481 0.26506,0.58318 0.31644,1.14272 0.17007,1.85208 -0.17424,0.84441 -0.33113,1.03061 -0.92695,1.10016 -0.56048,0.0654 -0.71721,0.22443 -0.71721,0.72761 0,0.46894 -0.14475,0.64388 -0.53276,0.64388 -0.62964,0 -1.53988,0.478 -2.14128,1.12448 -0.2369,0.25466 -0.61521,0.46302 -0.84067,0.46302 -0.22547,0 -0.45021,0.12082 -0.49944,0.26848 -0.0492,0.14767 -0.91767,0.34582 -1.92989,0.44035 -1.25654,0.11733 -2.29291,0.40988 -3.26672,0.92214 -0.93074,0.4896 -1.82523,0.75028 -2.57445,0.75028 -0.63148,0 -1.22173,0.11906 -1.31166,0.26458 -0.0982,0.15894 -1.89158,0.26459 -4.49148,0.26459 -2.380383,0 -4.367653,0.10532 -4.41616,0.23406 -0.09753,0.25884 -9.194239,0.52853 -12.511074,0.37091 z m 4.48538,-1.39872 c 0.08994,-0.14552 0.751807,-0.26459 1.470823,-0.26459 0.995089,0 1.307302,-0.0963 1.307302,-0.40342 0,-0.22188 -0.2745,-0.50779 -0.61,-0.63535 -0.818736,-0.31128 -4.681667,-0.31246 -4.681667,-0.001 0,0.13555 0.416719,0.24645 0.926042,0.24645 0.811389,0 0.926041,0.0819 0.926041,0.66146 0,0.66815 0.360225,0.88428 0.661459,0.39688 z m -7.328958,-0.84667 c 0.492696,-0.4927 0.376266,-0.78602 -0.27511,-0.69309 -0.325935,0.0465 -0.632322,0.29291 -0.680859,0.54757 -0.101156,0.53074 0.481982,0.61951 0.955969,0.14552 z m -2.171974,-1.29362 c 1.081071,-1.06099 1.094843,-1.09717 0.710813,-1.86697 -0.281684,-0.56465 -0.551208,-0.76227 -0.960125,-0.70399 -0.470318,0.067 -0.591354,0.30345 -0.700798,1.36882 l -0.132291,1.28779 -0.504028,-0.56018 c -0.635363,-0.70615 -1.215764,-0.72096 -1.215764,-0.031 0,0.29104 0.164707,0.52917 0.366016,0.52917 0.201309,0 0.428288,0.23812 0.504397,0.52917 0.206909,0.79122 0.708614,0.64765 1.93178,-0.55279 z m 5.003015,0.81737 c 0.0954,-0.15436 -0.173641,-0.26458 -0.645843,-0.26458 -0.445151,0 -0.809365,0.11906 -0.809365,0.26458 0,0.14552 0.290629,0.26458 0.645843,0.26458 0.355214,0 0.719428,-0.11906 0.809365,-0.26458 z m -1.455208,-3.96875 c 0,-0.14552 -0.238125,-0.26458 -0.529167,-0.26458 -0.291041,0 -0.529166,0.11906 -0.529166,0.26458 0,0.14552 0.238125,0.26458 0.529166,0.26458 0.291042,0 0.529167,-0.11906 0.529167,-0.26458 z m -16.4812,5.92019 c -0.318858,-0.31886 -0.207357,-1.07646 0.209325,-1.42227 0.530622,-0.44038 1.247816,0.12902 1.137247,0.90289 -0.07824,0.54763 -0.973151,0.8928 -1.346572,0.51938 z m 28.988708,-2.27336 c -0.149551,-0.18675 -0.349353,-0.59267 -0.444004,-0.90205 -0.133913,-0.43772 -0.03837,-0.59834 0.430638,-0.72399 0.978568,-0.26217 1.035388,-0.21411 0.949433,0.80303 -0.0872,1.0319 -0.48717,1.38356 -0.936067,0.82301 z m 6.145611,-0.73641 c -0.24429,-0.39527 0.0956,-0.79375 0.67708,-0.79375 0.33716,0 0.51355,0.18175 0.51355,0.52916 0,0.5612 -0.88567,0.75801 -1.19063,0.26459 z m 5.68854,-1.05834 c 0,-0.14552 -0.51196,-0.26458 -1.1377,-0.26458 -1.29484,0 -1.92854,-0.41947 -1.46944,-0.97266 0.23226,-0.27986 0.0945,-0.35026 -0.68558,-0.35026 -0.88893,0 -0.9603,-0.0532 -0.79775,-0.59531 0.30083,-1.00319 0.81793,-1.40252 1.29907,-1.00321 0.22559,0.18722 0.41015,0.50442 0.41015,0.70488 0,0.24016 0.31587,0.36448 0.92605,0.36448 0.88194,0 0.92604,-0.0441 0.92604,-0.92605 0,-0.88194 0.0441,-0.92604 0.92604,-0.92604 0.62255,0 0.92604,0.12285 0.92604,0.37483 0,0.20615 0.14883,0.42492 0.33073,0.48614 0.54288,0.18272 -0.29282,0.99112 -1.02458,0.99112 -0.34599,0 -0.62907,0.11906 -0.62907,0.26458 0,0.14552 0.2679,0.26551 0.59532,0.26665 0.37507,0.001 0.70845,0.246 0.90115,0.66146 0.28053,0.60483 0.25316,0.65939 -0.33073,0.65939 -0.35011,0 -0.63657,0.11906 -0.63657,0.26458 0,0.14552 -0.11906,0.26459 -0.26458,0.26459 -0.14552,0 -0.26459,-0.11907 -0.26459,-0.26459 z m -7.143743,-0.89364 c 0,-0.76599 0.658384,-1.42659 0.900313,-0.90334 0.12551,0.27146 0.18989,0.27339 0.31291,0.009 0.25291,-0.54272 0.63886,-0.0927 0.63886,0.74486 0,0.71291 -0.0776,0.77814 -0.92604,0.77814 -0.798672,0 -0.926043,-0.0865 -0.926043,-0.62906 z m -2.783022,-0.70178 c -0.102916,-0.16652 -0.08233,-0.40756 0.04574,-0.53563 0.316381,-0.31638 1.460443,0.007 1.338312,0.3788 -0.135143,0.41093 -1.155556,0.52655 -1.384055,0.15683 z m -11.220856,-1.93096 c -0.342935,-0.34293 -0.374821,-0.97153 -0.04928,-0.97153 0.128887,0 0.529957,0.15336 0.891267,0.34081 l 0.656927,0.34082 -0.607645,0.28676 c -0.432289,0.20401 -0.689493,0.20492 -0.891267,0.003 z m 8.231323,-0.0635 c -0.458658,-0.51941 -0.296472,-1.27532 0.2982,-1.38984 0.667148,-0.12849 1.241022,0.43016 1.241022,1.20808 0,0.55796 -0.0621,0.60992 -0.396875,0.33208 -0.274204,-0.22757 -0.396875,-0.23758 -0.396875,-0.0324 0,0.40755 -0.32717,0.35579 -0.745472,-0.11792 z m -28.821715,-1.11258 c -0.756514,-0.65949 -0.761361,-1.27779 -0.01155,-1.47387 0.755234,-0.1975 0.790037,-0.14633 0.690567,1.01534 l -0.0837,0.97749 z m 14.865295,-0.13854 c -0.210639,-0.45894 -0.196711,-0.6944 0.05498,-0.92951 0.44111,-0.41206 0.578542,-0.39814 1.086811,0.11013 0.315048,0.31505 0.354165,0.53754 0.15118,0.8599 -0.416576,0.66156 -0.978823,0.64394 -1.29297,-0.0405 z m 18.670642,0.39585 c 0,-0.1165 0.148828,-0.53229 0.330729,-0.92397 0.387628,-0.83466 0.992187,-0.94867 0.992187,-0.18711 0,0.29104 0.119063,0.52917 0.264584,0.52917 0.145521,0 0.264586,0.17859 0.264586,0.39687 0,0.27719 -0.279285,0.39688 -0.926045,0.39688 -0.509322,0 -0.926041,-0.0953 -0.926041,-0.21184 z m 3.704166,-0.18504 c 0.42906,-0.51699 2.35323,-0.51792 3.34319,-0.002 0.72777,0.37956 0.66992,0.39531 -1.45736,0.39688 -1.93918,0.001 -2.17416,-0.0478 -1.88583,-0.39525 z m -15.623889,-0.4052 c -0.298224,-0.18431 -0.280315,-0.31461 0.101178,-0.73615 0.254946,-0.28171 0.428806,-0.65725 0.386354,-0.83453 -0.07677,-0.32058 0.106727,-0.45953 1.386864,-1.0502 0.845573,-0.39016 2.303616,0.21092 1.780516,0.73402 -0.169229,0.16923 -0.470494,0.30769 -0.669477,0.30769 -0.241383,0 -0.305893,0.17611 -0.193837,0.52917 0.146526,0.46166 0.04755,0.52916 -0.77592,0.52916 -0.51913,0 -0.943872,0.10633 -0.943872,0.23628 0,0.36018 -0.664145,0.53651 -1.071806,0.28456 z m -12.421943,-1.31459 c 0,-0.14552 0.119062,-0.26458 0.264583,-0.26458 0.145521,0 0.264583,-0.17859 0.264583,-0.39688 0,-0.24694 0.249885,-0.39687 0.661459,-0.39687 0.529166,0 0.661458,0.13229 0.661458,0.66146 0,0.57956 -0.114653,0.66146 -0.926042,0.66146 -0.509322,0 -0.926041,-0.11907 -0.926041,-0.26459 z m 21.563541,0 c 0.08994,-0.14552 0.39462,-0.26458 0.677073,-0.26458 0.282454,0 0.514481,-0.14883 0.515616,-0.33073 0.0033,-0.53353 1.10121,-0.90354 1.783873,-0.6012 0.789081,0.34948 0.74874,0.72647 -0.120958,1.13037 -0.858176,0.39855 -3.093034,0.45031 -2.855604,0.0661 z m -14.419791,-0.81852 c 0,-0.33142 0.212565,-0.60952 0.529166,-0.69231 0.291042,-0.0761 0.529167,-0.24356 0.529167,-0.37211 0,-0.12855 0.297656,-0.23372 0.661458,-0.23372 0.529167,0 0.661459,0.13229 0.661459,0.66145 0,0.41158 -0.149931,0.66146 -0.396875,0.66146 -0.218282,0 -0.396875,0.11907 -0.396875,0.26459 0,0.14552 -0.357188,0.26458 -0.79375,0.26458 -0.629193,0 -0.79375,-0.11484 -0.79375,-0.55394 z m -12.170833,-1.28253 c 0,-1.08261 0.46504,-1.25834 1.250757,-0.47262 0.785717,0.78572 0.609993,1.25076 -0.472622,1.25076 -0.684736,0 -0.778135,-0.0934 -0.778135,-0.77814 z m 8.420545,0.16577 c 0.316408,-0.3368 0.575288,-0.93211 0.575288,-1.32292 0,-0.80255 0.132195,-0.84697 1.130275,-0.37982 0.703233,0.32915 1.194584,1.49961 0.858089,2.04407 -0.09213,0.14907 -0.836082,0.27104 -1.653225,0.27104 h -1.485714 z m 6.396121,-1.37201 c 0,-0.63133 0.0716,-0.66146 1.571885,-0.66146 0.864537,0 1.64547,-0.11906 1.735406,-0.26458 0.08994,-0.14552 0.349668,-0.26458 0.577179,-0.26458 0.337696,0 0.353172,0.0729 0.08428,0.39687 -0.181158,0.21828 -0.731517,0.39688 -1.223022,0.39688 -0.491505,0 -0.893645,0.11906 -0.893645,0.26458 0,0.14552 -0.238125,0.26458 -0.529167,0.26458 -0.291041,0 -0.529166,0.11907 -0.529166,0.26459 0,0.14552 -0.178594,0.26458 -0.396875,0.26458 -0.246945,0 -0.396875,-0.24988 -0.396875,-0.66146 z m 16.933329,0.2802 c 0,-0.22687 0.11907,-0.41249 0.26459,-0.41249 0.14552,0 0.26458,0.11204 0.26458,0.24897 0,0.13693 -0.11906,0.32255 -0.26458,0.41249 -0.14552,0.0899 -0.26459,-0.0221 -0.26459,-0.24897 z m 4.89479,0.11668 c -0.0899,-0.14552 -0.52218,-0.26459 -0.96055,-0.26459 -0.85314,0 -1.74852,-0.64167 -1.29043,-0.92478 0.14663,-0.0906 0.26661,-0.45541 0.26661,-0.81062 0,-0.51251 0.13656,-0.64585 0.66146,-0.64585 0.51751,0 0.66145,0.13503 0.66145,0.62045 0,0.64004 0.73109,1.49622 1.27761,1.49622 0.17044,0 0.30989,0.17859 0.30989,0.39687 0,0.44487 -0.6734,0.54107 -0.92604,0.1323 z m -15.037147,-0.44098 c -0.361081,-0.36108 -0.15808,-0.65147 0.398199,-0.56961 0.727102,0.10699 0.971492,0.746 0.285308,0.746 -0.278915,0 -0.586493,-0.0794 -0.683507,-0.17639 z m 4.850694,-1.01423 c 0,-0.70465 0.480382,-0.86899 1.005417,-0.34396 0.525035,0.52503 0.360693,1.00542 -0.343958,1.00542 -0.529167,0 -0.661459,-0.1323 -0.661459,-0.66146 z m -4.497916,-1.4396 c 0,-0.63728 0.479716,-0.96464 0.858507,-0.58585 0.201254,0.20125 0.185205,0.40135 -0.05545,0.69132 -0.462419,0.55718 -0.803056,0.51244 -0.803056,-0.10547 z m -14.935729,-0.52608 c 0.138245,-0.13523 0.578776,-0.32673 0.978958,-0.42556 0.566649,-0.13995 0.727604,-0.0856 0.727604,0.24586 0,0.31434 -0.255836,0.42556 -0.978958,0.42556 -0.606881,0 -0.883425,-0.0935 -0.727604,-0.24586 z m 21.814895,-1.62513 c 0,-0.15591 0.16677,-0.45025 0.3706,-0.65408 0.317744,-0.31774 0.41909,-0.31217 0.710591,0.0391 0.278997,0.33617 0.271844,0.45278 -0.03987,0.65003 -0.517104,0.32721 -1.04132,0.30958 -1.04132,-0.035 z m 7.584723,0.1071 c -0.097,-0.097 -0.17639,-0.51794 -0.17639,-0.93538 v -0.75898 l 0.62692,0.60464 c 0.4432,0.42745 0.55002,0.70157 0.36448,0.93538 -0.29281,0.36899 -0.55139,0.41796 -0.81501,0.15434 z m -6.658681,44.62639 c 0.08994,-0.14553 0.03743,-0.26459 -0.116677,-0.26459 -0.154109,0 -0.280198,0.11906 -0.280198,0.26459 0,0.14552 0.0525,0.26458 0.116677,0.26458 0.06417,0 0.190261,-0.11906 0.280198,-0.26458 z m 8.863541,-0.52917 c 0,-0.14552 -0.23813,-0.26458 -0.52917,-0.26458 -0.29104,0 -0.52917,0.11906 -0.52917,0.26458 0,0.14552 0.23813,0.26458 0.52917,0.26458 0.29104,0 0.52917,-0.11906 0.52917,-0.26458 z m 0.37613,-1.09702 c 0.78749,-0.35881 0.65133,-0.75506 -0.25946,-0.75506 -0.46945,0 -0.64584,0.14452 -0.64584,0.52916 0,0.6178 0.0292,0.62508 0.9053,0.2259 z m 2.53428,0.18659 c 0,-0.0642 -0.11906,-0.19026 -0.26458,-0.2802 -0.14552,-0.0899 -0.26458,-0.0374 -0.26458,0.11668 0,0.15411 0.11906,0.2802 0.26458,0.2802 0.14552,0 0.26458,-0.0525 0.26458,-0.11668 z m -27.252076,-1.35414 c 0,-0.2097 0.178594,-0.38126 0.396875,-0.38126 0.589868,0 0.480307,-0.36709 -0.198437,-0.66487 -0.49686,-0.21798 -0.648957,-0.15975 -0.919679,0.35212 -0.256099,0.48421 -0.256099,0.68719 0,0.96441 0.376447,0.40751 0.721241,0.27824 0.721241,-0.2704 z m 26.621486,-0.38126 c 0.32258,0 0.64039,-0.14883 0.70627,-0.33073 0.0957,-0.26422 0.23315,-0.26377 0.68351,0.002 0.52412,0.30957 0.56373,0.27704 0.56373,-0.46302 0,-0.78721 -0.5669,-1.11252 -0.92604,-0.53141 -0.38883,0.62913 -0.92604,0.24541 -0.92604,-0.66146 0,-0.74965 -0.1008,-0.92604 -0.52917,-0.92604 -0.4121,0 -0.52917,0.17639 -0.52917,0.79734 0,0.43854 -0.13785,1.01808 -0.30634,1.28787 -0.39293,0.62919 -0.0829,1.58484 0.36794,1.13403 0.16985,-0.16985 0.57274,-0.30882 0.89531,-0.30882 z m -32.177736,-1.35532 c 0,-0.31897 -0.724546,-0.29363 -0.926041,0.0324 -0.285977,0.46272 0.138098,0.85372 0.552722,0.50962 0.205325,-0.17041 0.373319,-0.41432 0.373319,-0.54202 z m 35.189576,0.0324 c 0,-0.14552 -0.11906,-0.26458 -0.26458,-0.26458 -0.14552,0 -0.26458,0.11906 -0.26458,0.26458 0,0.14552 0.11906,0.26458 0.26458,0.26458 0.14552,0 0.26458,-0.11906 0.26458,-0.26458 z m 1.54391,-2.55158 c -0.13129,-0.69169 -1.54391,-0.85141 -1.54391,-0.17457 0,0.52424 1.04998,1.15745 1.41388,0.85267 0.12279,-0.10284 0.1813,-0.40799 0.13003,-0.6781 z m -40.239215,-7.68969 c 0.181901,-0.39168 0.330729,-0.80429 0.330729,-0.91692 0,-0.11263 -0.708443,-0.17819 -1.574318,-0.14569 l -1.574319,0.0591 0.832471,0.85989 c 1.011623,1.04495 1.548803,1.08381 1.985437,0.14363 z m -0.03784,-2.0835 c -0.08833,-0.23018 -0.160599,-0.52486 -0.160599,-0.65484 0,-0.12998 -0.528561,-0.47712 -1.17458,-0.77141 -0.646018,-0.2943 -1.248358,-0.65446 -1.338531,-0.80037 -0.233249,-0.3774 -0.992128,-0.32995 -0.864133,0.054 0.05854,0.17562 0.455415,0.51187 0.881945,0.74721 0.502255,0.27713 0.805006,0.67737 0.859227,1.1359 0.07314,0.61853 0.202094,0.708 1.020495,0.708 0.745514,0 0.903986,-0.0855 0.776176,-0.41852 z"
       id="path7" /></g></svg>
