<?xml version="1.0" encoding="UTF-8" standalone="no"?>
<!-- Created with Inkscape (http://www.inkscape.org/) -->

<svg
   width="171.35982mm"
   height="89.444557mm"
   viewBox="0 0 171.35982 89.444557"
   version="1.1"
   id="svg1"
   xml:space="preserve"
   xmlns="http://www.w3.org/2000/svg"
   xmlns:svg="http://www.w3.org/2000/svg"><defs
     id="defs1" /><g
     id="layer1"
     transform="translate(-23.125073,-57.832889)"><path
       style="fill:#000000"
       d="m 126.97004,147.01313 c -0.0899,-0.14552 -0.39624,-0.26458 -0.68067,-0.26458 -0.62523,0 -1.45578,-0.45517 -2.29329,-1.25678 -0.34208,-0.32742 -0.84766,-0.59531 -1.1235,-0.59531 -0.27584,0 -0.57511,-0.11906 -0.66504,-0.26458 -0.0899,-0.14552 -0.4571,-0.26458 -0.81592,-0.26458 -0.47194,0 -0.72468,-0.20125 -0.91377,-0.72761 -0.14376,-0.40018 -0.498,-1.18534 -0.7872,-1.74479 -0.2892,-0.55946 -0.52582,-1.24407 -0.52582,-1.52136 0,-0.27729 -0.11906,-0.50416 -0.26459,-0.50416 -0.14552,0 -0.26458,-0.29063 -0.26458,-0.64584 0,-0.35522 -0.11906,-0.71943 -0.26458,-0.80937 -0.16597,-0.10257 -0.26459,-2.86386 -0.26459,-7.40833 0,-4.2483 -0.10311,-7.30854 -0.24929,-7.39889 -0.13711,-0.0847 -0.32945,-0.68854 -0.42741,-1.34178 -0.098,-0.65324 -0.28343,-1.25281 -0.41216,-1.33237 -0.12873,-0.0796 -0.23405,-0.50657 -0.23405,-0.94892 0,-0.55248 -0.2485,-1.03641 -0.79375,-1.54575 -0.43656,-0.40781 -0.79375,-0.97678 -0.79375,-1.26438 0,-0.2876 -0.1786,-0.67113 -0.39688,-0.85229 -0.21828,-0.18115 -0.39687,-0.65369 -0.39687,-1.05008 0,-0.81562 -0.61052,-2.17263 -1.19612,-2.65864 -0.21526,-0.17865 -0.39138,-0.48883 -0.39138,-0.6893 0,-0.20046 -0.11906,-0.36448 -0.26459,-0.36448 -0.14552,0 -0.26458,-0.21184 -0.26458,-0.47075 0,-0.25892 -0.24973,-0.64587 -0.55497,-0.8599 -0.30523,-0.21402 -0.65947,-0.65703 -0.7872,-0.98445 -0.12773,-0.32742 -0.38749,-0.59531 -0.57725,-0.59531 -0.18975,0 -0.51664,-0.23813 -0.72641,-0.52917 -0.20977,-0.29104 -0.51144,-0.52916 -0.67037,-0.52916 -0.15893,0 -0.63866,-0.36676 -1.06607,-0.81502 -0.42741,-0.44826 -1.26365,-1.03768 -1.85832,-1.30982 -0.59466,-0.27214 -1.23432,-0.67929 -1.42146,-0.90478 -0.2163,-0.26063 -0.78003,-0.40997 -1.54756,-0.40997 -0.84285,0 -1.37723,-0.15962 -1.77014,-0.52873 -0.47575,-0.44694 -1.0719,-0.55486 -3.853514,-0.69759 -1.809884,-0.0929 -3.439526,-0.28623 -3.621427,-0.4297 -0.224158,-0.1768 -0.471683,-0.14384 -0.768162,0.10227 -0.302038,0.25073 -1.428093,0.39112 -3.638021,0.45356 -1.760323,0.0497 -3.313697,0.19857 -3.451942,0.33073 -0.138245,0.13216 -0.577702,0.2403 -0.976573,0.2403 -0.39887,0 -0.798803,0.11906 -0.88874,0.26458 -0.08994,0.14552 -0.566186,0.26458 -1.058333,0.26458 -0.492146,0 -0.976252,0.13178 -1.075791,0.29283 -0.126475,0.20464 -0.256769,0.18472 -0.432633,-0.0661 -0.195652,-0.2791 -0.281517,-0.28538 -0.385851,-0.0283 -0.07381,0.1819 -0.403478,0.33073 -0.7326,0.33073 -0.329121,0 -0.813903,0.23812 -1.077292,0.52917 -0.263389,0.29104 -0.61374,0.52916 -0.778557,0.52916 -0.376707,0 -2.793318,2.43308 -2.793318,2.81235 0,0.15435 -0.238125,0.49614 -0.529166,0.75953 -0.291042,0.26339 -0.529167,0.70651 -0.529167,0.98471 0,0.2782 -0.415686,0.94436 -0.923747,1.48034 -0.50806,0.53599 -0.924779,1.12336 -0.926041,1.30526 -0.0013,0.1819 -0.121358,0.33073 -0.266879,0.33073 -0.145521,0 -0.264583,0.23812 -0.264583,0.52916 0,0.29105 -0.119063,0.52917 -0.264583,0.52917 -0.145521,0 -0.264584,0.29063 -0.264584,0.64584 0,0.35522 -0.119062,0.71943 -0.264583,0.80937 -0.145521,0.0899 -0.264583,0.69228 -0.264583,1.33853 0,0.64626 -0.09,1.17501 -0.199996,1.17501 -0.415627,0 -0.83212,1.53359 -1.005979,3.70417 -0.139876,1.74631 -0.304004,2.38451 -0.734353,2.85547 -0.464807,0.50867 -0.502032,0.69008 -0.230744,1.12448 0.194074,0.31076 0.216734,0.51796 0.05665,0.51796 -0.146754,0 -0.266825,0.23813 -0.266825,0.52917 0,0.29104 -0.0893,0.5301 -0.198438,0.53123 -0.396747,0.004 -0.859896,1.4565 -0.859896,2.69652 0,0.69859 -0.0893,1.2711 -0.198437,1.27223 -0.261256,0.003 -0.859896,1.30483 -0.859896,1.87037 0,0.24421 -0.154123,0.57193 -0.342495,0.72827 -0.188372,0.15633 -0.508251,0.70669 -0.710842,1.22302 -0.202591,0.51633 -0.527665,0.93878 -0.722387,0.93878 -0.194722,0 -0.462795,0.28604 -0.595718,0.63566 -0.132922,0.34961 -0.725288,1.08311 -1.316368,1.63 -0.591079,0.54688 -1.076794,1.12404 -1.079365,1.28257 -0.0053,0.32653 -2.301899,1.47885 -2.947394,1.47885 -0.232496,0 -0.570941,0.17859 -0.752098,0.39687 -0.21518,0.25928 -0.804385,0.39688 -1.69944,0.39688 -1.323551,0 -2.792165,0.4516 -2.796412,0.85989 -0.0011,0.10915 -0.411757,0.19844 -0.912491,0.19844 -0.500735,0 -0.984012,0.11906 -1.073949,0.26459 -0.08994,0.14552 -0.506655,0.26458 -0.926041,0.26458 -0.419386,0 -0.836105,-0.11906 -0.926042,-0.26458 -0.08994,-0.14553 -0.692276,-0.26459 -1.338532,-0.26459 -0.646255,0 -1.17501,-0.11906 -1.17501,-0.26458 0,-0.14552 -0.528754,-0.26458 -1.17501,-0.26458 -0.646255,0 -1.248595,-0.11907 -1.338531,-0.26459 -0.08994,-0.14552 -0.424386,-0.26837 -0.74322,-0.273 -0.66931,-0.01 -1.505739,-0.57239 -1.505739,-1.01294 0,-0.16586 -0.23974,-0.30156 -0.532757,-0.30156 -0.293016,0 -0.799031,-0.14883 -1.124479,-0.33073 -0.886806,-0.49566 -2.311514,-1.84775 -2.311514,-2.1937 0,-0.16719 -0.238125,-0.51947 -0.529167,-0.78286 -0.291041,-0.26339 -0.529166,-0.63903 -0.529166,-0.83476 0,-0.19572 -0.156371,-0.35586 -0.347492,-0.35586 -0.19112,0 -0.510999,-0.41672 -0.710842,-0.92605 -0.199842,-0.50932 -0.46019,-0.92604 -0.57855,-0.92604 -0.11836,0 -0.2152,-0.64781 -0.2152,-1.43959 0,-0.79178 -0.119062,-1.51318 -0.264583,-1.60312 -0.145521,-0.0899 -0.264583,-0.62571 -0.264583,-1.19062 0,-0.56491 -0.119063,-1.10069 -0.264584,-1.19062 -0.14552,-0.0899 -0.264583,-0.69228 -0.264583,-1.33854 0,-0.7375 -0.118218,-1.17501 -0.3175,-1.17501 -0.246944,0 -0.246944,-0.0705 0,-0.3175 0.205607,-0.2056 0.3175,-1.27241 0.3175,-3.02709 0,-1.52099 0.116063,-2.78132 0.264583,-2.87311 0.145521,-0.0899 0.264584,-0.69228 0.264584,-1.33854 0,-0.64625 0.119062,-1.17501 0.264583,-1.17501 0.145521,0 0.264583,-0.16014 0.264583,-0.35586 0,-0.19573 0.223784,-0.55839 0.497296,-0.80592 0.273513,-0.24752 0.569364,-0.90073 0.657448,-1.45158 0.08808,-0.55084 0.400081,-1.21866 0.693329,-1.48405 0.293247,-0.26538 0.533177,-0.59893 0.533177,-0.7412 0,-0.14228 0.210756,-0.45125 0.468347,-0.6866 1.033651,-0.94441 1.912903,-2.22027 1.912903,-2.77576 0,-0.33675 0.451678,-1.02852 1.058334,-1.6209 0.611625,-0.59724 1.058333,-1.28337 1.058333,-1.62558 0,-0.32568 0.115877,-0.66376 0.257503,-0.75129 0.141627,-0.0875 0.463915,-0.60058 0.716195,-1.1401 0.252281,-0.53952 0.791248,-1.29661 1.197705,-1.68241 0.406458,-0.38581 0.739014,-0.92754 0.739014,-1.20386 0,-0.27631 0.148828,-0.65162 0.330729,-0.83403 0.441195,-0.44241 0.414599,-6.978168 -0.029,-7.126038 -0.165953,-0.0553 -0.301732,-0.56852 -0.301732,-1.14045 0,-1.01685 -0.283129,-1.75232 -1.034844,-2.68816 -0.205361,-0.25567 -0.505733,-0.73192 -0.667491,-1.05834 -0.198649,-0.40086 -0.578977,-0.62097 -1.17179,-0.67817 -0.482726,-0.0466 -1.395892,-0.374 -2.029259,-0.72761 -1.555828,-0.86861 -3.957552,-0.92276 -4.174247,-0.0941 -0.07893,0.30184 -0.36071,0.6068 -0.626171,0.67768 -0.54446,0.14539 -1.673282,2.31548 -1.673282,3.21678 0,0.32505 -0.119062,0.82751 -0.264583,1.11657 -0.145521,0.28907 -0.383646,0.76209 -0.529167,1.05116 -0.34187,0.6791 -0.34187,2.30584 0,2.51713 0.369456,0.22833 0.331299,1.81182 -0.05292,2.19604 -0.246945,0.24694 -0.246945,0.3175 0,0.3175 0.34616,0 0.44703,1.63436 0.120993,1.960398 -0.108079,0.10807 -0.316438,0.69075 -0.463021,1.29482 -0.170705,0.70349 -0.479868,1.20406 -0.860005,1.39244 -0.326419,0.16176 -0.812044,0.4919 -1.079166,0.73364 -0.267122,0.24174 -0.72038,0.43953 -1.007239,0.43953 -0.286859,0 -0.664437,0.14288 -0.839062,0.3175 -0.246945,0.24695 -0.3175,0.24695 -0.3175,0 0,-0.17462 -0.279203,-0.3175 -0.620452,-0.3175 -0.341248,0 -0.835951,-0.23812 -1.09934,-0.52916 -0.263389,-0.29105 -0.758092,-0.52917 -1.099341,-0.52917 -0.350612,0 -0.620451,-0.15852 -0.620451,-0.36448 0,-0.20046 -0.178594,-0.5127 -0.396875,-0.69385 -0.218281,-0.18116 -0.396875,-0.55454 -0.396875,-0.82974 0,-0.2752 -0.119062,-0.73687 -0.264583,-1.02594 -0.145521,-0.289058 -0.383646,-0.762078 -0.529167,-1.051148 -0.145521,-0.28907 -0.264583,-0.75829 -0.264583,-1.04272 0,-0.28443 -0.119063,-0.59073 -0.264583,-0.68066 -0.361215,-0.22324 -0.340695,-4.97743 0.02305,-5.34118 0.207127,-0.20713 0.207127,-0.3374 0,-0.46541 -0.361153,-0.2232 -0.381632,-1.99862 -0.02305,-1.99862 0.149003,0 0.264583,-0.74445 0.264583,-1.70418 0,-0.93729 0.119062,-1.77776 0.264583,-1.86769 0.145521,-0.0899 0.264584,-0.74479 0.264584,-1.45521 0,-0.71043 0.119062,-1.36527 0.264583,-1.45521 0.145521,-0.0899 0.264583,-0.70165 0.264583,-1.35936 0,-1.41652 1.224675,-4.23998 1.918229,-4.42243 0.283201,-0.0745 0.463021,-0.37572 0.463021,-0.77563 0,-0.3596 0.178594,-0.80205 0.396875,-0.98321 0.218281,-0.18115 0.396875,-0.49339 0.396875,-0.69385 0,-0.20046 0.119063,-0.36448 0.264584,-0.36448 0.14552,0 0.264583,-0.16014 0.264583,-0.35587 0,-0.19572 0.238125,-0.57136 0.529167,-0.83475 0.291041,-0.26339 0.529166,-0.72066 0.529166,-1.01615 0,-0.29548 0.222971,-0.78305 0.495491,-1.08347 0.272519,-0.30042 0.609764,-0.9034 0.749431,-1.33997 0.18752,-0.58613 0.455848,-0.82853 1.025864,-0.92671 0.464199,-0.08 0.87604,-0.37002 1.0331,-0.72761 0.160021,-0.36433 0.493068,-0.59463 0.859896,-0.59463 0.329295,0 0.598718,-0.15784 0.598718,-0.35076 0,-0.65834 2.088478,-2.03471 4.034896,-2.6591 0.254662,-0.0817 0.463021,-0.33087 0.463021,-0.55372 0,-0.24866 0.239677,-0.40517 0.620451,-0.40517 0.341248,0 0.835952,-0.23813 1.099341,-0.52917 0.263389,-0.29104 0.63903,-0.52917 0.834757,-0.52917 0.195727,0 0.355868,-0.17859 0.355868,-0.39687 0,-0.27589 0.277547,-0.39688 0.910427,-0.39688 0.500734,0 0.984011,-0.11906 1.073948,-0.26458 0.08994,-0.14552 0.714368,-0.26458 1.387625,-0.26458 0.887854,0 1.390183,-0.15603 1.828712,-0.568 0.526932,-0.49503 0.662121,-0.52053 1.052267,-0.19844 0.347374,0.28677 0.472594,0.29547 0.558971,0.0388 0.06122,-0.1819 0.325907,-0.33073 0.588188,-0.33073 0.262281,0 0.817906,-0.17786 1.234722,-0.39524 0.461984,-0.24094 1.486132,-0.39588 2.623329,-0.39688 1.742543,-0.002 3.287089,-0.40575 3.29183,-0.86152 0.0011,-0.10914 1.602381,-0.19844 3.558325,-0.19844 2.195229,0 3.621881,-0.10618 3.727721,-0.27743 0.118591,-0.19188 0.279314,-0.18792 0.521227,0.0129 0.241912,0.20077 0.402636,0.20473 0.521226,0.0128 0.261624,-0.42331 7.734504,-0.37282 7.888823,0.0533 0.09582,0.26459 0.231801,0.26459 0.679917,0 0.668954,-0.39497 2.154826,-0.44058 2.154826,-0.0661 0,0.35255 1.773554,0.34111 1.992315,-0.0129 0.118727,-0.19211 0.278367,-0.18871 0.519052,0.011 0.255255,0.21184 0.380385,0.19769 0.471043,-0.0533 0.09948,-0.2754 0.232223,-0.27755 0.683598,-0.011 0.30808,0.1819 0.895135,0.33073 1.304568,0.33073 0.409433,0 0.873262,0.12884 1.03073,0.28631 0.205353,0.20535 0.442882,0.18852 0.840063,-0.0595 0.436968,-0.2729 0.622111,-0.27748 0.87786,-0.0217 0.178257,0.17826 0.709984,0.32411 1.181614,0.32411 0.471631,0 0.931095,0.11906 1.021032,0.26458 0.08994,0.14552 1.034885,0.26458 2.099885,0.26458 1.398433,0 2.027865,0.11026 2.26574,0.39688 0.183535,0.22114 0.760288,0.39687 1.302565,0.39687 0.993782,0 2.395819,0.50244 2.399537,0.8599 0.0011,0.10914 0.766049,0.19844 1.699808,0.19844 1.117927,0 1.738647,0.11295 1.817514,0.33073 0.09511,0.26263 0.233309,0.26375 0.671241,0.005 0.347358,-0.2049 0.610753,-0.22938 0.711642,-0.0661 0.08809,0.14254 0.741432,0.25916 1.45186,0.25916 0.710427,0 1.360117,0.11073 1.443767,0.24607 0.0836,0.13533 0.8348,0.33096 1.66926,0.43472 0.96601,0.12013 1.67263,0.36715 1.94509,0.67998 0.32664,0.37504 0.79809,0.49132 1.99211,0.49132 1.26068,0 1.63821,0.10268 1.9456,0.52916 0.20978,0.29104 0.63432,0.52917 0.94345,0.52917 0.30912,0 0.76314,0.22221 1.00892,0.49379 0.28253,0.31219 0.99046,0.55769 1.92488,0.66751 1.17195,0.13774 1.63036,0.33682 2.21382,0.96141 0.4047,0.43324 0.90789,0.78771 1.11819,0.78771 0.57111,0 1.90042,0.71781 2.44626,1.32095 0.29876,0.33013 0.81559,0.53113 1.3657,0.53113 0.48677,0 0.88503,0.11906 0.88503,0.26458 0,0.14552 0.4097,0.26459 0.91043,0.26459 0.50074,0 0.98401,0.11906 1.07395,0.26458 0.0899,0.14552 0.45415,0.26458 0.80936,0.26458 0.35522,0 0.64585,0.099 0.64585,0.21988 0,0.12093 0.3238,0.38882 0.71956,0.59531 0.96686,0.50446 1.66169,1.21462 1.66169,1.69835 0,0.21845 0.23429,0.39688 0.52112,0.39688 0.28661,0 0.94508,0.23812 1.46325,0.52916 0.51818,0.29105 1.28113,0.52917 1.69545,0.52917 0.41431,0 0.90152,0.1786 1.08268,0.39688 0.18116,0.21828 0.49339,0.39687 0.69385,0.39687 0.20047,0 0.36448,0.11906 0.36448,0.26458 0,0.14553 0.29063,0.26459 0.64584,0.26459 0.35522,0 0.71943,0.11906 0.80937,0.26458 0.0899,0.14552 0.44712,0.26458 0.79375,0.26458 0.34663,0 0.70381,0.11907 0.79375,0.26459 0.0899,0.14552 0.45415,0.26458 0.80936,0.26458 0.35522,0 0.64585,0.11906 0.64585,0.26458 0,0.14716 0.70849,0.26459 1.59632,0.26459 1.46866,0 1.66967,-0.0734 2.51354,-0.91722 1.0637,-1.0637 1.22014,-2.18722 0.38805,-2.78695 -0.29104,-0.20977 -0.52916,-0.59324 -0.52916,-0.85216 0,-0.25891 -0.11906,-0.47076 -0.26459,-0.47076 -0.14552,0 -0.26458,-0.15443 -0.26458,-0.34317 0,-0.18875 -0.47896,-0.81087 -1.06435,-1.3825 -1.69841,-1.65844 -2.90545,-4.52999 -2.11065,-5.0212 0.14552,-0.0899 0.26458,-0.42787 0.26458,-0.75096 0,-0.32308 0.23813,-0.75906 0.52917,-0.96883 0.29104,-0.20977 0.52917,-0.65277 0.52917,-0.98445 0,-0.42055 0.15541,-0.60305 0.51355,-0.60305 0.28245,0 0.58714,-0.11906 0.67707,-0.26458 0.094,-0.15209 1.48476,-0.26459 3.27101,-0.26459 h 3.10748 l 0.89755,0.92604 c 0.49366,0.50933 0.99868,0.92605 1.12227,0.92605 0.42727,0 1.52357,1.30071 1.52357,1.80766 0,0.27983 0.17859,0.65701 0.39687,0.83817 0.21828,0.18116 0.39688,0.47494 0.39688,0.65285 0,0.17791 0.23812,0.53897 0.52916,0.80236 0.29105,0.26339 0.52917,0.61827 0.52917,0.78863 0,0.37467 1.01133,1.31815 1.65762,1.54641 0.25684,0.0907 0.58132,0.46565 0.72105,0.83318 0.1791,0.47106 0.45118,0.66824 0.92207,0.66824 0.52178,0 0.66801,0.13398 0.66801,0.61207 0,0.45463 0.23968,0.70612 0.93176,0.97767 0.51246,0.20107 1.12623,0.58048 1.36392,0.84313 0.23769,0.26265 0.71137,0.47754 1.05262,0.47754 0.37512,0 0.62045,0.15693 0.62045,0.39688 0,0.21828 0.2311,0.39687 0.51355,0.39687 0.28246,0 0.58714,0.11906 0.67708,0.26458 0.0899,0.14553 0.9304,0.26459 1.86769,0.26459 0.95973,0 1.70418,0.11558 1.70418,0.26458 0,0.14552 0.62856,0.26458 1.3968,0.26458 1.09328,0 1.47968,0.11499 1.7782,0.52917 0.3213,0.44577 0.68493,0.52917 2.30737,0.52917 1.10759,0 1.92597,0.11242 1.92597,0.26458 0,0.14552 0.64781,0.26458 1.43959,0.26458 0.79178,0 1.50443,0.10492 1.58368,0.23314 0.0793,0.12823 1.01844,0.31508 2.08709,0.41522 1.47822,0.13852 2.03108,0.30427 2.31119,0.6929 0.2025,0.28096 0.6211,0.51083 0.93022,0.51083 0.30913,0 0.77754,0.23812 1.04093,0.52916 0.26339,0.29105 0.62058,0.52917 0.79375,0.52917 0.17318,0 0.53036,0.23813 0.79375,0.52917 0.29876,0.33012 0.81491,0.52916 1.37223,0.52916 0.55,0 0.95187,0.15253 1.04564,0.39688 0.0838,0.21828 0.3575,0.39687 0.60831,0.39687 1.24108,0 5.3082,2.94376 5.3082,3.84205 0,0.16076 0.35719,0.63449 0.79375,1.05275 0.43656,0.41825 0.79375,0.89832 0.79375,1.06682 0,0.1685 0.23901,0.52267 0.53113,0.78704 1.00156,0.90639 1.32095,1.95857 1.32095,4.35158 0,1.29458 0.12487,2.41255 0.28764,2.57532 0.20713,0.20712 0.20713,0.33739 0,0.4654 -0.1582,0.0978 -0.28764,0.87809 -0.28764,1.73404 0,0.85595 -0.1099,1.624198 -0.24422,1.707208 -0.13433,0.083 -0.31967,0.49442 -0.41188,0.91422 -0.0922,0.41981 -0.39902,0.97268 -0.68181,1.2286 -0.28279,0.25593 -0.51417,0.68661 -0.51417,0.95707 0,0.58557 -0.44146,1.40082 -1.25677,2.32089 -0.32742,0.3695 -0.59531,0.89254 -0.59531,1.16231 0,0.26977 -0.23813,0.55276 -0.52917,0.62887 -0.29104,0.0761 -0.52917,0.24356 -0.52917,0.37211 0,0.12855 -0.29063,0.23372 -0.64584,0.23372 -0.35522,0 -0.71943,0.11906 -0.80937,0.26459 -0.0899,0.14552 -0.37632,0.26458 -0.63642,0.26458 -0.548,0 -2.05957,0.71139 -2.28435,1.07509 -0.0842,0.1363 -1.13436,0.24783 -2.33359,0.24783 -1.38098,0 -2.30896,0.12126 -2.531,0.33072 -0.28046,0.26459 -0.37483,0.26459 -0.47184,0 -0.075,-0.20464 -0.64243,-0.33393 -1.48828,-0.33914 -0.78006,-0.005 -1.58754,-0.17521 -1.88061,-0.39687 -0.28247,-0.21366 -0.70267,-0.38846 -0.93378,-0.38846 -0.2311,0 -0.59181,-0.23813 -0.80158,-0.52917 -0.20978,-0.29104 -0.64575,-0.52917 -0.96884,-0.52917 -0.32309,0 -0.66102,-0.11906 -0.75096,-0.26458 -0.0899,-0.14552 -0.43569,-0.26458 -0.76835,-0.26458 -0.33266,0 -0.82034,-0.23813 -1.08373,-0.52917 -0.26339,-0.29104 -0.64277,-0.52917 -0.84306,-0.52917 -0.2003,0 -0.43271,-0.17859 -0.51647,-0.39687 -0.0838,-0.21828 -0.32991,-0.39688 -0.547,-0.39688 -0.21709,0 -0.72837,-0.35719 -1.13618,-0.79375 -0.40781,-0.43656 -0.91354,-0.79375 -1.12383,-0.79375 -0.64087,0 -1.8902,-0.72907 -2.70287,-1.57732 -0.42362,-0.44216 -0.99783,-0.80393 -1.27602,-0.80393 -0.27819,0 -0.82146,-0.33719 -1.20727,-0.7493 -0.95615,-1.021358 -3.06705,-2.161108 -4.00253,-2.161108 -0.42281,0 -0.84591,-0.12485 -0.94021,-0.27744 -0.11873,-0.1921 -0.27837,-0.1887 -0.51905,0.0111 -0.25499,0.21162 -0.38969,0.19742 -0.50561,-0.0533 -0.12486,-0.27004 -0.19042,-0.27235 -0.31237,-0.011 -0.0849,0.1819 -0.33965,0.33073 -0.56614,0.33073 -1.02785,0 -1.61224,2.480428 -0.66858,2.837768 0.6621,0.25071 1.12448,0.76239 1.12448,1.24437 0,0.25879 0.23233,0.41577 0.61534,0.41577 0.59894,0 1.76591,0.97395 1.76591,1.47382 0,0.137 0.38695,0.41364 0.8599,0.61475 0.47294,0.20111 1.24685,0.72978 1.71979,1.17482 0.77316,0.72755 0.8599,0.95992 0.8599,2.30376 0,1.69927 -0.24799,2.03207 -2.28121,3.06142 -0.83322,0.42183 -1.69932,0.63185 -2.60568,0.63185 -1.31313,0 -2.77973,-0.453 -2.78397,-0.8599 -10e-4,-0.10914 -0.24019,-0.19844 -0.53123,-0.19844 -0.29104,0 -0.52917,-0.11906 -0.52917,-0.26458 0,-0.14552 -0.17859,-0.26458 -0.39687,-0.26458 -0.21828,0 -0.39688,-0.18233 -0.39688,-0.40518 0,-0.22285 -0.20835,-0.47872 -0.46302,-0.56859 -0.67268,-0.23741 -1.65364,-1.17818 -1.65364,-1.58589 0,-0.19292 -0.15784,-0.35076 -0.35076,-0.35076 -0.47193,0 -1.34307,-0.99636 -1.79281,-2.05052 -0.20177,-0.47294 -0.45686,-0.85989 -0.56685,-0.85989 -0.11,0 -0.2,-0.23813 -0.2,-0.52917 0,-0.35278 -0.17639,-0.52917 -0.52917,-0.52917 -0.29104,0 -0.52916,-0.1744 -0.52916,-0.38756 0,-0.21317 -0.26789,-0.53062 -0.59531,-0.70547 -0.32743,-0.17484 -0.91098,-0.65528 -1.29678,-1.06764 -0.38581,-0.41236 -0.81841,-0.74974 -0.96133,-0.74974 -0.14293,0 -0.32214,-0.23813 -0.39824,-0.52917 -0.11236,-0.42963 -0.3609,-0.52917 -1.32138,-0.52917 -0.72878,0 -1.30947,-0.15238 -1.51238,-0.396868 -0.20939,-0.2523 -0.79381,-0.39688 -1.60428,-0.39688 -0.7012,0 -1.34849,-0.11906 -1.43843,-0.26458 -0.0899,-0.14552 -1.21813,-0.26458 -2.50711,-0.26458 -1.35881,0 -2.38141,-0.11348 -2.4336,-0.27005 -0.0999,-0.29963 -1.53598,0.26079 -1.53951,0.60078 -0.001,0.10914 -0.15991,0.19843 -0.35282,0.19843 -0.19292,0 -0.63039,0.29766 -0.97217,0.661458 -0.34177,0.3638 -0.77052,0.66146 -0.95278,0.66146 -0.18226,0 -0.51936,0.37683 -0.74913,0.8374 -0.38288,0.76751 -0.38144,0.87754 0.0173,1.31815 0.42445,0.46901 1.10468,1.65593 2.17639,3.79757 0.54651,1.09211 1.18283,1.75813 1.96733,2.05917 0.25645,0.0984 0.4513,0.45477 0.4513,0.82537 0,0.51431 0.15341,0.66989 0.72565,0.73591 0.48668,0.0562 0.84137,0.32626 1.07703,0.82021 0.20546,0.43065 0.78311,0.92353 1.39102,1.18689 0.5718,0.24773 1.03963,0.57413 1.03963,0.72534 0,0.15122 0.89297,1.16195 1.98438,2.24607 1.09141,1.08412 1.98437,2.10219 1.98437,2.26236 0,0.16018 0.29766,0.57087 0.66146,0.91264 0.36381,0.34178 0.66146,0.76079 0.66146,0.93116 0,0.17036 0.23813,0.52524 0.52917,0.78863 0.29104,0.26339 0.52916,0.80305 0.52916,1.19924 0,0.39619 0.17586,0.86629 0.3908,1.04468 0.61549,0.5108 1.6923,2.93046 1.88619,4.23837 0.0971,0.65485 0.26719,1.30969 0.37804,1.45521 0.31642,0.41543 0.27438,4.85183 -0.0479,5.05098 -0.19533,0.12073 -0.18688,0.23358 0.0274,0.36602 0.22366,0.13823 0.1569,0.44175 -0.24004,1.09141 -0.30243,0.49496 -0.62162,1.10828 -0.70931,1.36295 -0.0877,0.25466 -0.26462,0.46302 -0.39317,0.46302 -0.12855,0 -0.23372,0.2792 -0.23372,0.62045 0,0.34125 -0.23813,0.83595 -0.52917,1.09934 -0.31492,0.285 -0.52917,0.81491 -0.52917,1.30883 0,0.63414 -0.2809,1.10563 -1.19062,1.99846 -0.65484,0.64268 -1.19063,1.27129 -1.19063,1.3969 0,0.51118 -2.51801,2.04268 -3.35845,2.04268 -0.41057,0 -1.57448,0.46862 -3.34728,1.34769 -0.6782,0.3363 -1.57679,0.5044 -2.69636,0.5044 -0.92355,0 -1.75276,0.11906 -1.8427,0.26458 -0.0899,0.14552 -0.38759,0.26458 -0.66146,0.26458 -0.27386,0 -0.57152,-0.11906 -0.66145,-0.26458 z m 2.45486,-2.59717 c 0.0629,-0.19151 -0.13624,-0.41376 -0.44261,-0.49388 -0.30638,-0.0801 -0.55705,-0.25084 -0.55705,-0.37939 0,-0.12855 -0.11906,-0.23373 -0.26458,-0.23373 -0.14552,0 -0.26458,0.3651 -0.26458,0.81133 0,0.72389 0.0762,0.8023 0.7072,0.7276 0.38896,-0.046 0.75869,-0.24041 0.82162,-0.43193 z m 4.82118,-0.25051 c 0,-0.11101 0.26789,-0.31937 0.59531,-0.46302 0.51843,-0.22745 0.58369,-0.42349 0.50534,-1.51795 -0.10375,-1.44916 0.1628,-1.57866 1.22401,-0.59465 0.81231,0.75322 1.12306,0.73353 1.54114,-0.0976 0.16166,-0.32138 0.54861,-0.85544 0.8599,-1.18678 0.31128,-0.33135 0.56596,-0.85274 0.56596,-1.15866 0,-0.30592 0.13529,-0.6013 0.30063,-0.65642 0.21704,-0.0724 0.20543,-0.25265 -0.0418,-0.64846 -0.52847,-0.84621 -0.15841,-1.41209 0.92345,-1.41209 0.81339,0 0.93434,-0.0833 0.93434,-0.64375 0,-0.59235 -0.0857,-0.6359 -1.07388,-0.54546 -1.06075,0.0971 -1.07288,0.0882 -0.99219,-0.72574 0.0588,-0.59341 0.30385,-0.94926 0.87545,-1.27142 0.43656,-0.24606 0.88304,-0.39667 0.99218,-0.33468 0.10914,0.062 0.32329,0.0355 0.47587,-0.0588 0.40291,-0.24901 -0.22075,-0.9181 -0.85576,-0.9181 -0.41998,0 -0.49843,-0.15664 -0.43062,-0.8599 0.0726,-0.75341 0.18798,-0.87005 0.93136,-0.94195 l 0.84846,-0.082 -0.15483,-1.77003 c -0.0851,-0.97352 -0.25859,-1.88314 -0.38543,-2.02138 -0.12683,-0.13825 -0.23061,-0.56246 -0.23061,-0.94269 0,-0.41288 -0.30037,-0.9791 -0.74574,-1.4058 -0.41016,-0.39295 -0.90863,-1.1296 -1.10772,-1.637 -0.34059,-0.86804 -0.79237,-1.24318 -0.79237,-0.65795 0,0.57868 -0.68541,0.21752 -1.01948,-0.5372 -0.27641,-0.62445 -0.285,-0.886 -0.0389,-1.18259 0.38217,-0.46048 -0.18195,-1.98438 -0.73457,-1.98438 -0.18744,0 -0.44996,-0.26789 -0.58336,-0.59531 l -0.24255,-0.59531 -0.17666,0.59531 c -0.22937,0.77294 -0.4665,0.75677 -1.94537,-0.13269 -0.0609,-0.0366 0.0488,-0.36445 0.24366,-0.72856 0.31602,-0.5905 0.29225,-0.72807 -0.22009,-1.27342 -0.31591,-0.33628 -0.57532,-0.7228 -0.57645,-0.85894 -0.003,-0.36159 -1.29194,-0.90524 -1.46858,-0.61943 -0.0814,0.13178 -0.022,0.2396 0.13211,0.2396 0.15411,0 0.2802,0.23813 0.2802,0.52917 0,0.6255 -0.89719,0.72811 -1.45848,0.16682 -0.30674,-0.30674 -0.24169,-0.47795 0.42391,-1.11563 0.75145,-0.71993 0.76247,-0.76208 0.24895,-0.95204 -0.29551,-0.10932 -0.5373,-0.38119 -0.5373,-0.60416 0,-0.2571 -0.24437,-0.40541 -0.66801,-0.40541 -0.47089,0 -0.74297,-0.19717 -0.92207,-0.66823 -0.13973,-0.36753 -0.46421,-0.74246 -0.72105,-0.83318 -0.65275,-0.23054 -1.65762,-1.17322 -1.65762,-1.55502 0,-0.17509 -0.17171,-0.46086 -0.38158,-0.63504 -0.20987,-0.17417 -0.41823,-0.69477 -0.46302,-1.15687 -0.0626,-0.64579 -0.22255,-0.8602 -0.69132,-0.92665 -0.33543,-0.0476 -0.78191,0.0563 -0.99218,0.23083 -0.51635,0.42853 -1.17607,-0.1159 -1.17607,-0.97052 0,-0.51435 0.13671,-0.62906 0.74966,-0.62906 1.04885,0 1.13656,-0.18773 0.56399,-1.20713 l -0.50093,-0.89187 0.77478,-1.47288 0.77479,-1.472878 -0.49867,-0.88784 -0.49867,-0.88784 0.77274,-0.74032 c 0.49532,-0.47455 0.77273,-1.00751 0.77273,-1.48458 0,-0.61747 0.11267,-0.74425 0.66146,-0.74425 0.61692,0 0.66146,0.0886 0.66146,1.3163 v 1.31631 l 0.85989,-0.16067 c 0.47295,-0.0884 0.97301,-0.26398 1.11125,-0.39026 0.13825,-0.12628 0.5252,-0.22959 0.8599,-0.22959 0.3347,0 0.60854,-0.11907 0.60854,-0.26459 0,-0.14552 0.30568,-0.26458 0.67929,-0.26458 0.55252,0 0.6488,-0.0961 0.51593,-0.51469 -0.1348,-0.42472 -0.003,-0.54475 0.75292,-0.68659 0.50395,-0.0945 1.16475,-0.093 1.46844,0.003 0.41557,0.1319 0.55217,0.0613 0.55217,-0.28557 0,-0.39522 0.0942,-0.37236 0.66146,0.16058 0.3638,0.34178 0.66146,0.77925 0.66146,0.97217 0,0.19291 0.23974,0.35075 0.53275,0.35075 0.29302,0 0.76386,0.14432 1.04631,0.32071 0.6913,0.43173 0.99513,0.0665 0.44779,-0.53836 -0.67659,-0.74762 -0.57366,-1.63443 0.18971,-1.63443 0.34598,0 0.77728,0.17859 0.95844,0.39687 0.22757,0.27421 0.23758,0.39688 0.0324,0.39688 -0.16333,0 -0.29698,0.23812 -0.29698,0.52916 0,0.35278 0.17639,0.52917 0.52917,0.52917 0.29104,0 0.52917,-0.11906 0.52917,-0.26458 0,-0.14552 0.29765,-0.26459 0.66146,-0.26459 0.47548,0 0.66145,0.14258 0.66145,0.50712 0,0.27892 -0.14048,0.55395 -0.31218,0.61118 -0.1874,0.0625 -0.23681,0.30048 -0.12362,0.59546 0.14372,0.37453 0.26202,0.41795 0.4974,0.18257 0.39437,-0.39438 1.5259,-0.40316 1.5259,-0.0119 0,0.1966 0.11179,0.21117 0.33073,0.0431 0.49099,-0.37689 1.61437,0.25483 1.1964,0.67279 -0.237,0.23701 -0.23525,0.31005 0.007,0.31005 0.17462,0 0.3175,0.23812 0.3175,0.52917 0,0.35277 0.17639,0.52916 0.52916,0.52916 0.29105,0 0.52917,0.11907 0.52917,0.26459 0,0.14552 0.1786,0.26458 0.39688,0.26458 0.24694,0 0.39687,0.249878 0.39687,0.661458 0,0.41157 -0.14993,0.66146 -0.39687,0.66146 -0.21828,0 -0.39688,0.0952 -0.39688,0.21166 0,0.50437 0.7167,0.84667 1.77271,0.84667 0.87627,0 1.13771,0.0993 1.13771,0.43224 0,0.41562 1.24488,1.68344 1.65364,1.6841 0.10914,1.8e-4 0.19844,0.83376 0.19844,1.85241 0,1.67569 0.0504,1.85208 0.52917,1.85208 0.29398,0 0.52916,-0.17639 0.52916,-0.39687 0,-0.5505 1.05126,-0.50363 1.48378,0.0661 0.43952,0.57901 0.46791,1.31177 0.0561,1.44903 -0.55508,0.18503 0.003,0.99837 0.68514,0.99837 0.35979,0 0.72774,0.11906 0.81767,0.26458 0.17741,0.28705 1.53079,0.3654 1.79242,0.10377 0.0884,-0.0885 0.0262,-0.37644 -0.13842,-0.63998 -0.22795,-0.36499 -0.2162,-0.57921 0.0493,-0.89911 0.31526,-0.37987 0.39248,-0.36929 0.80887,0.11081 0.5768,0.66505 0.79514,0.67154 0.79514,0.0236 0,-0.27891 0.14776,-0.55637 0.32836,-0.61657 0.2388,-0.0796 0.20787,-0.22996 -0.11339,-0.55122 -0.24297,-0.24296 -0.53389,-0.44175 -0.6465,-0.44175 -0.11261,0 -0.58765,-0.37114 -1.05566,-0.82475 -0.468,-0.4536 -1.12851,-0.96173 -1.4678,-1.12917 -0.33929,-0.16744 -0.73442,-0.57021 -0.87807,-0.89505 -0.15323,-0.34652 -0.49587,-0.59062 -0.82903,-0.59062 -0.34535,0 -0.62209,-0.20735 -0.70624,-0.52916 -0.0761,-0.29105 -0.32813,-0.52917 -0.56003,-0.52917 -0.26758,0 -0.42165,-0.22986 -0.42165,-0.62906 0,-0.34599 -0.17859,-0.77728 -0.39687,-0.95844 -0.21828,-0.18116 -0.39688,-0.67572 -0.39688,-1.09903 0,-0.489828 -0.16834,-0.833408 -0.46302,-0.944988 -0.7222,-0.27348 -1.12448,-0.77609 -1.12448,-1.40497 0,-0.42359 0.1141,-0.53259 0.43042,-0.41121 0.73644,0.2826 1.15708,-0.35214 1.15708,-1.74602 0,-1.2684 0.0219,-1.30555 0.72148,-1.22438 0.44021,0.0511 0.84195,0.3267 1.03051,0.70697 l 0.30903,0.62324 0.41812,-0.75554 c 0.22996,-0.41554 0.4945,-0.96389 0.58785,-1.21855 0.22711,-0.61954 0.43039,-0.58496 1.16635,0.19844 0.54498,0.5801 0.84326,0.66146 2.42513,0.66146 1.51717,0 1.85622,0.0841 2.13419,0.52916 0.18176,0.29104 0.59213,0.52917 0.91195,0.52917 0.46816,0 0.57177,0.13977 0.53166,0.71724 -0.0367,0.52866 0.0893,0.74453 0.47936,0.82106 0.29104,0.0571 0.74034,0.29113 0.99844,0.52005 0.35975,0.31909 0.54191,0.34359 0.78052,0.10498 0.40404,-0.40404 1.59801,-0.40031 2.00458,0.006 0.17463,0.17463 0.3175,0.53182 0.3175,0.79375 0,0.3679 -0.21068,0.47625 -0.92604,0.47625 -0.50932,0 -0.92604,0.11907 -0.92604,0.26459 0,0.362438 2.73306,0.3361 3.09903,-0.0299 0.48281,-0.48281 0.86972,-0.006 0.86972,1.071418 0,0.62802 0.16892,1.14772 0.44641,1.37344 0.39499,0.3213 0.42444,0.30461 0.25562,-0.14488 -0.21902,-0.58319 0.18765,-0.93705 1.08391,-0.94315 0.35457,-0.002 0.59531,0.15644 0.59531,0.39283 0,0.27457 0.27585,0.39687 0.89518,0.39687 0.67267,0 0.92958,0.13154 1.03356,0.52917 0.0935,0.35758 0.3609,0.52917 0.82461,0.52917 0.37743,0 0.68623,-0.11907 0.68623,-0.26459 0,-0.14552 0.26789,-0.26365 0.59531,-0.26252 0.534,0.002 1.25678,0.94398 1.25678,1.63819 0,0.45295 -1.77904,0.20192 -2.24896,-0.31733 -0.31551,-0.34864 -0.81491,-0.52917 -1.46382,-0.52917 -0.55272,0 -1.12947,-0.17416 -1.31431,-0.39688 -0.18116,-0.21828 -0.57137,-0.39687 -0.86715,-0.39687 -0.52102,0 -0.52286,0.0165 -0.0589,0.52917 0.26339,0.29104 0.63903,0.52916 0.83476,0.52916 0.19572,0 0.35587,0.11906 0.35587,0.26459 0,0.14552 0.21438,0.26458 0.47641,0.26458 0.73218,0 1.90046,0.62014 1.90277,1.01002 0.001,0.21615 0.18467,0.2906 0.4828,0.19597 0.3103,-0.0985 0.70187,0.0828 1.10446,0.51134 0.34304,0.36516 0.90062,0.66392 1.23905,0.66392 0.62962,0 0.82496,-0.36838 0.35076,-0.66146 -0.14553,-0.0899 -0.26459,-0.39462 -0.26459,-0.67707 0,-0.43906 0.18964,-0.51355 1.3073,-0.51355 0.71902,0 1.38089,-0.11907 1.47083,-0.26459 0.28915,-0.46785 1.11761,-0.283 1.75816,0.39231 0.3427,0.36128 0.77192,0.65894 0.95382,0.66145 0.1819,0.003 0.33943,0.27247 0.35006,0.59989 0.0246,0.75674 0.81074,2.11012 1.315,2.26379 0.30706,0.0936 0.31947,0.0474 0.061,-0.22682 -0.24205,-0.25686 -0.24872,-0.4355 -0.0263,-0.70355 0.22262,-0.26825 0.21198,-0.52032 -0.042,-0.9949 -0.28667,-0.53565 -0.27511,-0.7007 0.0735,-1.04931 0.54474,-0.54474 0.62355,-0.53027 1.41335,0.25953 0.78426,0.78427 0.67488,1.32187 -0.35977,1.76817 l -0.73438,0.31678 1.01814,0.0936 c 0.63969,0.0588 1.1806,-0.0514 1.45521,-0.29663 0.24038,-0.21465 0.73472,-0.43089 1.09852,-0.48054 0.90704,-0.12378 0.85661,-0.86156 -0.0661,-0.96774 -0.66854,-0.0769 -1.06991,-0.57773 -0.46302,-0.57773 0.14552,0 0.26458,-0.19212 0.26458,-0.42692 0,-0.35604 0.19767,-0.39728 1.19062,-0.24837 0.93133,0.13966 1.19063,0.0975 1.19063,-0.19354 0,-0.20464 0.23812,-0.58758 0.52917,-0.85097 0.3065,-0.27738 0.5327,-0.82345 0.53758,-1.29777 0.005,-0.45039 0.18322,-1.05001 0.39687,-1.33248 0.50243,-0.66427 0.49804,-1.844218 -0.008,-2.264538 -0.5797,-0.48111 -0.48499,-1.00901 0.19843,-1.10607 0.54249,-0.077 0.60234,-0.24656 0.67446,-1.91041 0.0448,-1.03252 -0.0415,-1.94646 -0.19844,-2.10343 -0.15267,-0.15267 -0.27758,-0.55143 -0.27758,-0.88613 0,-0.51909 -0.13612,-0.60854 -0.92604,-0.60854 -0.64676,0 -0.92604,-0.11969 -0.92604,-0.39688 0,-0.23938 0.24498,-0.39687 0.61736,-0.39687 0.33955,0 0.68973,-0.0724 0.77818,-0.16082 0.19238,-0.19238 -0.30286,-1.13075 -0.89111,-1.68844 -0.23188,-0.21983 -0.47001,-0.53666 -0.52916,-0.70407 -0.18917,-0.53529 -2.62988,-3.00292 -2.97017,-3.00292 -0.18033,0 -0.4995,-0.23812 -0.70927,-0.52917 -0.20977,-0.29104 -0.53371,-0.52916 -0.71987,-0.52916 -0.18615,0 -0.33846,-0.1786 -0.33846,-0.39688 0,-0.21844 -0.23429,-0.39687 -0.52112,-0.39687 -0.28662,0 -0.94508,-0.23813 -1.46326,-0.52917 -0.51817,-0.29104 -1.28578,-0.52917 -1.70579,-0.52917 -0.42001,0 -0.80334,-0.0893 -0.85185,-0.19843 -0.14438,-0.32486 -2.34754,-1.38907 -2.8757,-1.38907 -0.2687,0 -0.56214,-0.11906 -0.65207,-0.26458 -0.0899,-0.14552 -0.63275,-0.26458 -1.20624,-0.26458 -0.75047,0 -1.04272,-0.11124 -1.04272,-0.39688 0,-0.31466 -0.38044,-0.39687 -1.83647,-0.39687 -1.01006,0 -1.91005,-0.11906 -1.99999,-0.26459 -0.0899,-0.14552 -0.81134,-0.26458 -1.60311,-0.26458 -0.79178,0 -1.4396,-0.11906 -1.4396,-0.26458 0,-0.14552 -0.40969,-0.26459 -0.91042,-0.26459 -0.50074,0 -0.98402,-0.11906 -1.07395,-0.26458 -0.0899,-0.14552 -0.96612,-0.26458 -1.94708,-0.26458 -0.98095,0 -1.89666,-0.10927 -2.0349,-0.24282 -0.13825,-0.13355 -0.8169,-0.32566 -1.50813,-0.42692 -1.29793,-0.19012 -1.60644,0.0502 -0.85989,0.66974 0.21828,0.18116 0.39687,0.50797 0.39687,0.72625 0,0.31165 -0.0802,0.33034 -0.37332,0.0871 -0.25124,-0.20852 -0.42862,-0.22035 -0.54245,-0.0362 -0.10285,0.16643 -0.40632,0.0419 -0.77446,-0.31788 -0.60285,-0.58909 -0.60317,-0.59344 -0.0782,-1.05481 0.5102,-0.44841 0.51169,-0.48031 0.0467,-0.99415 -0.57413,-0.63441 -1.88431,-1.3207 -2.52132,-1.3207 -0.25171,0 -0.51993,-0.23812 -0.59604,-0.52917 -0.0828,-0.3166 -0.3609,-0.52916 -0.69232,-0.52916 -0.316,0 -0.55394,-0.17048 -0.55394,-0.39688 0,-0.21828 -0.20835,-0.39957 -0.46302,-0.40286 -0.25466,-0.003 -0.87264,-0.47955 -1.37329,-1.05833 -0.50065,-0.57879 -1.04239,-1.05235 -1.20386,-1.05235 -0.55871,0 -0.94013,-0.59331 -0.6253,-0.97266 0.22173,-0.26717 0.18438,-0.35025 -0.15749,-0.35025 -0.56271,0 -1.20412,-0.62416 -1.20412,-1.17173 0,-0.22868 -0.11298,-0.41577 -0.25107,-0.41577 -0.13808,0 -0.61306,-0.75849 -1.05549,-1.68553 -0.75301,-1.57778 -0.87225,-1.69636 -1.8656,-1.85521 -0.58364,-0.0933 -1.0621,-0.25757 -1.06324,-0.365 -0.003,-0.29327 -1.34154,-0.85676 -2.03506,-0.85676 -0.33479,0 -0.60871,0.11906 -0.60871,0.26458 0,0.14552 -0.54368,0.26458 -1.20819,0.26458 -1.15408,0 -1.20445,0.0317 -1.12448,0.7072 0.0609,0.5145 0.29871,0.77842 0.87274,0.96857 1.62105,0.53697 1.99668,1.6697 0.64344,1.94034 -1.10622,0.22125 -1.24268,0.76899 -0.4085,1.63969 0.38271,0.39945 0.69583,0.85014 0.69583,1.00153 0,0.15138 0.21489,0.46972 0.47754,0.70741 0.26265,0.23769 0.6358,0.8355 0.82922,1.32846 0.24037,0.6126 0.63354,1.00688 1.24225,1.24572 0.61987,0.24322 0.89057,0.51939 0.89057,0.90859 0,0.30754 0.14288,0.70203 0.3175,0.87666 0.24695,0.24694 0.1,0.3175 -0.66146,0.3175 -0.86152,0 -0.97896,0.0775 -0.97896,0.64584 0,0.35522 -0.12943,0.72584 -0.28763,0.82361 -0.20681,0.12782 -0.20696,0.25846 -5.2e-4,0.4649 0.20644,0.20644 0.54749,0.0348 1.21368,-0.61094 0.73216,-0.70963 0.92656,-0.7987 0.92656,-0.4245 0,0.26045 0.23812,0.53582 0.52916,0.61193 0.29105,0.0761 0.52917,0.2892 0.52917,0.47353 0,0.18434 -0.23812,0.39743 -0.52917,0.47354 -0.29104,0.0761 -0.52916,0.32812 -0.52916,0.56003 0,0.32333 -0.2776,0.42164 -1.19063,0.42164 -1.01423,0 -1.19062,-0.0784 -1.19062,-0.52917 0,-0.29779 -0.17639,-0.52916 -0.40343,-0.52916 -0.50503,0 -0.93422,1.07714 -0.7341,1.84238 0.14143,0.54085 0.0875,0.56441 -0.87725,0.3835 -0.56536,-0.10602 -1.4185,-0.41209 -1.89587,-0.68016 -0.47833,-0.2686 -1.39179,-0.48739 -2.03491,-0.48739 -0.64183,0 -1.24055,-0.11906 -1.33048,-0.26458 -0.0899,-0.14552 -0.39624,-0.26459 -0.68067,-0.26459 -0.28443,0 -0.72388,-0.10905 -0.97657,-0.24234 -0.25269,-0.13328 -0.91524,-0.44095 -1.47235,-0.6837 -0.92493,-0.40303 -1.05314,-0.40496 -1.47604,-0.0222 -0.74886,0.67771 -1.3408,0.51877 -1.52653,-0.40989 -0.0984,-0.49194 -0.36465,-0.88101 -0.65484,-0.9569 -0.26898,-0.0703 -0.48905,-0.23306 -0.48905,-0.36161 0,-0.12855 -0.27538,-0.23372 -0.61195,-0.23372 -0.33658,0 -0.95417,-0.35719 -1.37242,-0.79375 -0.41825,-0.43656 -0.9022,-0.79375 -1.07544,-0.79375 -0.17324,0 -0.46319,-0.1786 -0.64435,-0.39688 -0.18116,-0.21828 -0.70524,-0.39687 -1.16461,-0.39687 -0.53172,0 -0.97384,-0.1923 -1.21664,-0.52917 -0.20977,-0.29104 -0.54951,-0.52917 -0.75498,-0.52917 -0.20547,0 -0.58765,-0.24682 -0.8493,-0.54851 -0.32003,-0.36899 -0.71985,-0.52053 -1.22166,-0.46302 -0.62864,0.072 -0.76674,0.23111 -0.87823,1.01153 -0.13653,0.95573 -0.23993,1.00986 -1.26958,0.66464 -0.75004,-0.25147 -0.67115,-0.96297 0.14665,-1.32269 0.32657,-0.14365 0.59284,-0.4413 0.5917,-0.66146 -0.002,-0.43239 -1.1301,-1.06173 -1.90277,-1.06173 -0.26203,0 -0.47642,-0.11907 -0.47642,-0.26459 0,-0.14552 -0.2743,-0.26458 -0.60955,-0.26458 -0.34929,0 -0.9928,-0.39541 -1.50711,-0.92604 -0.65157,-0.67225 -1.12589,-0.92604 -1.73069,-0.92604 -0.49711,0 -1.02628,-0.21343 -1.31202,-0.52917 -0.66196,-0.73146 -1.51997,-0.67065 -1.89325,0.13418 -0.18892,0.4073 -0.20928,0.71884 -0.0533,0.81524 0.15268,0.0944 0.12711,0.30705 -0.0647,0.53816 -0.27192,0.32764 -0.40579,0.29884 -0.93889,-0.20197 -0.70087,-0.65844 -0.84416,-1.81478 -0.22487,-1.81478 0.21828,0 0.39595,-0.0893 0.39481,-0.19844 -0.003,-0.26846 -1.31151,-0.85989 -1.90277,-0.85989 -0.26203,0 -0.47642,-0.11906 -0.47642,-0.26458 0,-0.14553 -0.64026,-0.26459 -1.42281,-0.26459 -0.94194,0 -1.53413,-0.13413 -1.75219,-0.39687 -0.20938,-0.2523 -0.79381,-0.39688 -1.60428,-0.39688 -0.7012,0 -1.348491,-0.11906 -1.438428,-0.26458 -0.08994,-0.14552 -0.608933,-0.26458 -1.153324,-0.26458 -0.544391,0 -1.137634,-0.14784 -1.318319,-0.32852 -0.261634,-0.26164 -0.37064,-0.26036 -0.535417,0.006 -0.156606,0.2534 -0.324684,0.20462 -0.691448,-0.20065 -0.300779,-0.33236 -0.817153,-0.53542 -1.361535,-0.53542 -0.482343,0 -1.312434,-0.24457 -1.844646,-0.5435 -0.532213,-0.29892 -1.279975,-0.50728 -1.661694,-0.46302 -0.593515,0.0688 -0.705927,0.22418 -0.776152,1.07267 -0.07059,0.85296 -0.172696,0.99219 -0.727604,0.99219 -0.634837,0 -0.903607,-0.603 -0.40588,-0.91061 0.137831,-0.0852 0.109735,-0.42809 -0.06615,-0.8073 -0.273231,-0.5891 -0.465909,-0.65944 -1.811491,-0.66128 -0.828157,-10e-4 -1.579324,-0.12113 -1.669261,-0.26665 -0.08994,-0.14552 -0.96612,-0.26458 -1.947073,-0.26458 -1.06766,0 -1.915414,-0.13186 -2.11207,-0.32852 -0.261634,-0.26163 -0.373407,-0.25588 -0.54901,0.0283 -0.15382,0.24889 -0.275218,0.26822 -0.401473,0.0639 -0.09954,-0.16105 -0.471609,-0.29283 -0.826823,-0.29283 -0.355213,0 -0.645843,-0.11906 -0.645843,-0.26458 0,-0.34531 -2.829297,-0.34531 -3.042708,0 -0.21231,0.34352 -1.639774,0.34352 -1.852084,0 -0.228474,-0.36968 -2.605078,-0.3318 -2.984445,0.0476 -0.239816,0.23982 -0.466585,0.2295 -0.97856,-0.0445 -0.855453,-0.45782 -1.156972,-0.16127 -0.534911,0.5261 0.55618,0.61457 0.520595,0.68621 -0.463564,0.93321 -0.607171,0.15239 -0.727061,0.0973 -0.727061,-0.33436 0,-0.66116 -0.93092,-1.54823 -1.188086,-1.13213 -0.120886,0.1956 -0.344541,0.10786 -0.663998,-0.26047 -0.29698,-0.34242 -0.547532,-0.44892 -0.653346,-0.27771 -0.0944,0.15274 -0.557513,0.27771 -1.029144,0.27771 -0.47163,0 -0.975196,0.11768 -1.119034,0.26152 -0.143839,0.14384 -1.298745,0.28089 -2.566459,0.30456 -1.404552,0.0262 -2.304934,0.15144 -2.304934,0.32056 0,0.17144 -0.121366,0.15616 -0.3175,-0.04 -0.174625,-0.17462 -0.815582,-0.3175 -1.424349,-0.3175 -0.857237,0 -1.135922,0.11117 -1.235762,0.49296 -0.112855,0.43156 -0.480465,0.5086 -2.951217,0.61849 -1.624568,0.0723 -2.952827,0.25604 -3.129863,0.43308 -0.169157,0.16915 -0.581402,0.30756 -0.9161,0.30756 -0.334698,0 -0.608542,0.11906 -0.608542,0.26458 0,0.14552 -0.528755,0.26458 -1.17501,0.26458 -0.646256,0 -1.248595,0.11906 -1.338532,0.26459 -0.08994,0.14552 -0.454151,0.26458 -0.809365,0.26458 -0.355214,0 -0.645843,0.11906 -0.645843,0.26458 0,0.14552 -0.308803,0.26459 -0.686229,0.26459 -0.464525,0 -0.731095,0.17157 -0.825102,0.53105 -0.09896,0.37843 -0.444108,0.57986 -1.200935,0.70088 -0.65909,0.1054 -1.104939,0.3338 -1.17507,0.60198 -0.06215,0.23768 -0.492853,0.59409 -0.957107,0.79201 -0.464255,0.19793 -1.082224,0.56818 -1.373266,0.82278 -0.291041,0.2546 -0.93057,0.54793 -1.421174,0.65185 -0.550968,0.1167 -0.942108,0.38051 -1.023046,0.69002 -0.07207,0.2756 -0.306893,0.50109 -0.521825,0.50109 -0.214933,0 -0.453058,0.23813 -0.529167,0.52917 -0.08955,0.34244 -0.360896,0.52917 -0.76898,0.52917 -0.49625,0 -0.630599,0.14092 -0.630599,0.66145 0,0.4176 -0.149377,0.66146 -0.405179,0.66146 -0.222849,0 -0.482475,0.20836 -0.576948,0.46302 -0.09447,0.25466 -0.388392,0.65558 -0.653154,0.89093 -0.264762,0.23535 -0.481386,0.66795 -0.481386,0.96133 0,0.30838 -0.220122,0.59098 -0.52177,0.66987 -0.369231,0.0965 -0.571925,0.4501 -0.693329,1.20932 -0.09436,0.59008 -0.395342,1.27539 -0.668855,1.52292 -0.273513,0.24752 -0.497296,0.69381 -0.497296,0.99175 0,0.29794 -0.346955,0.90457 -0.771011,1.34806 -0.986971,1.0322 -1.215408,2.70533 -0.430788,3.15519 0.284896,0.16334 0.672763,0.43822 0.861926,0.61085 0.476007,0.43438 -0.06016,0.74233 -1.131735,0.65 -0.873309,-0.0752 -1.709389,0.55747 -1.173947,0.88839 0.189964,0.11741 0.102811,0.34241 -0.251736,0.6499 -0.84879,0.73615 -0.700482,1.3343 0.330833,1.3343 1.746634,0 2.09569,1.24998 0.383645,1.37385 l -1.124479,0.0814 v 1.19063 c 0,1.14987 0.02943,1.19346 0.859896,1.27353 0.857852,0.0827 1.27545,0.84313 0.463021,0.84313 -0.218281,0 -0.396875,0.11907 -0.396875,0.26459 0,0.14552 0.178594,0.26458 0.396875,0.26458 0.517086,0 0.501502,0.2396 -0.05562,0.85521 -0.316568,0.34981 -0.362611,0.55557 -0.153269,0.68495 0.164577,0.10171 0.383523,0.52078 0.486546,0.93125 0.211003,0.8407 0.798559,1.18842 1.248258,0.73872 0.379184,-0.37918 1.166455,-0.38795 1.396612,-0.0155 0.09659,0.15629 -0.100754,0.57836 -0.438552,0.93793 -0.7209,0.76736 -0.462218,1.49552 0.58576,1.64884 0.34894,0.0511 0.714659,0.22199 0.812709,0.37986 0.126434,0.20358 0.287037,0.19678 0.552318,-0.0234 0.430196,-0.35703 0.569108,-2.07044 0.187004,-2.30659 -0.337566,-0.20863 -0.330792,-1.90179 0.0084,-2.11145 0.145521,-0.0899 0.264584,-0.391 0.264584,-0.66902 0,-0.27803 0.238125,-0.92947 0.529166,-1.44765 0.291042,-0.51817 0.529167,-1.17664 0.529167,-1.46325 0,-0.28662 0.119062,-0.52112 0.264583,-0.52112 0.145521,0 0.264584,-0.21983 0.264584,-0.48852 0,-0.56054 0.706623,-2.07224 1.075088,-2.29996 0.136305,-0.0842 0.247828,-0.38426 0.247828,-0.66672 0,-0.35949 -0.182556,-0.51355 -0.608541,-0.51355 -0.828801,0 -1.323121,-0.51135 -0.940266,-0.97266 0.380449,-0.45842 1.045292,-0.44332 1.981584,0.045 0.416817,0.21738 0.60902,0.39598 0.427119,0.39687 -0.181901,9e-4 -0.330729,0.1207 -0.330729,0.26622 0,0.14552 0.357188,0.26458 0.79375,0.26458 0.436563,0 0.79375,-0.11679 0.79375,-0.25954 0,-0.14275 0.327422,-0.33776 0.727604,-0.43336 0.400183,-0.0956 0.876433,-0.29104 1.058334,-0.43431 0.221549,-0.1745 0.457918,-0.15494 0.716014,0.0593 0.443204,0.36783 0.937631,0.15539 0.937631,-0.40287 0,-0.2097 0.178594,-0.38126 0.396875,-0.38126 0.244386,0 0.396875,-0.24815 0.396875,-0.64585 0,-0.8422 0.299029,-1.00035 1.141221,-0.60357 0.515588,0.24291 0.705888,0.55381 0.764769,1.24942 0.07654,0.90425 0.107963,0.92794 1.335156,1.00668 0.882365,0.0566 1.256771,0.19456 1.256771,0.46302 0,0.23148 0.26103,0.38238 0.661459,0.38238 0.524902,0 0.661458,0.13333 0.661458,0.64584 0,0.35522 -0.119063,0.71943 -0.264583,0.80937 -0.145521,0.0899 -0.264584,0.33736 -0.264584,0.54982 0,0.41938 0.936889,0.32144 2.041502,-0.21341 0.436097,-0.21116 0.690275,-0.19759 0.992187,0.053 0.533885,0.44308 0.512039,0.78318 -0.09286,1.44564 -0.713796,0.78172 -0.96716,1.73684 -0.46073,1.73684 0.2195,0 0.472675,-0.11906 0.562612,-0.26458 0.08994,-0.14552 0.454151,-0.26458 0.809365,-0.26458 0.51251,0 0.645843,0.13655 0.645843,0.66146 0,0.3638 -0.119063,0.66145 -0.264583,0.66145 -0.145521,0 -0.264584,0.54381 -0.264584,1.20846 0,1.08805 0.05272,1.19172 0.529167,1.0405 0.303559,-0.0963 0.529167,-0.0475 0.529167,0.11446 0,0.15533 0.297656,0.28242 0.661458,0.28242 0.411574,0 0.661458,0.14993 0.661458,0.39687 0,0.24695 -0.249884,0.39688 -0.661458,0.39688 -0.503788,0 -0.661458,0.13783 -0.661458,0.57826 0,0.31804 -0.258475,0.85339 -0.574388,1.18966 -0.505209,0.53777 -0.533176,0.68842 -0.232207,1.25078 0.281841,0.52663 0.278426,0.78341 -0.01937,1.45617 -0.198852,0.44924 -0.504051,0.816788 -0.678221,0.816788 -0.659725,0 -0.593565,0.50936 0.109956,0.84655 0.925469,0.44357 1.041543,1.62293 0.171944,1.74702 -0.397358,0.0567 -0.60668,-0.0953 -0.718148,-0.52158 l -0.157325,-0.60161 -0.73706,0.68123 c -0.405383,0.37468 -0.94542,0.75449 -1.200081,0.84401 -0.254662,0.0895 -0.463021,0.3809 -0.463021,0.6475 0,0.87916 -0.640817,1.90884 -1.190625,1.91313 -0.539267,0.004 -1.190625,1.02941 -1.190625,1.87398 0,0.24505 -0.250669,0.51111 -0.557042,0.59122 -0.712874,0.18642 -0.51757,0.81435 0.289963,0.93227 1.141872,0.16674 1.840854,1.36503 0.796246,1.36503 -0.291042,0 -0.529167,0.13982 -0.529167,0.31071 0,0.17088 -0.274903,0.0524 -0.610895,-0.26321 l -0.610895,-0.5739 -0.844313,0.87111 c -0.801076,0.8265 -1.123683,1.77196 -0.604624,1.77196 0.13183,0 0.102064,0.29673 -0.06615,0.65939 -0.169844,0.36619 -0.531869,0.66031 -0.814169,0.66146 -0.555247,0.002 -1.476042,0.71761 -1.476042,1.14672 0,0.14789 -0.1948,0.48414 -0.43289,0.74722 -0.400797,0.44288 -0.400797,0.49066 0,0.64446 0.23809,0.0914 0.43289,0.38447 0.43289,0.65136 0,0.26688 0.119063,0.55883 0.264584,0.64876 0.599446,0.37048 0.192074,0.66146 -0.926042,0.66146 -1.01691,0 -1.190625,0.0777 -1.190625,0.53276 0,0.29301 -0.144321,0.76385 -0.320713,1.0463 -0.389979,0.62445 -0.103534,0.99949 0.427057,0.55914 0.211043,-0.17515 0.89853,-0.28141 1.527748,-0.23614 0.921848,0.0663 1.144033,0.18067 1.144033,0.58874 0,0.49344 -0.987852,1.20998 -2.197338,1.59386 -0.429368,0.13627 -0.580787,0.0762 -0.580787,-0.23037 0,-0.22809 -0.119062,-0.41471 -0.264583,-0.41471 -0.145521,0 -0.264584,0.17157 -0.264584,0.38126 0,0.2097 0.119063,0.45485 0.264584,0.54479 0.370416,0.22893 0.33414,1.98437 -0.04101,1.98437 -0.171105,0 -0.0902,0.238 0.183839,0.54081 0.646798,0.71471 1.549771,0.57767 1.667132,-0.25301 0.08667,-0.61344 0.613634,-1.34613 0.968161,-1.34613 0.433938,0 0.926041,0.83356 0.926041,1.5686 0,0.73075 -0.08189,0.81265 -0.812648,0.81265 -0.847644,0 -1.344299,0.34027 -1.641248,1.12448 -0.107422,0.28368 -0.4526,0.46302 -0.891212,0.46302 h -0.715883 l 0.535861,0.59531 c 0.294724,0.32742 0.609398,0.80367 0.699275,1.05833 0.176208,0.49927 0.586905,0.61035 0.826044,0.22342 0.08518,-0.13783 0.428091,-0.10974 0.8073,0.0661 0.72356,0.3356 0.942381,1.49638 0.282085,1.49638 -0.486865,0 -0.586343,0.17334 -0.822798,1.43376 -0.15507,0.82659 -0.120239,1.00485 0.174418,0.89264 0.552857,-0.21053 1.558806,0.24623 1.558806,0.70778 0,0.59118 1.298826,0.51415 1.83936,-0.10909 0.441979,-0.50961 0.449745,-0.50961 0.817048,0 0.470949,0.6534 0.686092,0.64973 0.859839,-0.0147 0.171611,-0.65625 1.12324,-0.70295 1.347857,-0.0661 0.08983,0.25466 0.232697,0.61185 0.31749,0.79375 0.08942,0.19183 -0.0256,0.33073 -0.273866,0.33073 -0.360639,0 -0.402411,0.21872 -0.265293,1.38906 0.08951,0.76399 0.211832,1.54544 0.271828,1.73656 0.201145,0.64077 0.641988,0.0281 0.641988,-0.89228 0,-0.72481 0.104702,-0.91042 0.513551,-0.91042 0.282454,0 0.587137,0.11906 0.677074,0.26458 0.08994,0.14552 0.394619,0.26458 0.677073,0.26458 0.282453,0 0.513552,-0.11906 0.513552,-0.26458 0,-0.67198 1.880898,0.0947 2.903999,1.18379 0.811994,0.86433 2.387667,0.95614 2.387667,0.13913 0,-0.29105 0.09083,-0.52917 0.201843,-0.52917 0.111014,0 0.319374,-0.26789 0.463021,-0.59531 0.316534,-0.72149 1.716386,-1.00556 1.716386,-0.34831 0,0.25608 0.232536,0.41445 0.608542,0.41445 0.334698,0 0.730418,0.12188 0.879377,0.27084 0.184724,0.18472 0.424894,0.1006 0.755382,-0.26459 0.302466,-0.33422 0.817121,-0.53541 1.369582,-0.53541 0.955567,0 1.069105,-0.2246 0.554305,-1.0965 -0.264583,-0.44811 -0.264583,-0.5841 0,-0.67991 0.181901,-0.0659 0.330729,-0.34798 0.330729,-0.62689 0,-0.4834 0.260733,-0.62185 0.992188,-0.52687 0.181901,0.0236 0.330729,-0.14087 0.330729,-0.36553 0,-0.57161 1.562926,-0.54322 1.986524,0.0361 0.297971,0.4075 0.351048,0.39601 0.636716,-0.13776 0.434873,-0.81257 0.159764,-1.10055 -1.051355,-1.10055 -0.837132,0 -1.042719,-0.0962 -1.042719,-0.48816 0,-0.72459 0.985956,-1.54213 1.382086,-1.146 0.310669,0.31066 2.057498,0.44655 2.057498,0.16005 0,-0.24546 -0.734539,-0.90714 -1.007038,-0.90714 -0.138097,0 -0.399305,-0.17859 -0.580462,-0.39687 -0.181158,-0.21829 -0.573314,-0.39688 -0.871459,-0.39688 -1.173495,0 -2.053092,-1.66021 -1.077868,-2.03444 0.237558,-0.0911 0.658611,-0.0242 0.935673,0.14886 0.401752,0.2509 0.620864,0.23256 1.082157,-0.0905 0.728066,-0.50996 0.98983,-0.51214 0.98983,-0.008 0,0.26668 0.266739,0.39687 0.813151,0.39687 0.63149,0 0.793533,-0.10344 0.725341,-0.46302 -0.05296,-0.27926 -0.375675,-0.49625 -0.81315,-0.54674 -0.623929,-0.072 -0.725342,-0.20334 -0.725342,-0.93927 0,-1.06897 -0.406716,-1.48997 -1.441979,-1.49262 -0.600788,-0.002 -0.885123,-0.17054 -1.112815,-0.66146 l -0.305836,-0.65939 h 1.896742 c 1.694288,0 1.924618,0.0617 2.157919,0.5782 0.382782,0.8474 0.922636,0.91816 0.922636,0.12092 0,-0.36734 0.119062,-0.74147 0.264583,-0.83141 0.145521,-0.0899 0.264584,-0.51742 0.264584,-0.94996 0,-0.82971 -0.625321,-1.30868 -1.095157,-0.83884 -0.178061,0.17806 -0.477275,0.16782 -0.906193,-0.031 -0.660805,-0.30633 -0.885867,-0.95831 -0.330807,-0.95831 0.172522,0 0.594283,-0.26361 0.937246,-0.58581 0.525741,-0.49391 0.704831,-0.53507 1.141532,-0.26234 0.441029,0.27543 0.517962,0.25386 0.517962,-0.1452 0,-0.25776 -0.267195,-0.5862 -0.593767,-0.72984 -0.326572,-0.14365 -0.636337,-0.48708 -0.688367,-0.76319 -0.08249,-0.43776 0.02525,-0.48255 0.841966,-0.35002 1.150099,0.18664 1.884339,-0.4122 0.908765,-0.74117 -0.73421,-0.24759 -1.031875,-0.32108 -1.460785,-0.36066 -0.184305,-0.017 -0.330729,-0.38193 -0.330729,-0.82427 0,-0.76083 0.205991,-0.92079 1.034962,-0.80367 1.030076,0.14553 2.173773,-0.30894 2.422269,-0.96253 0.398645,-1.04852 -0.08779,-1.4088 -1.902128,-1.4088 -1.583728,0 -2.007748,-0.35329 -1.214323,-1.01177 0.419913,-0.3485 3.640739,-0.34162 4.079401,0.009 0.458062,0.36582 0.871486,0.0184 0.871486,-0.73234 0,-0.35522 0.119062,-0.64584 0.264583,-0.64584 0.145521,0 0.264584,-0.11907 0.264584,-0.26459 0,-0.14552 -0.139453,-0.26458 -0.309896,-0.26458 -0.369309,0 -1.277604,-0.78156 -1.277604,-1.09934 0,-0.37703 0.857086,-0.24827 1.356623,0.2038 0.435585,0.3942 0.508514,0.39112 0.939356,-0.0397 0.769829,-0.76983 1.19534,-1.76466 0.886765,-2.07324 -0.576,-0.576 -0.3044,-2.04089 0.521422,-2.81232 0.792891,-0.74067 1.057886,-1.5875 0.49677,-1.5875 -0.215542,0 -0.213229,-0.10092 0.0084,-0.36801 0.241173,-0.29059 0.442337,-0.3045 0.956374,-0.0661 0.677442,0.31413 0.817636,0.67994 0.424964,1.10883 -0.126568,0.13825 -0.298686,0.70406 -0.382484,1.25737 -0.181439,1.19802 0.337653,1.57379 1.153772,0.83521 0.479587,-0.43402 0.487555,-0.50936 0.09925,-0.93844 -0.232215,-0.25659 -0.366053,-0.68375 -0.297418,-0.94924 0.100162,-0.38744 0.130849,-0.36522 0.155484,0.1126 0.02928,0.56801 0.559858,0.88144 0.559858,0.33073 0,-0.14552 0.214389,-0.26458 0.476419,-0.26458 0.95606,0 1.900633,-0.64031 1.902767,-1.28984 0.0018,-0.55683 0.09246,-0.61031 0.795814,-0.46964 0.568957,0.11379 0.79375,0.0574 0.79375,-0.19911 0,-0.662728 0.77656,-1.089848 1.340812,-0.737468 0.27725,0.17314 0.743832,0.31481 1.036848,0.31481 0.293017,0 0.532757,0.109938 0.532757,0.244298 0,0.44836 1.618584,-0.556188 1.841694,-1.143018 0.288325,-0.75835 0.970163,-1.31009 1.338037,-1.08273 0.160871,0.0994 0.401265,0.46686 0.534208,0.81653 0.192123,0.50532 0.433047,0.63575 1.174304,0.63575 0.512925,0 0.932591,-0.11906 0.932591,-0.26458 0,-0.14552 0.225386,-0.26458 0.500859,-0.26458 0.676849,0 0.928368,-0.76691 0.431561,-1.31587 -0.492713,-0.54444 -0.531763,-1.59455 -0.0593,-1.59455 0.472803,0 0.978958,0.54728 0.978958,1.0585 0,0.67156 0.629496,1.84759 0.990175,1.84985 0.180794,0.001 0.627279,-0.25753 0.992188,-0.57481 0.792601,-0.68916 0.90819,-1.9929 0.200449,-2.26089 -1.334231,-0.50523 -1.46083,-1.39557 -0.198437,-1.39557 0.811389,0 0.926042,0.0819 0.926042,0.66146 0,0.42494 0.14867,0.66146 0.415773,0.66146 0.577649,0 1.171727,0.65224 1.171727,1.28644 0,0.38204 -0.203621,0.55392 -0.727604,0.61421 -0.571492,0.0658 -0.745567,0.23984 -0.811325,0.81133 l -0.08372,0.7276 h 1.737366 1.737366 v 1.190628 c 0,1.14653 0.0294,1.19062 0.79375,1.19062 0.73075,0 0.79375,-0.0735 0.79375,-0.92604 0,-0.80542 0.0841,-0.926038 0.64584,-0.926038 0.35522,0 0.71944,0.119058 0.80937,0.264578 0.0899,0.14552 0.44713,0.26459 0.79375,0.26459 0.34663,0 0.70382,0.11906 0.79375,0.26458 0.0899,0.14552 0.39462,0.26458 0.67708,0.26458 0.28245,0 0.51355,-0.11906 0.51355,-0.26458 0,-0.14552 0.23812,-0.26458 0.52916,-0.26458 0.29105,0 0.5301,-0.0893 0.53124,-0.19844 0.003,-0.268468 1.3115,-0.859898 1.90276,-0.859898 0.26203,0 0.47642,0.1786 0.47642,0.39688 0,0.234568 -0.24345,0.397718 -0.59531,0.398938 -0.38683,10e-4 -0.71114,0.25146 -0.92604,0.7142 -0.55839,1.20236 -0.43679,1.4004 0.85989,1.4004 0.65485,0 1.19063,0.11906 1.19063,0.26458 0,0.5532 0.95196,0.22697 1.55113,-0.53157 0.76632,-0.97013 1.54817,-1.02488 1.88758,-0.13218 0.29326,0.77133 0.12745,1.36157 -0.61384,2.18511 -0.4893,0.54358 -0.49522,0.59531 -0.0681,0.59531 0.25727,0 0.53004,0.23812 0.60615,0.52917 0.0761,0.29104 0.28233,0.52916 0.45827,0.52916 0.62066,0 1.5135,1.24489 1.45114,2.02332 -0.11161,1.39324 0.0148,1.65404 1.01152,2.08733 1.60335,0.69698 1.78152,0.81841 1.87149,1.27552 0.0665,0.33803 -0.12465,0.43466 -0.8599,0.43466 -0.76905,0 -0.94544,0.0987 -0.94544,0.52917 0,0.38465 0.17639,0.52917 0.64584,0.52917 0.35521,0 0.71943,-0.11906 0.80937,-0.26459 0.0899,-0.14552 0.45415,-0.26458 0.80936,-0.26458 0.62351,0 0.64584,0.0644 0.64584,1.86061 0,1.66781 -0.0595,1.88263 -0.5744,2.0731 -0.39866,0.14747 -0.47568,0.27349 -0.25173,0.4119 0.23042,0.14241 0.24242,0.29611 0.042,0.53763 -0.43364,0.5225 0.37887,1.11917 0.91646,0.67301 0.21828,-0.18116 0.3978,-0.46363 0.39894,-0.62771 0.003,-0.47195 1.22738,-0.94742 1.56639,-0.60841 0.46343,0.46343 0.3341,0.81881 -0.64242,1.76529 -0.50932,0.49365 -0.92604,1.0453 -0.92604,1.22589 0,0.22748 0.28446,0.28218 0.92604,0.17806 l 0.92604,-0.15027 v 1.87108 c 0,1.0291 -0.11906,1.94468 -0.26458,2.03461 -0.71828,0.44392 0.0438,2.61964 1.10242,3.14742 0.39711,0.19798 0.61737,0.54099 0.61737,0.96144 0,0.56813 -0.13403,0.66464 -1.02454,0.73769 l -1.02454,0.084 0.74332,0.77585 c 0.40882,0.42672 0.89963,0.77585 1.09068,0.77585 0.42774,0 0.4574,0.84248 0.0442,1.25567 -0.16861,0.16861 -0.63834,0.23614 -1.05834,0.15214 -0.67354,-0.13471 -0.75516,-0.0777 -0.75516,0.52788 0,0.3734 0.11906,0.7525 0.26458,0.84244 0.14552,0.0899 0.26458,0.0374 0.26458,-0.11668 0,-0.15411 0.33808,-0.2802 0.75128,-0.2802 0.54461,0 0.83419,0.18197 1.05267,0.66146 0.16576,0.3638 0.48252,0.66146 0.70392,0.66146 0.28116,0 0.40255,0.2704 0.40255,0.89664 0,0.67009 -0.10979,0.88736 -0.43454,0.8599 -0.71219,-0.0602 -0.71944,0.60144 -0.01,0.87134 0.95327,0.36244 1.13448,0.8117 0.3274,0.8117 -0.37239,0 -0.67707,0.11907 -0.67707,0.26459 0,0.14552 0.17859,0.26458 0.39688,0.26458 0.2583,0 0.39687,0.25872 0.39687,0.741 0,0.80393 0.53962,2.16402 0.8599,2.16735 0.10914,0.001 0.19843,-0.41465 0.19843,-0.92398 0,-0.88237 0.0438,-0.92604 0.92829,-0.92604 0.86205,0 0.9047,0.0378 0.59781,0.52917 -0.26548,0.42511 -0.26294,0.6373 0.013,1.07907 0.26513,0.42454 0.27226,0.63564 0.0312,0.92604 -0.36035,0.43418 -1.19843,0.4992 -1.438,0.11156 -0.29853,-0.48302 -0.66146,-0.27383 -0.66146,0.38126 0,0.79074 0.36825,1.03899 1.63805,1.10426 0.86627,0.0445 0.98688,-0.0266 1.05885,-0.62481 0.067,-0.55688 0.38984,-0.89922 1.22403,-1.29797 0.0465,-0.0222 -0.0614,-0.31987 -0.23974,-0.66146 -0.79634,-1.52545 -0.79976,-1.54712 -0.24385,-1.54712 0.29227,0 0.53141,0.11907 0.53141,0.26459 0,0.14552 0.1357,0.26458 0.30156,0.26458 0.30785,0 0.99773,0.76584 1.01294,1.12448 0.005,0.10914 -0.1556,0.19844 -0.35606,0.19844 -0.70616,0 -0.99324,0.66619 -0.60748,1.40974 0.27532,0.53067 0.4282,0.61568 0.67087,0.37301 0.24267,-0.24267 0.43256,-0.24044 0.83326,0.01 0.65646,0.40996 1.44856,0.41348 2.09576,0.009 0.78288,-0.48891 1.3843,0.11338 0.98121,0.98264 -0.16602,0.35803 -0.45068,0.65189 -0.63258,0.65302 -0.1819,10e-4 -0.33073,0.12113 -0.33073,0.26665 0,0.14552 0.53578,0.26459 1.19062,0.26459 0.65485,0 1.19063,-0.0908 1.19063,-0.20185 z m -0.87672,-3.96534 c -0.0628,-0.10914 -0.19619,-0.76399 -0.29641,-1.45521 -0.15085,-1.04047 -0.11112,-1.25677 0.23087,-1.25677 0.22818,0 0.41309,0.22306 0.41309,0.49831 0,0.27537 0.23615,0.56006 0.52783,0.63634 0.6788,0.1775 0.94622,0.87799 0.52771,1.38226 -0.34308,0.41338 -1.20824,0.53366 -1.40309,0.19507 z m 3.60886,-0.17575 c -0.17474,-0.19921 -0.21061,-0.45517 -0.082,-0.58525 0.1257,-0.12715 0.26546,-0.82543 0.31057,-1.55173 0.0892,-1.43537 0.63835,-1.86509 1.40451,-1.09893 0.4493,0.4493 0.53349,1.22885 0.13271,1.22885 -0.14552,0 -0.26458,0.53578 -0.26458,1.19062 0,1.06132 -0.0647,1.18953 -0.59531,1.18056 -0.32742,-0.006 -0.73507,-0.16939 -0.90588,-0.36412 z m -7.49464,-2.25603 c 0,-0.28246 -0.11906,-0.58714 -0.26459,-0.67708 -0.43655,-0.2698 -0.29907,-0.66145 0.23219,-0.66145 0.68447,0 1.09862,0.57412 0.91651,1.27053 -0.18785,0.71832 -0.88411,0.77187 -0.88411,0.068 z M 52.489823,136.2975 c 0,-0.70465 0.480382,-0.86899 1.005416,-0.34395 0.525035,0.52503 0.360694,1.00541 -0.343958,1.00541 -0.529167,0 -0.661458,-0.13229 -0.661458,-0.66146 z m 71.486887,-0.7276 c 0.0729,-0.75611 0.1867,-0.8699 0.94281,-0.9428 0.82477,-0.0795 0.85989,-0.0444 0.85989,0.85989 0,0.9043 -0.0385,0.94281 -0.9428,0.94281 -0.9043,0 -0.93942,-0.0351 -0.8599,-0.8599 z m -65.871425,0.0195 c -0.330608,-0.3306 0.02031,-1.01171 0.52125,-1.01171 0.339959,0 1.007038,0.68854 1.007038,1.03944 0,0.38208 -1.139143,0.36142 -1.528288,-0.0277 z m -10.760081,-0.45866 c -0.228327,-0.36945 0.129119,-1.08221 0.542718,-1.08221 0.21675,0 0.368567,0.27246 0.368567,0.66145 0,0.64993 -0.598782,0.9264 -0.911285,0.42076 z m 6.467535,-1.21451 c 0,-0.21828 -0.164015,-0.39687 -0.364478,-0.39687 -0.200463,0 -0.512698,-0.17859 -0.693855,-0.39688 -0.283323,-0.34138 -0.183277,-0.39687 0.715529,-0.39687 1.010507,0 1.041071,0.0261 0.928409,0.79375 -0.11834,0.8063 -0.585605,1.12298 -0.585605,0.39687 z m -8.202083,-0.79375 c 0,-0.21828 0.168672,-0.39687 0.374826,-0.39687 0.206155,0 0.424918,-0.14883 0.48614,-0.33073 0.08678,-0.25784 0.208264,-0.2507 0.551215,0.0324 0.745921,0.61573 0.533875,1.09208 -0.486139,1.09208 -0.64676,0 -0.926042,-0.11969 -0.926042,-0.39688 z m 3.96875,-0.26458 c 0,-0.70465 0.480382,-0.86899 1.005417,-0.34396 0.525034,0.52504 0.360693,1.00542 -0.343959,1.00542 -0.529166,0 -0.661458,-0.13229 -0.661458,-0.66146 z m -9.789584,-0.26458 c 0,-0.21828 0.178594,-0.39688 0.396875,-0.39688 0.218282,0 0.396875,-0.11906 0.396875,-0.26458 0,-0.46015 0.917692,-0.28596 1.2437,0.23606 0.409975,0.65647 0.203658,0.82227 -1.023213,0.82227 -0.725155,0 -1.014237,-0.11312 -1.014237,-0.39687 z m 3.227917,-0.44979 c -0.174625,-0.17463 -0.3175,-0.47228 -0.3175,-0.66146 0,-0.18918 -0.119062,-0.34396 -0.264583,-0.34396 -0.145521,0 -0.264584,-0.11906 -0.264584,-0.26458 0,-0.14552 0.297657,-0.26459 0.661459,-0.26459 0.363802,0 0.661458,0.11907 0.661458,0.26459 0,0.14552 0.416719,0.26458 0.926042,0.26458 0.811389,0 0.926042,0.0819 0.926042,0.66146 0,0.58951 -0.109362,0.66146 -1.005417,0.66146 -0.552979,0 -1.148292,-0.14288 -1.322917,-0.3175 z m 13.006161,-0.0794 c 0.218281,-0.21828 0.628926,-0.39687 0.912544,-0.39687 0.283617,0 0.663888,0.17859 0.845045,0.39687 0.284824,0.34319 0.161387,0.39688 -0.912543,0.39688 -1.10393,0 -1.197824,-0.0441 -0.845046,-0.39688 z m 67.04353,0.0286 c -0.5043,-0.38282 -0.63752,-1.48377 -0.17954,-1.48377 0.46692,0 1.03944,0.71825 1.03944,1.30402 0,0.63105 -0.20808,0.67455 -0.8599,0.17975 z m -63.173393,-0.56269 c -0.27292,-0.32885 -0.247327,-0.49705 0.140902,-0.92604 0.260919,-0.28831 0.69407,-0.5242 0.962558,-0.5242 0.381507,0 0.488159,0.20232 0.488159,0.92604 0,0.79867 -0.08652,0.92604 -0.629061,0.92604 -0.345984,0 -0.779135,-0.18083 -0.962558,-0.40184 z m -8.364747,-1.28636 -0.563657,-0.31341 0.610765,-0.28823 c 0.654305,-0.30878 1.178008,-0.0318 1.178008,0.62296 0,0.41294 -0.458443,0.40496 -1.225116,-0.0213 z m 71.3213,-0.58294 c -0.40777,-0.49132 -0.057,-1.2487 0.64208,-1.38628 0.33802,-0.0665 0.43466,0.12465 0.43466,0.85989 0,1.02871 -0.4694,1.25819 -1.07674,0.52639 z M 39.657531,128.8328 c -0.882849,-0.21236 -1.099058,-0.60509 -0.333115,-0.60509 0.384318,0 0.771612,-0.11787 0.860653,-0.26195 0.101918,-0.1649 0.293911,-0.1404 0.518248,0.0661 0.340836,0.31381 0.07615,1.03774 -0.350579,0.95886 -0.09132,-0.0169 -0.404166,-0.088 -0.695207,-0.15797 z m 6.811348,-0.14207 c 0.169483,-0.51628 1.78761,-0.59133 1.78761,-0.0829 0,0.29818 -0.264655,0.41364 -0.94809,0.41364 -0.639988,0 -0.912808,-0.10747 -0.83952,-0.33073 z m -3.76864,-1.44919 v -0.98617 l 0.694078,0.69407 c 0.738942,0.73894 0.662774,1.27827 -0.180526,1.27827 -0.416492,0 -0.513552,-0.18638 -0.513552,-0.98617 z m 81.283311,0.14281 c -0.17644,-0.17644 -0.32081,-0.59465 -0.32081,-0.92934 0,-0.47674 0.14691,-0.60855 0.67823,-0.60855 0.60282,0 0.669,0.0933 0.59531,0.83952 -0.0913,0.92402 -0.45814,1.19296 -0.95273,0.69837 z m 14.55507,-1.05534 c -0.35561,-0.35561 0.035,-1.01171 0.60225,-1.01171 0.5673,0 0.95786,0.6561 0.60225,1.01171 -0.17117,0.17116 -0.44218,0.3112 -0.60225,0.3112 -0.16007,0 -0.43108,-0.14004 -0.60225,-0.3112 z m -77.714422,-0.6035 c -1.159991,-0.60517 -1.218291,-0.68293 -0.814679,-1.08654 0.209004,-0.209 0.492995,-0.38001 0.631091,-0.38001 0.421611,0 0.890749,0.73588 0.799211,1.25362 -0.07057,0.39914 -0.183699,0.43827 -0.615623,0.21293 z m 60.391152,-0.84759 c -0.85795,-0.4519 -0.93693,-0.87834 -0.19844,-1.07146 0.58274,-0.15239 0.7228,-1.10011 0.23472,-1.58819 -0.43251,-0.43252 -0.0427,-0.87002 0.77308,-0.86766 0.51357,10e-4 0.80416,0.20053 1.04272,0.71421 0.42645,0.91826 0.41678,1.13581 -0.0505,1.13581 -0.55826,0 -0.7707,0.49443 -0.40287,0.93763 0.25039,0.30171 0.24831,0.47138 -0.01,0.78216 -0.38462,0.46344 -0.43122,0.46202 -1.38906,-0.0425 z m -78.05209,-0.008 c -0.254661,-0.0666 -0.463021,-0.3504 -0.463021,-0.63077 0,-0.38774 0.18626,-0.50976 0.778135,-0.50976 0.427975,0 0.854943,0.12428 0.94882,0.27617 0.171715,0.27784 -0.325305,1.07327 -0.634872,1.01605 -0.09132,-0.0169 -0.374401,-0.0851 -0.629062,-0.15169 z m -1.733021,-1.9872 c -0.174625,-0.17462 -0.3175,-0.56753 -0.3175,-0.87312 0,-0.3056 -0.142875,-0.6985 -0.3175,-0.87313 -0.497266,-0.49726 0.03192,-0.80848 1.710125,-1.00572 1.108826,-0.13032 1.517792,-0.0922 1.517792,0.14152 0,0.39533 -0.509384,0.9156 -1.124479,1.14851 -0.518393,0.1963 -0.605738,0.60167 -0.18559,0.86134 0.189654,0.11721 0.179404,0.28958 -0.0324,0.54478 -0.379276,0.457 -0.829187,0.47708 -1.250451,0.0558 z m 83.946651,-1.01166 c -0.46007,-0.50837 -0.45369,-0.52292 0.22922,-0.52292 0.43524,0 0.70247,0.14503 0.70247,0.38126 0,0.63152 -0.4293,0.6968 -0.93169,0.14166 z M 61.485656,120.4221 c -0.269761,-0.32505 -0.251681,-0.39688 0.09989,-0.39688 0.236099,0 0.429272,0.17859 0.429272,0.39688 0,0.21828 -0.04495,0.39687 -0.0999,0.39687 -0.05494,0 -0.248115,-0.17859 -0.429272,-0.39687 z m 2.116667,-1.56993 c 0,-0.77807 0.09615,-0.94362 0.548065,-0.94362 0.301436,0 0.739323,0.19126 0.973083,0.42502 0.558536,0.55854 0.138805,1.26395 -0.82023,1.3785 -0.642797,0.0768 -0.700918,0.005 -0.700918,-0.8599 z m 58.605217,-0.14987 c -0.0899,-0.14552 -0.0374,-0.26458 0.11667,-0.26458 0.15411,0 0.2802,-0.23812 0.2802,-0.52917 0,-0.29104 0.12757,-0.52916 0.28348,-0.52916 0.48122,0 1.09902,0.78602 0.94115,1.19742 -0.16851,0.43913 -1.37019,0.53213 -1.6215,0.12549 z m -57.480738,-1.15356 c -0.796097,-0.39427 -0.75703,-0.9631 0.06615,-0.9631 0.529167,0 0.661458,0.13229 0.661458,0.66146 0,0.3638 -0.02976,0.64684 -0.06615,0.62897 -0.03638,-0.0179 -0.334036,-0.16517 -0.661458,-0.32733 z m -24.14323,-0.83081 c 0,-0.60384 0.09689,-0.68546 0.727605,-0.61289 0.523308,0.0602 0.727604,0.2323 0.727604,0.61289 0,0.38059 -0.204296,0.55267 -0.727604,0.61289 -0.630711,0.0726 -0.727605,-0.009 -0.727605,-0.61289 z m 2.579688,-1.63759 c -0.540551,-0.14126 -0.647643,-1.40512 -0.119063,-1.40512 0.490818,0 0.978959,0.55411 0.978959,1.11125 0,0.48637 -0.05342,0.50462 -0.859896,0.29387 z m 16.646702,-0.25859 c -0.09701,-0.097 -0.176389,-0.39467 -0.176389,-0.66146 0,-0.34102 0.196433,-0.48507 0.661458,-0.48507 0.704652,0 0.868993,0.48038 0.343958,1.00542 -0.359688,0.35969 -0.573976,0.39616 -0.829027,0.14111 z m 2.734027,-1.5434 c 0,-0.57957 0.114653,-0.66146 0.926042,-0.66146 0.58344,0 0.926042,0.12725 0.926042,0.34396 0,0.53003 -0.570256,0.97895 -1.243542,0.97895 -0.472722,0 -0.608542,-0.14763 -0.608542,-0.66145 z m 57.679171,0 c 0,-0.70466 0.48038,-0.869 1.00542,-0.34396 0.52503,0.52503 0.36069,1.00541 -0.34396,1.00541 -0.52917,0 -0.66146,-0.13229 -0.66146,-0.66145 z m 5.82083,-1.4396 c 0,-0.13693 0.11907,-0.32255 0.26459,-0.41249 0.14552,-0.0899 0.26458,-0.39462 0.26458,-0.67707 0,-0.61234 0.59505,-0.6749 1.06245,-0.11171 0.27292,0.32884 0.24733,0.49705 -0.1409,0.92604 -0.48666,0.53776 -1.45072,0.72066 -1.45072,0.27523 z m -79.463195,-0.45658 c -0.379858,-0.37986 -0.165623,-1.14653 0.320381,-1.14653 0.595868,0 1.204656,0.65994 0.965601,1.04674 -0.190558,0.30833 -1.013576,0.37219 -1.285982,0.0998 z m 16.492361,-0.33073 c 0,-0.27892 -0.148828,-0.56717 -0.330729,-0.64057 -0.181901,-0.0734 0.115755,-0.14286 0.661458,-0.15434 1.027666,-0.0216 1.293271,0.36594 0.674688,0.98452 -0.479926,0.47993 -1.005417,0.38082 -1.005417,-0.18961 z m 56.951564,-1.79942 c -0.40298,-0.14477 -0.44419,-1.13305 -0.0472,-1.13305 0.15591,0 0.45025,0.16677 0.65408,0.3706 0.28894,0.28894 0.29935,0.42686 0.0472,0.62593 -0.17785,0.14044 -0.47219,0.20187 -0.65409,0.13652 z m -51.92448,-1.13305 c 0,-0.34102 0.133987,-0.5286 0.330729,-0.46302 0.181901,0.0606 0.330729,0.26899 0.330729,0.46302 0,0.19403 -0.148828,0.40239 -0.330729,0.46302 -0.196742,0.0656 -0.330729,-0.122 -0.330729,-0.46302 z m -21.960417,-0.66146 c 0,-0.52008 0.134451,-0.66145 0.629061,-0.66145 0.345984,0 0.777281,0.17859 0.958439,0.39687 0.275184,0.33158 0.236982,0.39688 -0.232187,0.39688 -0.30886,0 -0.561563,0.11906 -0.561563,0.26458 0,0.14552 -0.178594,0.26458 -0.396875,0.26458 -0.246945,0 -0.396875,-0.24988 -0.396875,-0.66146 z m 69.925807,0.0457 c 0.27091,-0.57404 0.3406,-0.59084 1.02818,-0.24783 1.18161,0.58947 1.13798,0.86361 -0.13743,0.86361 -1.14359,0 -1.17206,-0.0197 -0.89075,-0.61578 z m -50.611224,-0.57484 c 0,-0.52917 0.132292,-0.66146 0.661459,-0.66146 0.529166,0 0.661458,0.13229 0.661458,0.66146 0,0.52916 -0.132292,0.66146 -0.661458,0.66146 -0.529167,0 -0.661459,-0.1323 -0.661459,-0.66146 z m -16.622129,-0.19151 c -0.171162,-0.17116 -0.311204,-0.58505 -0.311204,-0.91974 0,-0.47273 0.147629,-0.60854 0.661458,-0.60854 0.520083,0 0.661458,0.13445 0.661458,0.62906 0,0.8149 -0.580276,1.33066 -1.011712,0.89922 z m 21.437546,-0.52287 c -0.174625,-0.17462 -0.3175,-0.42125 -0.3175,-0.54806 0,-0.32849 0.70106,-0.98652 1.051033,-0.98652 0.162294,0 0.275754,-0.14883 0.252134,-0.33073 -0.09462,-0.72863 0.04259,-0.99219 0.516519,-0.99219 0.645411,0 1.262776,0.68992 0.771045,0.86166 -0.258967,0.0904 -0.229591,0.24596 0.121248,0.64187 0.657197,0.74164 0.585408,0.87772 -0.463021,0.87772 -0.646759,0 -0.926041,0.11969 -0.926041,0.39688 0,0.47632 -0.563949,0.52084 -1.005417,0.0794 z m -5.773726,-1.6499 c -0.34844,-0.75164 -0.03656,-1.2076 0.826018,-1.2076 0.995407,0 1.218906,0.52494 0.520748,1.2231 -0.786811,0.78681 -0.975847,0.78463 -1.346766,-0.0155 z m 49.906233,-1.33989 c 0,-0.75455 0.0996,-0.92604 0.53769,-0.92604 0.56016,0 1.08066,0.92677 0.85444,1.52135 -0.0692,0.1819 -0.41075,0.33073 -0.75898,0.33073 -0.54721,0 -0.63315,-0.12569 -0.63315,-0.92604 z m 70.14903,0.30125 c -0.45724,-0.48671 -0.5088,-0.67442 -0.2417,-0.8799 0.22542,-0.1734 0.52066,-0.16451 0.87839,0.0264 0.455,0.24287 0.49261,0.3798 0.24171,0.8799 l -0.29715,0.59227 z m -3.47403,-0.83042 c 0,-0.21828 -0.11906,-0.39687 -0.26458,-0.39687 -0.14553,0 -0.26459,-0.19133 -0.26459,-0.42518 0,-0.27901 0.14388,-0.36997 0.41852,-0.26459 0.23018,0.0883 0.6469,0.1606 0.92604,0.1606 0.36497,0 0.50753,0.18579 0.50753,0.66146 0,0.52917 -0.1323,0.66146 -0.66146,0.66146 -0.41158,0 -0.66146,-0.14993 -0.66146,-0.39688 z m 7.28053,-0.12732 c -0.38823,-0.42899 -0.41382,-0.5972 -0.1409,-0.92605 0.45857,-0.55254 1.43637,-0.53921 1.22305,0.0167 -0.0883,0.23018 -0.1606,0.6469 -0.1606,0.92604 0,0.65075 -0.32283,0.64491 -0.92155,-0.0167 z m -11.2534,-0.67139 c -0.27292,-0.32885 -0.24733,-0.49705 0.1409,-0.92604 0.73478,-0.81193 1.18614,-0.65902 1.18614,0.40184 0,0.72952 -0.10543,0.92604 -0.49677,0.92604 -0.27323,0 -0.64685,-0.18083 -0.83027,-0.40184 z m -104.969325,-0.5231 c -0.5147,-0.5846 -0.392508,-0.92714 0.33073,-0.92714 0.529166,0 0.661458,0.13229 0.661458,0.66145 0,0.72607 -0.474895,0.85323 -0.992188,0.26569 z m 51.315945,-0.98006 c -0.52504,-0.525038 -0.3607,-1.005418 0.34396,-1.005418 0.52916,0 0.66145,0.13229 0.66145,0.661458 0,0.70465 -0.48038,0.86899 -1.00541,0.34396 z M 50.902323,99.520032 c 0,-0.51382 0.135819,-0.66145 0.608541,-0.66145 0.673286,0 1.243542,0.44892 1.243542,0.97895 0,0.216708 -0.342602,0.343958 -0.926042,0.343958 -0.811389,0 -0.926041,-0.0819 -0.926041,-0.661458 z m 118.533337,-0.24518 c 0,-0.77392 0.0975,-0.94544 0.53747,-0.94544 1.04496,0 0.954,1.59735 -0.10281,1.805338 -0.33802,0.0665 -0.43466,-0.12465 -0.43466,-0.859898 z m 2.16959,0.58914 c -0.41168,-0.41167 -0.40086,-0.69527 0.0435,-1.1396 0.46101,-0.461 0.96195,-0.0191 0.96195,0.84856 0,0.657888 -0.49521,0.801238 -1.00541,0.29104 z m -93.328856,-0.7575 c -0.171733,-0.27787 0.57342,-1.30625 0.946494,-1.30625 0.105995,0 0.266212,0.20836 0.356038,0.46302 0.08983,0.25466 0.232697,0.61185 0.317491,0.79375 0.193747,0.41563 -1.364318,0.46322 -1.620023,0.0495 z m 24.844526,-0.11562 c -0.23629,-0.61578 0.0967,-1.19063 0.68977,-1.19063 0.4208,0 0.53747,0.1723 0.53747,0.79375 0,0.62145 -0.11667,0.79375 -0.53747,0.79375 -0.29561,0 -0.606,-0.17859 -0.68977,-0.39687 z m 7.84182,-0.39688 c 0,-0.70997 0.0864,-0.81828 0.59532,-0.746 0.43606,0.0619 0.59531,0.26149 0.59531,0.746 0,0.48452 -0.15925,0.68408 -0.59531,0.74601 -0.50889,0.0723 -0.59532,-0.036 -0.59532,-0.74601 z m 12.23023,-0.0981 c -0.67747,-0.33504 -0.67965,-0.89511 -0.005,-1.31986 0.35502,-0.22357 0.5916,-0.15213 1.11045,0.3353 0.55953,0.52566 0.60423,0.67447 0.29537,0.98334 -0.4148,0.41479 -0.56413,0.41492 -1.40068,0.001 z m 43.78441,0.19749 c -0.10315,-0.10315 -0.18755,-0.5249 -0.18755,-0.9372 0,-0.66001 0.0969,-0.74966 0.81051,-0.74966 0.75505,0 0.80484,0.0588 0.72761,0.8599 -0.0607,0.62982 -0.22741,0.88058 -0.62297,0.9372 -0.29703,0.0425 -0.62445,-0.007 -0.7276,-0.11024 z m -94.326307,-0.68144 c -0.515827,-0.51583 -0.364111,-1.00542 0.311561,-1.00542 0.814904,0 1.330663,0.58028 0.899227,1.01171 -0.397501,0.39751 -0.809132,0.39537 -1.210788,-0.006 z m 8.728629,-0.11684 c -0.419191,-0.44874 -0.398407,-1.10743 0.04906,-1.5549 0.308865,-0.30886 0.449004,-0.27339 0.926042,0.23439 0.714929,0.76101 0.705108,1.02525 -0.05113,1.37549 -0.454557,0.21053 -0.688989,0.19658 -0.923977,-0.055 z m -4.502092,-0.70719 c -0.757813,-0.80666 -0.727712,-1.23972 0.08617,-1.23972 0.579564,0 0.661459,0.11465 0.661459,0.92604 0,0.50932 -0.03878,0.92604 -0.08617,0.92604 -0.04739,0 -0.345051,-0.27556 -0.661459,-0.61236 z m 6.670074,0.23094 c -0.310434,-0.80898 0.02126,-1.33704 0.892743,-1.42128 0.82229,-0.0795 0.85773,-0.044 0.85773,0.8599 0,0.87334 -0.05909,0.9428 -0.802054,0.9428 -0.454417,0 -0.865494,-0.16532 -0.948419,-0.38142 z m 16.778806,0.0639 c 0.17463,-0.17462 0.3175,-0.59134 0.3175,-0.92604 0,-0.69851 0.15062,-0.73535 1.13582,-0.27781 0.46274,0.2149 0.71286,0.53921 0.7142,0.92604 0.002,0.53321 -0.12765,0.59531 -1.24148,0.59531 -0.9672,0 -1.17298,-0.0705 -0.92604,-0.3175 z m 4.03388,-0.0647 c -0.71758,-0.86463 0.42279,-1.86647 1.21866,-1.0706 0.33652,0.33652 0.38133,0.5609 0.17688,0.88559 -0.37295,0.59228 -0.98968,0.67404 -1.39554,0.18501 z m 43.64404,-0.54388 c 0,-0.64676 0.11969,-0.92604 0.39688,-0.92604 0.21828,0 0.39687,-0.10448 0.39687,-0.23219 0,-0.1277 -0.17859,-0.3804 -0.39687,-0.56156 -0.57955,-0.48098 -0.49514,-0.70597 0.43982,-1.17239 0.97604,-0.48692 0.95968,-0.4952 1.17799,0.59637 0.13371,0.66852 0.0801,0.8406 -0.26182,0.8406 -0.33318,0 -0.42995,0.26798 -0.42995,1.19063 0,1.09361 -0.0539,1.19062 -0.66146,1.19062 -0.57956,0 -0.66146,-0.11465 -0.66146,-0.92604 z m 15.61514,-0.32799 c -0.21568,-0.0847 -0.55161,-0.31339 -0.7465,-0.50828 -0.29608,-0.29608 -0.29286,-0.41584 0.0196,-0.72827 0.32216,-0.32216 0.42441,-0.30385 0.73877,0.13229 0.53922,0.74813 0.7772,0.61958 0.7772,-0.41983 0,-1.0558 0.23864,-1.15645 0.93017,-0.39232 0.47074,0.52017 0.4638,0.55378 -0.27308,1.32292 -0.79365,0.82839 -0.82006,0.83923 -1.44612,0.59349 z M 54.649533,96.057212 c -0.463904,-0.52492 -0.201013,-1.16699 0.477819,-1.16699 0.420801,0 0.537471,0.1723 0.537471,0.79375 0,0.86347 -0.439324,1.02497 -1.01529,0.37324 z m 34.141124,-0.42616 c -0.674526,-0.67453 -0.37147,-1.08357 0.674687,-0.91066 0.545703,0.0902 1.141016,0.16531 1.322917,0.16691 0.561799,0.005 0.362122,0.38329 -0.385542,0.73052 -0.888787,0.41277 -1.209891,0.4154 -1.612062,0.0132 z m 98.768963,-0.21167 c 0.11919,-0.37553 0.0476,-0.52916 -0.24675,-0.52916 -0.49147,0 -0.54535,-0.55728 -0.0972,-1.00542 0.47622,-0.47621 0.84985,-0.38545 1.14359,0.27781 0.17579,0.39691 0.17465,0.79303 -0.003,1.18856 -0.33953,0.75423 -1.03281,0.81362 -0.79623,0.0682 z m -80.26536,-1.33811 c -0.45157,-1.02017 -0.2773,-1.19444 0.74287,-0.74287 0.86467,0.38274 1.00089,0.72488 0.49145,1.23432 -0.50944,0.50944 -0.85158,0.37322 -1.23432,-0.49145 z m 15.83932,0.14749 c 0,-0.70465 0.48038,-0.86899 1.00541,-0.34396 0.52504,0.52503 0.3607,1.00542 -0.34395,1.00542 -0.52917,0 -0.66146,-0.1323 -0.66146,-0.66146 z m 5.82083,0.3175 c 0,-0.90012 1.31088,-1.29338 2.00328,-0.60098 0.66194,0.66194 0.41857,0.94494 -0.81265,0.94494 -0.80054,0 -1.19063,-0.1127 -1.19063,-0.34396 z m 2.73693,-0.50309 c -0.12133,-0.18897 -0.36299,-0.61147 -0.53703,-0.93889 -0.28311,-0.53263 -0.2554,-0.5951 0.26319,-0.59325 0.74484,0.003 1.35591,1.16075 0.83888,1.58985 -0.25068,0.20805 -0.40449,0.19234 -0.56504,-0.0577 z m 12.38706,-0.092 c -0.3782,-0.19786 -0.50676,-0.39288 -0.33073,-0.50168 0.1584,-0.0979 0.28799,-0.46861 0.28799,-0.82383 0,-0.51251 0.13656,-0.64584 0.66146,-0.64584 0.575,0 0.66146,0.11681 0.66146,0.89364 0,1.12874 -0.45328,1.51032 -1.28018,1.07771 z m 15.3031,-0.36337 c -1.52824,-0.13576 -1.72923,-0.21921 -1.8045,-0.74927 -0.10657,-0.7505 0.61519,-1.06779 1.36451,-0.59984 0.3958,0.24719 0.57611,0.2588 0.64846,0.0418 0.17126,-0.51378 1.10811,-0.33102 1.78793,0.3488 0.76233,0.76234 0.83625,1.22108 0.18641,1.15699 -0.25466,-0.0251 -1.23693,-0.11442 -2.18281,-0.19844 z m -32.42571,-0.30812 c -0.32459,-0.52519 0.27553,-0.78467 1.01765,-0.44002 0.39174,0.18193 0.71319,0.42008 0.71432,0.52922 0.003,0.3112 -1.53342,0.23206 -1.73197,-0.0892 z m 11.7882,-0.50611 c 0,-0.69518 0.0931,-0.79375 0.74966,-0.79375 0.65656,0 0.74965,0.0986 0.74965,0.79375 0,0.69518 -0.0931,0.79375 -0.74965,0.79375 -0.65656,0 -0.74966,-0.0986 -0.74966,-0.79375 z m -110.687119,0.0453 c -1.003707,-1.10908 -0.225624,-2.06998 0.825232,-1.01913 0.571179,0.57118 0.624654,0.74431 0.336965,1.09095 -0.44024,0.53046 -0.627622,0.51888 -1.162197,-0.0718 z m 24.432952,-0.57448 c 0,-0.70201 0.08993,-0.79375 0.778135,-0.79375 0.993295,0 1.253074,0.42186 0.661985,1.07501 -0.729401,0.80598 -1.44012,0.66717 -1.44012,-0.28126 z m 45.56125,0.47625 c -0.427553,-0.42755 -0.399752,-0.87236 0.07937,-1.27 0.340356,-0.28247 0.396875,-0.19288 0.396875,0.62906 0,1.0638 -0.02276,1.09443 -0.47625,0.64094 z m 57.097087,-0.74083 c 0,-0.60932 0.11933,-0.79375 0.51355,-0.79375 0.74919,0 0.92931,0.48725 0.39741,1.07501 -0.65112,0.71946 -0.91096,0.63924 -0.91096,-0.28126 z m -21.10052,-0.39153 c -0.57395,-0.65926 -0.41028,-1.46055 0.29833,-1.46055 0.84816,0 1.41578,0.69335 1.04703,1.27895 -0.36409,0.57818 -0.93321,0.65501 -1.34536,0.1816 z m 17.83733,0.21514 c -0.38766,-0.38765 -0.16449,-1.14653 0.33716,-1.14653 0.62341,0 0.86635,0.33739 0.64962,0.90217 -0.16577,0.432 -0.67343,0.55771 -0.98678,0.24436 z m -75.513197,-1.47726 c -0.463229,-0.49961 -0.493705,-0.64847 -0.189579,-0.92604 0.199308,-0.1819 0.435439,-0.33073 0.524736,-0.33073 0.221594,0 0.717464,0.56146 1.118989,1.26701 0.3026,0.53171 0.276639,0.58508 -0.284608,0.58508 -0.339669,0 -0.865961,-0.26789 -1.169538,-0.59532 z m 9.190967,-0.0661 c 0,-0.52917 0.132292,-0.66146 0.661458,-0.66146 0.529167,0 0.661459,0.13229 0.661459,0.66146 0,0.52917 -0.132292,0.66146 -0.661459,0.66146 -0.529166,0 -0.661458,-0.13229 -0.661458,-0.66146 z m 17.79601,-0.57829 c -0.39165,-0.84321 -0.35611,-0.90248 0.41954,-0.69964 0.41516,0.10856 0.5732,0.32118 0.51761,0.69638 -0.11892,0.80258 -0.56517,0.80413 -0.93715,0.003 z m 23.21441,-0.34775 c 0,-0.95327 0.24571,-0.9973 1.01221,-0.18139 0.76328,0.81248 0.72684,0.97514 -0.21846,0.97514 -0.70555,0 -0.79375,-0.0882 -0.79375,-0.79375 z m -96.506775,-0.1249 c -0.918185,-0.40898 -0.732363,-0.93344 0.330729,-0.93344 0.95335,0 1.175225,0.32902 0.595312,0.88279 -0.234314,0.22375 -0.504276,0.23851 -0.926041,0.0507 z m 20.306771,-1.85953 c 0,-0.48507 0.141111,-0.66146 0.529167,-0.66146 0.291041,0 0.529166,-0.11906 0.529166,-0.26458 0,-0.14552 0.178594,-0.26458 0.396875,-0.26458 0.218282,0 0.396875,0.11906 0.396875,0.26458 0,0.14552 -0.119062,0.26458 -0.264583,0.26458 -0.145521,0 -0.264583,0.29766 -0.264583,0.66146 0,0.52917 -0.132292,0.66146 -0.661459,0.66146 -0.529166,0 -0.661458,-0.13229 -0.661458,-0.66146 z m 40.269584,0.34396 c -0.394354,-0.39435 -0.412864,-1.17983 -0.03333,-1.4144 0.336776,-0.20814 1.567913,0.87635 1.567913,1.38115 0,0.43754 -1.106323,0.46151 -1.534583,0.0333 z m 94.72084,0 c -0.49267,-0.49267 -0.37509,-1.00542 0.23056,-1.00542 0.58577,0 1.30402,0.57252 1.30402,1.03944 0,0.38526 -1.14059,0.35997 -1.53458,-0.034 z M 49.787152,84.797832 c -0.06229,-0.18687 -0.720571,-0.29402 -1.719393,-0.27985 -1.181686,0.0168 -1.657977,-0.08 -1.764894,-0.35866 -0.112171,-0.29231 0.0956,-0.3816 0.88798,-0.3816 0.568928,0 1.107999,-0.11907 1.197936,-0.26459 0.471373,-0.76269 1.984375,0.0298 1.984375,1.03944 0,0.58136 -0.415942,0.75545 -0.586004,0.24526 z M 35.29397,83.976152 c 0.0013,-0.37507 0.246007,-0.70845 0.661458,-0.90114 0.633599,-0.29387 0.659394,-0.27059 0.659394,0.59531 0,0.78483 -0.08537,0.90115 -0.661458,0.90115 -0.51018,0 -0.660986,-0.13615 -0.659394,-0.59532 z m 141.55964,-0.31913 c -0.38794,-0.46744 -0.14611,-0.93764 0.48225,-0.93764 0.54352,0 1.09564,0.49332 1.09564,0.97896 0,0.46768 -1.18112,0.43674 -1.57789,-0.0413 z M 37.749818,83.248552 c -0.07611,-0.29104 -0.289201,-0.52917 -0.473537,-0.52917 -0.184337,0 -0.397429,-0.23812 -0.473538,-0.52916 -0.07611,-0.29104 -0.328121,-0.52917 -0.560025,-0.52917 -0.231905,0 -0.421646,-0.17859 -0.421646,-0.39687 0,-0.24695 0.249885,-0.39688 0.661459,-0.39688 0.417599,0 0.661458,0.14938 0.661458,0.40518 0,0.22285 0.208359,0.47907 0.463021,0.56938 0.758154,0.26887 1.389062,0.92641 1.389062,1.4477 0,0.68514 -1.06553,0.65008 -1.246254,-0.041 z m 6.590838,-0.0529 c -0.174625,-0.17462 -0.3175,-0.73365 -0.3175,-1.24229 0,-0.64226 -0.216397,-1.15066 -0.708316,-1.66411 -0.771707,-0.80549 -0.766611,-0.8563 0.113003,-1.12668 0.441986,-0.13586 0.595313,-0.0762 0.595313,0.23171 0,0.22809 0.175617,0.41471 0.39026,0.41471 0.293289,0 0.350458,0.19901 0.230075,0.80093 -0.108828,0.54413 -0.02509,0.95021 0.261173,1.26653 0.25347,0.28008 0.360347,0.69891 0.268234,1.05115 -0.173206,0.66234 -0.373458,0.72684 -0.832242,0.26805 z M 167.6398,82.669792 c -0.49989,-0.49989 -0.38172,-0.74414 0.36005,-0.74414 0.49337,0 0.6573,0.12147 0.59532,0.4411 -0.11068,0.57068 -0.54877,0.70964 -0.95537,0.30304 z m -32.96516,-0.45852 c -0.84703,-0.47332 -0.93884,-0.81787 -0.32167,-1.20717 0.53595,-0.33807 1.29689,0.38291 1.17272,1.11113 -0.0845,0.49569 -0.12722,0.50051 -0.85105,0.096 z m -94.708429,-1.78492 c -0.304438,-0.30444 -0.19268,-0.61736 0.220486,-0.61736 0.218282,0 0.396875,0.17859 0.396875,0.39687 0,0.41317 -0.312922,0.52493 -0.617361,0.22049 z m -9.648472,-0.93486 c -0.683385,-0.68339 -0.34658,-1.00542 1.051537,-1.00542 h 1.369037 l -0.621407,0.66146 c -0.676823,0.72044 -1.302975,0.84015 -1.799167,0.34396 z m 122.015691,-2.46063 c -0.2363,-0.61577 0.0967,-1.19062 0.68976,-1.19062 0.4208,0 0.53747,0.1723 0.53747,0.79375 0,0.62145 -0.11667,0.79375 -0.53747,0.79375 -0.29561,0 -0.606,-0.1786 -0.68976,-0.39688 z M 31.653885,75.448692 c -0.477334,-0.54828 -0.411137,-0.75987 0.347912,-1.11207 0.543307,-0.25209 0.701657,-0.24223 0.814062,0.0507 0.396186,1.03245 -0.485787,1.83806 -1.161974,1.06138 z m 90.247815,-0.27199 c -0.29387,-0.6336 -0.27058,-0.6594 0.59531,-0.6594 0.78484,0 0.90115,0.0854 0.90115,0.66146 0,0.91842 -1.07021,0.91694 -1.49646,-0.002 z m -20.39781,-0.58192 c -0.49707,-1.07031 -0.40066,-1.29375 0.28164,-0.65277 0.3368,0.31641 0.75352,0.57529 0.92604,0.57529 0.17252,0 0.31367,0.1786 0.31367,0.39688 0,0.70518 -1.15847,0.46197 -1.52135,-0.3194 z m 45.44219,-0.20977 c 0,-0.64676 0.11969,-0.92604 0.39687,-0.92604 0.27719,0 0.39688,0.27928 0.39688,0.92604 0,0.64676 -0.11969,0.92604 -0.39688,0.92604 -0.27718,0 -0.39687,-0.27928 -0.39687,-0.92604 z m -74.011912,-0.65303 c -0.519861,-0.4243 -0.542127,-0.52133 -0.187224,-0.81587 0.51029,-0.4235 0.990526,-0.003 0.865801,0.75734 -0.0862,0.52578 -0.10419,0.52733 -0.678577,0.0585 z m 41.468162,-1.74762 c 0,-0.73525 0.0966,-0.92642 0.43466,-0.8599 1.0568,0.20799 1.14777,1.80534 0.10281,1.80534 -0.43997,0 -0.53747,-0.17152 -0.53747,-0.94544 z m -52.850528,-0.81729 c -0.46768,-0.18871 -0.412411,-1.14768 0.06615,-1.14768 0.246944,0 0.396875,0.24988 0.396875,0.66145 0,0.36381 -0.02977,0.65206 -0.06615,0.64057 -0.03638,-0.0115 -0.214974,-0.0809 -0.396875,-0.15434 z m 81.954688,-0.48623 c 0,-0.52916 0.1323,-0.66145 0.66146,-0.66145 0.52917,0 0.66146,0.13229 0.66146,0.66145 0,0.52917 -0.13229,0.66146 -0.66146,0.66146 -0.52916,0 -0.66146,-0.13229 -0.66146,-0.66146 z M 38.255239,70.231052 c -0.514671,-0.51467 -0.369281,-0.74083 0.47625,-0.74083 0.617361,0 0.79375,0.11759 0.79375,0.52917 0,0.59664 -0.758588,0.72307 -1.27,0.21166 z m 103.928341,-1.40229 c 0,-0.52917 0.13229,-0.66146 0.66146,-0.66146 0.3638,0 0.66145,0.10933 0.66145,0.24295 0,0.13361 0.0723,0.43127 0.1606,0.66145 0.12521,0.32629 -0.0206,0.41852 -0.66145,0.41852 -0.70048,0 -0.82206,-0.0978 -0.82206,-0.66146 z m -43.391673,-2.03347 c 0,-0.17252 -0.231279,-0.55986 -0.513952,-0.86075 -0.510249,-0.54314 -0.509409,-0.54922 0.11654,-0.84462 0.538966,-0.25435 0.716292,-0.20622 1.221531,0.33158 0.325071,0.34603 0.465104,0.62914 0.311193,0.62914 -0.153914,0 -0.342116,0.23812 -0.418225,0.52916 -0.148197,0.56671 -0.717087,0.73766 -0.717087,0.21549 z m -50.270834,-1.96017 c 0,-0.68756 0.549416,-0.8529 1.005998,-0.30275 0.205249,0.24731 0.110796,0.41227 -0.364478,0.63656 -0.5851,0.27613 -0.64152,0.24677 -0.64152,-0.33381 z m 9.326562,-1.03004 c -0.327422,-0.14364 -0.595312,-0.47107 -0.595312,-0.7276 0,-0.25654 -0.133641,-0.46643 -0.29698,-0.46643 -0.205187,0 -0.195173,-0.12267 0.0324,-0.39687 0.181158,-0.21828 0.701752,-0.39595 1.156876,-0.39481 0.622666,0.002 0.903204,0.16528 1.133335,0.66146 0.266437,0.57444 0.243245,0.65939 -0.180035,0.65939 -0.267229,0 -0.523918,0.20836 -0.570419,0.46302 -0.06856,0.37549 -0.197085,0.41365 -0.679861,0.20184 z m 24.127928,-0.4685 c -0.449787,-0.4923 0.161844,-1.51476 0.907594,-1.51721 0.510447,-0.002 0.56983,0.0677 0.317882,0.37125 -0.211801,0.25521 -0.222052,0.42757 -0.0324,0.54478 0.152587,0.0943 0.277431,0.34303 0.277431,0.55273 0,0.45644 -1.065673,0.49156 -1.47051,0.0485 z m 40.628847,77.209868 c 0,-0.20969 -0.11906,-0.45484 -0.26458,-0.54478 -0.14552,-0.0899 -0.26459,0.0816 -0.26459,0.38126 0,0.29963 0.11907,0.54478 0.26459,0.54478 0.14552,0 0.26458,-0.17156 0.26458,-0.38126 z m -78.581254,-0.82826 c 0,-0.29202 -0.732567,-0.88013 -0.894544,-0.71816 -0.353302,0.35331 -0.136414,0.86935 0.365377,0.86935 0.291042,0 0.529167,-0.068 0.529167,-0.15119 z m 3.350728,-0.52805 c 0.220519,-0.57467 -0.339312,-1.11509 -0.740027,-0.71438 -0.338675,0.33868 -0.128865,1.12904 0.299716,1.12904 0.154655,0 0.352795,-0.1866 0.440311,-0.41466 z m 2.38125,0 c 0.220519,-0.57467 -0.339312,-1.11509 -0.740027,-0.71438 -0.338675,0.33868 -0.128865,1.12904 0.299716,1.12904 0.154655,0 0.352795,-0.1866 0.440311,-0.41466 z m 6.142023,-0.089 c 0.45826,-0.29026 0.155783,-0.81928 -0.468435,-0.81928 -0.657506,0 -0.869742,0.28541 -0.522957,0.70326 0.342884,0.41315 0.494305,0.43087 0.991392,0.11602 z m 66.707253,0.12238 c 0,-0.0642 -0.11906,-0.19027 -0.26458,-0.2802 -0.14552,-0.0899 -0.26459,-0.0374 -0.26459,0.11667 0,0.15411 0.11907,0.2802 0.26459,0.2802 0.14552,0 0.26458,-0.0525 0.26458,-0.11667 z m -1.5875,-0.94166 c 0,-0.14552 -0.12609,-0.26458 -0.2802,-0.26458 -0.15411,0 -0.20661,0.11906 -0.11667,0.26458 0.0899,0.14552 0.21602,0.26458 0.28019,0.26458 0.0642,0 0.11668,-0.11906 0.11668,-0.26458 z m 0.59321,-2.58394 c 0.43298,-0.38016 0.41879,-0.42654 -0.23409,-0.76526 -0.84785,-0.43988 -1.41745,-0.0839 -1.41745,0.88588 0,0.54822 0.0908,0.61922 0.59531,0.46548 0.32742,-0.0998 0.80273,-0.36353 1.05623,-0.5861 z m -58.057246,-0.65721 c 0.05964,-0.3129 -0.0791,-0.46302 -0.427921,-0.46302 -0.578552,0 -1.205597,0.61009 -0.920285,0.8954 0.33563,0.33563 1.258222,0.0397 1.348206,-0.43238 z M 179.71376,106.90938 c 1.21422,-0.60573 1.06269,-1.06367 -0.35622,-1.07658 -0.65485,-0.006 -1.19063,0.0221 -1.19063,0.0623 0,0.1987 0.52894,1.43051 0.61426,1.43051 0.054,0 0.47367,-0.18731 0.93259,-0.41625 z m -30.38643,-1.85161 c 0,-0.83887 -0.65974,-1.54434 -1.23706,-1.32281 -0.3782,0.14513 -0.36153,0.23747 0.13909,0.77036 0.31284,0.333 0.5688,0.74661 0.5688,0.91914 0,0.17252 0.11906,0.31367 0.26458,0.31367 0.14553,0 0.26459,-0.30616 0.26459,-0.68036 z m -39.95209,-0.37797 c 0,-0.29104 -0.11906,-0.52917 -0.26458,-0.52917 -0.14552,0 -0.26458,0.23813 -0.26458,0.52917 0,0.29104 0.11906,0.52917 0.26458,0.52917 0.14552,0 0.26458,-0.23813 0.26458,-0.52917 z m -27.78125,-2.11667 c 0,-0.14552 -0.119063,-0.26458 -0.264584,-0.26458 -0.14552,0 -0.264583,0.11906 -0.264583,0.26458 0,0.14552 0.119063,0.26459 0.264583,0.26459 0.145521,0 0.264584,-0.11907 0.264584,-0.26459 z m 1.058333,-0.38126 c 0,-0.0642 -0.119062,-0.19026 -0.264583,-0.2802 -0.145521,-0.0899 -0.264584,-0.0374 -0.264584,0.11668 0,0.15411 0.119063,0.2802 0.264584,0.2802 0.145521,0 0.264583,-0.0525 0.264583,-0.11668 z m 20.902087,-0.1479 c 0,-0.14553 -0.11906,-0.26459 -0.26458,-0.26459 -0.14552,0 -0.26459,0.11906 -0.26459,0.26459 0,0.14552 0.11907,0.26458 0.26459,0.26458 0.14552,0 0.26458,-0.11906 0.26458,-0.26458 z M 30.793989,99.959212 c 0,-0.39844 -0.217037,-0.49055 -1.190625,-0.50526 -0.782178,-0.0118 -1.190625,0.0948 -1.190625,0.31087 0,0.534898 0.294293,0.681648 1.367014,0.681648 0.808771,0 1.014236,-0.0987 1.014236,-0.487258 z m 112.712501,-1.10024 c 0,-0.29105 -0.11906,-0.52917 -0.26458,-0.52917 -0.14552,0 -0.26458,0.11906 -0.26458,0.26458 0,0.14552 -0.23813,0.26459 -0.52917,0.26459 -0.29104,0 -0.52917,0.11906 -0.52917,0.26458 0,0.14552 0.35719,0.26458 0.79375,0.26458 0.61737,0 0.79375,-0.11759 0.79375,-0.52916 z m -16.66875,-0.26459 c 0,-0.14552 -0.0525,-0.26458 -0.11667,-0.26458 -0.0642,0 -0.19026,0.11906 -0.2802,0.26458 -0.0899,0.14552 -0.0374,0.26459 0.11668,0.26459 0.15411,0 0.28019,-0.11907 0.28019,-0.26459 z m 0.52917,-1.05833 c 0,-0.14552 -0.17157,-0.26458 -0.38126,-0.26458 -0.20969,0 -0.45484,0.11906 -0.54478,0.26458 -0.0899,0.14552 0.0816,0.26458 0.38126,0.26458 0.29963,0 0.54478,-0.11906 0.54478,-0.26458 z m 7.27604,-1.32292 c 0.0899,-0.14552 0.0374,-0.26458 -0.11667,-0.26458 -0.15411,0 -0.2802,0.11906 -0.2802,0.26458 0,0.14552 0.0525,0.26459 0.11667,0.26459 0.0642,0 0.19027,-0.11907 0.2802,-0.26459 z m 22.35729,0 c 0,-0.14552 -0.41671,-0.26458 -0.92604,-0.26458 -0.50932,0 -0.92604,0.11906 -0.92604,0.26458 0,0.14552 0.41672,0.26459 0.92604,0.26459 0.50933,0 0.92604,-0.11907 0.92604,-0.26459 z M 25.502322,91.186052 c 0,-0.14552 -0.0525,-0.26458 -0.116677,-0.26458 -0.06417,0 -0.190261,0.11906 -0.280198,0.26458 -0.08994,0.14552 -0.03743,0.26458 0.116677,0.26458 0.154109,0 0.280198,-0.11906 0.280198,-0.26458 z"
       id="path7" /></g></svg>
