<?xml version="1.0" encoding="UTF-8" standalone="no"?>
<!-- Created with Inkscape (http://www.inkscape.org/) -->

<svg
   width="93.959404mm"
   height="83.367104mm"
   viewBox="0 0 93.959404 83.367104"
   version="1.1"
   id="svg1"
   xml:space="preserve"
   xmlns="http://www.w3.org/2000/svg"
   xmlns:svg="http://www.w3.org/2000/svg"><defs
     id="defs1" /><g
     id="layer1"
     transform="translate(-56.762608,-99.754926)"><path
       style="fill:#000000"
       d="m 94.346703,163.44682 c -0.198442,-0.23911 -0.37049,-0.26019 -0.56183,-0.0688 -0.352502,0.3525 -3.260532,0.36188 -3.477255,0.0112 -0.08994,-0.14552 -0.85726,-0.26458 -1.705163,-0.26458 -0.852923,0 -1.880205,-0.17657 -2.29949,-0.39524 -0.416816,-0.21739 -0.947754,-0.39598 -1.179861,-0.39688 -0.232108,-9e-4 -0.637514,-0.23975 -0.900903,-0.5308 -0.263389,-0.29104 -0.676286,-0.52916 -0.917548,-0.52916 -0.43331,0 -1.860577,-1.29413 -1.860577,-1.68703 0,-0.30099 -0.713128,-0.95881 -1.039435,-0.95881 -0.155915,0 -0.283482,-0.17859 -0.283482,-0.39687 0,-0.21828 -0.119063,-0.39688 -0.264583,-0.39688 -0.145521,0 -0.264584,-0.23974 -0.264584,-0.53275 0,-0.60347 -0.355444,-1.30169 -1.345104,-2.64225 -0.376005,-0.50932 -0.763559,-1.1457 -0.861231,-1.41418 -0.09767,-0.26848 -0.41511,-0.55025 -0.705417,-0.62617 -0.362659,-0.0948 -0.527831,-0.36115 -0.527831,-0.85103 0,-0.39215 -0.238125,-0.9686 -0.529167,-1.281 -0.291042,-0.31239 -0.529167,-0.79651 -0.529167,-1.07582 0,-0.27931 -0.178593,-0.65606 -0.396875,-0.83721 -0.225171,-0.18688 -0.396875,-0.7637 -0.396875,-1.33327 0,-0.55214 -0.114276,-1.04357 -0.253947,-1.09208 -0.139671,-0.0485 -0.335256,-1.10023 -0.434635,-2.33715 -0.106924,-1.33086 -0.354293,-2.51945 -0.605948,-2.91155 -0.233894,-0.36443 -0.555592,-0.8975 -0.714885,-1.18461 -0.159293,-0.28711 -0.576012,-0.58914 -0.926042,-0.67117 -0.394165,-0.0924 -0.668601,-0.37163 -0.720966,-0.73362 -0.0465,-0.32146 -0.225796,-0.58447 -0.398433,-0.58447 -0.41445,0 -0.884193,-1.16936 -1.060574,-2.64014 -0.07815,-0.65172 -0.268844,-1.22719 -0.423752,-1.27882 -0.154908,-0.0516 -0.281651,-0.49076 -0.281651,-0.97583 0,-0.48507 -0.148828,-0.93652 -0.330729,-1.00321 -0.264584,-0.097 -0.264584,-0.19138 0,-0.47184 0.181901,-0.19282 0.330729,-0.9075 0.330729,-1.58818 0,-0.77731 0.147606,-1.3601 0.396875,-1.56698 0.218281,-0.18116 0.396875,-0.46965 0.396875,-0.64111 0,-0.52773 0.646069,-1.73589 0.929447,-1.73807 0.147394,-10e-4 0.385519,-0.26996 0.529167,-0.59738 0.145902,-0.33256 0.549361,-0.63596 0.91411,-0.68741 0.359113,-0.0507 0.849329,-0.31855 1.089368,-0.59531 0.240039,-0.27677 0.571298,-0.50322 0.73613,-0.50322 0.164832,0 0.299695,-0.14953 0.299695,-0.33229 0,-0.18275 0.386953,-0.49737 0.859896,-0.69914 0.472942,-0.20178 1.118972,-0.6005 1.435621,-0.88606 0.31665,-0.28556 0.695376,-0.44525 0.841614,-0.35487 0.146238,0.0904 0.340673,0.0433 0.432077,-0.10457 0.0914,-0.1479 0.486584,-0.26964 0.878178,-0.27053 0.391594,-9e-4 1.05302,-0.17949 1.469837,-0.39688 0.416816,-0.21738 1.151035,-0.39524 1.631597,-0.39524 0.480562,0 0.916582,-0.1285 0.968932,-0.28555 0.0526,-0.1578 1.098216,-0.35192 2.337153,-0.43391 1.570448,-0.10393 2.452326,-0.29577 2.944272,-0.6405 0.784736,-0.54989 1.429045,-0.63189 1.686889,-0.21469 0.118068,0.19103 0.283048,0.18482 0.529798,-0.02 0.197085,-0.16356 1.105977,-0.35537 2.019761,-0.42624 0.913784,-0.0709 1.800942,-0.24464 1.971463,-0.38616 0.372604,-0.30923 17.032763,-0.29882 17.429153,0.0109 0.14679,0.11469 1.20752,0.27619 2.35719,0.35889 1.14966,0.0827 2.16169,0.24749 2.24895,0.3662 0.3475,0.47272 1.33591,0.83754 2.74677,1.01382 0.92846,0.116 1.65026,0.37042 1.931,0.68064 0.24658,0.27247 0.87847,0.56772 1.40419,0.65612 1.3813,0.23225 2.42273,0.76916 3.41157,1.75882 2.0308,2.03249 2.96826,3.09421 2.96826,3.36172 0,0.15694 0.14882,0.28657 0.33073,0.28809 0.34882,0.003 1.78593,2.8456 1.78593,3.53268 0,0.68801 0.49245,0.77387 4.136,0.72117 l 3.53692,-0.0512 v 0.6754 c 0,0.53214 0.13161,0.6754 0.62045,0.6754 0.58961,0 1.49622,0.71857 1.49622,1.1859 0,0.12 0.56554,0.84242 1.25677,1.60537 0.69122,0.76295 1.4056,1.5731 1.5875,1.80033 0.37576,0.46941 0.45141,2.02299 0.0985,2.02299 -0.12772,0 -0.28426,1.0885 -0.34787,2.4189 -0.10646,2.22677 -0.17208,2.46744 -0.82612,3.03002 -0.47315,0.40698 -0.71046,0.87263 -0.71046,1.39403 0,0.55941 -0.24549,0.98821 -0.8599,1.502 -0.47294,0.39549 -0.92297,0.96389 -1.00006,1.26312 -0.0771,0.29923 -0.46988,0.73038 -0.87287,0.9581 -0.40299,0.22772 -0.87918,0.71169 -1.0582,1.07549 -0.17902,0.36381 -0.64943,0.81679 -1.04536,1.00663 -0.39592,0.18984 -0.71986,0.51726 -0.71986,0.7276 0,0.21034 -0.2311,0.38244 -0.51355,0.38244 -0.28246,0 -0.58136,0.10972 -0.66424,0.24382 -0.0829,0.1341 -0.94939,0.32936 -1.92557,0.4339 -0.97617,0.10454 -2.16917,0.41154 -2.65109,0.68222 -0.96631,0.54274 -1.79887,0.63512 -2.05076,0.22756 -0.0899,-0.14552 -0.68525,-0.26458 -1.32292,-0.26458 -0.63766,0 -1.22731,-0.10991 -1.31033,-0.24423 -0.083,-0.13433 -0.51921,-0.32511 -0.96931,-0.42397 -0.73601,-0.16166 -0.80294,-0.2569 -0.66504,-0.9464 0.1284,-0.64202 0.067,-0.76665 -0.37753,-0.76665 -0.61494,0 -1.00601,0.7544 -0.54027,1.04224 0.23933,0.14792 0.22981,0.26634 -0.0394,0.48973 -0.19526,0.16205 -0.52078,0.71709 -0.72337,1.23342 -0.20259,0.51632 -0.52472,0.93877 -0.71584,0.93877 -0.19112,0 -0.34749,0.21737 -0.34749,0.48305 0,0.26568 -0.29765,0.76268 -0.66146,1.10445 -0.3638,0.34178 -0.66145,0.7608 -0.66145,0.93116 0,0.17036 -0.23813,0.52525 -0.52917,0.78864 -0.29104,0.26338 -0.52917,0.64469 -0.52917,0.84735 0,0.20266 -0.58964,0.95811 -1.31031,1.67879 -0.98612,0.98611 -1.50597,1.31031 -2.10106,1.31031 -0.4349,0 -0.85572,0.10515 -0.93514,0.23366 -0.0794,0.12852 -0.79895,0.31544 -1.59895,0.4154 -0.79999,0.1 -1.52296,0.29246 -1.60661,0.42779 -0.0836,0.13534 -0.53795,0.24607 -1.00958,0.24607 -0.47163,0 -1.00039,0.14288 -1.17501,0.3175 -0.24695,0.24694 -0.3175,0.24694 -0.3175,0 0,-0.36791 -0.97098,-0.43556 -1.10243,-0.0768 -0.0485,0.13238 -2.92505,0.28242 -6.39231,0.33344 -4.946006,0.0728 -6.365725,0.0185 -6.590137,-0.2519 z m 10.909877,-1.34816 c 0,-0.1277 -0.1786,-0.3804 -0.39688,-0.56156 -0.33158,-0.27518 -0.39687,-0.23698 -0.39687,0.23219 0,0.32278 0.16875,0.56156 0.39687,0.56156 0.21828,0 0.39688,-0.10448 0.39688,-0.23219 z m 2.39908,-0.18617 c 0.27652,-0.33319 0.28129,-0.5239 0.0234,-0.9368 -0.41511,-0.6647 -0.18452,-1.02609 0.65471,-1.02609 0.68441,0 1.42069,0.53869 1.42069,1.03943 0,0.15592 0.19705,0.28349 0.43788,0.28349 0.39214,0 0.39634,-0.0484 0.0402,-0.46302 -0.21871,-0.25467 -0.47156,-0.67138 -0.56187,-0.92605 -0.0903,-0.25466 -0.32808,-0.46302 -0.52837,-0.46302 -0.2003,0 -0.5596,-0.21593 -0.79845,-0.47986 -0.53069,-0.58641 -0.0686,-1.30215 0.52343,-0.81079 0.48955,0.4063 2.08813,0.39832 2.5836,-0.0129 0.52534,-0.43599 0.55842,-1.60688 0.0454,-1.60688 -0.20615,0 -0.44428,-0.14883 -0.52916,-0.33073 -0.12348,-0.26459 -0.18521,-0.26459 -0.30868,0 -0.18346,0.39312 -0.904,0.44584 -0.904,0.0661 0,-0.14552 -0.29765,-0.26458 -0.66146,-0.26458 -0.74863,0 -0.87881,-0.54856 -0.25337,-1.06764 0.30911,-0.25653 0.48239,-0.26439 0.71438,-0.0324 0.16846,0.16846 1.05638,0.30629 1.97316,0.30629 1.32046,0 1.66688,-0.0842 1.66688,-0.40518 0,-0.22285 0.20836,-0.48003 0.46302,-0.57153 0.57432,-0.20633 1.38906,-1.02366 1.38906,-1.39348 0,-0.1516 0.29766,-0.27564 0.66146,-0.27564 0.41157,0 0.66146,0.14993 0.66146,0.39687 0,0.21828 0.17859,0.39688 0.39687,0.39688 0.22505,0 0.39688,-0.23729 0.39688,-0.54807 0,-0.75845 0.62922,-1.36271 1.01613,-0.9758 0.21587,0.21587 0.21362,0.39128 -0.008,0.65887 -0.23489,0.28304 -0.17425,0.49309 0.27088,0.93822 l 0.57354,0.57354 v -0.59156 c 0,-0.32535 0.13785,-0.81229 0.30634,-1.08208 0.40418,-0.64719 0.1104,-1.35437 -0.56262,-1.35437 -0.36108,0 -0.53747,-0.17367 -0.53747,-0.52917 0,-0.6233 0.58966,-0.69701 1.05833,-0.13229 0.58552,0.70551 1.05834,0.4691 1.05834,-0.52917 v -0.92604 h -1.30731 c -0.71901,0 -1.38088,0.11906 -1.47082,0.26458 -0.0899,0.14552 -0.51368,0.26459 -0.94166,0.26459 -0.6882,0 -0.77813,0.0917 -0.77813,0.79375 0,0.76279 -0.0458,0.79375 -1.17501,0.79375 -0.64626,0 -1.23369,0.0949 -1.3054,0.21097 -0.15975,0.25849 -1.18458,0.22032 -1.83685,-0.0684 -0.28722,-0.12714 -0.60149,-0.0922 -0.78053,0.0869 -0.16484,0.16484 -0.65584,0.29971 -1.09111,0.29971 -0.75267,0 -0.76627,-0.019 -0.27782,-0.38846 0.33889,-0.25632 1.16611,-0.39132 2.43182,-0.39687 1.3109,-0.006 1.91823,-0.10894 1.91823,-0.32592 0,-0.24337 0.0727,-0.24484 0.31121,-0.006 0.22725,0.22725 0.40568,0.23279 0.66146,0.0205 0.40794,-0.33856 0.47488,-1.54881 0.0857,-1.54881 -0.14552,0 -0.26459,-0.17859 -0.26459,-0.39687 0,-0.48091 0.30921,-0.51101 0.74744,-0.0728 0.24732,0.24733 0.43986,0.25182 0.81271,0.019 0.36279,-0.22657 0.56549,-0.22827 0.78715,-0.007 0.22166,0.22166 0.29854,0.21678 0.29854,-0.019 0,-0.17462 0.15784,-0.3175 0.35075,-0.3175 0.19292,0 0.63039,-0.29766 0.97216,-0.66146 l 0.62141,-0.66146 h -0.70758 c -0.63227,0 -0.70758,-0.0985 -0.70758,-0.92604 0,-0.50932 -0.11906,-0.92604 -0.26458,-0.92604 -0.14552,0 -0.26458,0.13364 -0.26458,0.29698 0,0.20616 -0.12048,0.197 -0.39397,-0.03 -0.4749,-0.39414 -0.28444,-0.79617 0.37718,-0.79617 0.26464,0 0.62938,-0.17859 0.81054,-0.39687 0.19809,-0.23869 0.76464,-0.39352 1.42146,-0.38846 1.15993,0.009 1.16715,-0.0135 -0.33386,1.03943 l -0.5508,0.38638 0.66587,0.69502 c 0.42063,0.43904 0.60369,0.85704 0.49704,1.13497 -0.18073,0.47096 0.27636,0.61691 0.54924,0.17537 0.0899,-0.14552 0.62572,-0.26459 1.19063,-0.26459 0.56491,0 1.10069,-0.11906 1.19062,-0.26458 0.35837,-0.57984 1.10053,-0.2425 1.45521,0.66146 0.19985,0.50932 0.46019,0.92604 0.57855,0.92604 0.11836,0 0.2152,0.15784 0.2152,0.35075 0,0.72551 1.18359,1.43892 2.68523,1.61854 1.23385,0.14758 1.52235,0.27989 1.65366,0.75839 0.15821,0.5765 0.16091,0.57606 0.50303,-0.0819 0.28762,-0.5531 0.526,-0.65771 1.45519,-0.63862 0.89699,0.0184 1.11123,-0.0678 1.11123,-0.4474 0,-0.63307 0.46652,-0.88284 0.9302,-0.49803 0.32509,0.26981 0.31424,0.40113 -0.0777,0.94051 -0.25057,0.3448 -0.60442,0.63066 -0.78632,0.63523 -0.37951,0.01 -0.45982,0.53748 -0.0818,0.53748 0.13693,0 0.32255,-0.11906 0.41249,-0.26458 0.0899,-0.14552 0.44054,-0.26459 0.77912,-0.26459 0.33858,0 0.92874,-0.16246 1.31147,-0.36102 0.60541,-0.31409 0.64374,-0.40428 0.29483,-0.69385 -0.57632,-0.47831 -0.52372,-1.59096 0.0752,-1.59096 0.26193,0 0.62122,0.14498 0.79842,0.32217 0.25317,0.25317 0.55877,0.0856 1.42693,-0.7826 1.08752,-1.08751 1.09709,-1.11324 0.61327,-1.64785 -0.48069,-0.53116 -0.47789,-0.55757 0.12731,-1.20178 0.34035,-0.36228 0.82915,-0.65869 1.08624,-0.65869 0.60567,0 0.90526,-0.49299 0.52852,-0.86972 -0.44662,-0.44662 -0.37108,-1.77611 0.10093,-1.77611 0.33178,0 0.37961,-0.44434 0.2974,-2.76279 -0.0861,-2.42877 -0.1739,-2.85741 -0.72609,-3.54545 -0.82592,-1.02908 -2.60332,-2.00887 -2.97322,-1.63898 -0.46749,0.46749 -0.96211,0.30283 -0.96428,-0.32101 -0.003,-0.84045 -1.07264,-1.25677 -3.22927,-1.25677 -0.99161,0 -2.03646,-0.14585 -2.3219,-0.32411 -0.40952,-0.25575 -0.58733,-0.25575 -0.84308,0 -0.17825,0.17826 -0.76951,0.32411 -1.3139,0.32411 -0.54439,0 -1.06696,0.12484 -1.16127,0.27743 -0.11721,0.18965 -0.28957,0.1794 -0.54478,-0.0324 -0.42938,-0.35635 -0.50081,-1.03878 -0.10873,-1.03878 0.14552,0 0.26458,-0.16586 0.26458,-0.36857 0,-0.20271 0.17859,-0.4371 0.39687,-0.52086 0.22961,-0.0881 0.39688,-0.48376 0.39688,-0.93874 0,-0.43254 0.12781,-0.86542 0.28402,-0.96197 0.17765,-0.10979 0.0786,-0.31943 -0.26459,-0.55978 -0.30173,-0.21134 -0.5486,-0.6518 -0.5486,-0.97881 0,-0.70087 -1.35933,-2.05961 -2.57968,-2.57854 -0.55907,-0.23773 -0.86154,-0.55133 -0.86457,-0.89638 -0.004,-0.46437 -1.05341,-1.15336 -2.95736,-1.94184 -0.11714,-0.0485 -0.21297,0.10032 -0.21297,0.33073 0,0.23041 -0.21431,0.41892 -0.47625,0.41892 -0.26194,0 -0.61913,0.14288 -0.79375,0.3175 -0.24694,0.24695 -0.3175,0.12751 -0.3175,-0.53747 0,-0.58327 -0.14714,-0.9005 -0.46302,-0.99827 -0.25466,-0.0788 -0.66977,-0.25367 -0.92245,-0.38857 -0.25269,-0.1349 -0.72894,-0.246 -1.05834,-0.2469 -0.32939,-9e-4 -0.93993,-0.17949 -1.35675,-0.39687 -0.41681,-0.21739 -1.13714,-0.39525 -1.60073,-0.39525 -0.46358,0 -0.95599,-0.10603 -1.09423,-0.23563 -0.13825,-0.12959 -2.49422,-0.28828 -5.23549,-0.35265 -3.91458,-0.0919 -5.03594,-0.19748 -5.22552,-0.49197 -0.16962,-0.26347 -0.30039,-0.28738 -0.43983,-0.0804 -0.11883,0.17639 -1.684326,0.37053 -3.902599,0.48395 -2.037291,0.10418 -3.817276,0.29906 -3.955521,0.43306 -0.138244,0.13401 -0.525198,0.24365 -0.859896,0.24365 -0.458611,0 -0.608541,0.14993 -0.608541,0.60854 0,0.67329 -0.448925,1.24354 -0.978959,1.24354 -0.1905,0 -0.343958,-0.29511 -0.343958,-0.66145 0,-0.41158 0.149931,-0.66146 0.396875,-0.66146 0.218281,0 0.396875,-0.11906 0.396875,-0.26459 0,-0.32664 -0.972876,-0.35232 -1.171514,-0.0309 -0.07943,0.12851 -0.800827,0.31568 -1.603114,0.41592 -0.802288,0.10023 -1.458705,0.29274 -1.458705,0.42779 0,0.13505 -0.714375,0.24555 -1.587501,0.24555 -0.873125,0 -1.5875,0.1034 -1.5875,0.22979 0,0.12638 -0.863203,0.28526 -1.918229,0.35307 -1.055026,0.0678 -2.156354,0.25248 -2.447396,0.41039 -0.291041,0.1579 -1.146942,0.56457 -1.902,0.9037 -0.755059,0.33912 -1.424368,0.80906 -1.487353,1.04431 -0.06299,0.23525 -0.798425,0.75126 -1.634309,1.1467 -0.883524,0.41797 -1.575291,0.93121 -1.65236,1.22592 -0.07291,0.27882 -0.297278,0.50695 -0.498587,0.50695 -0.201309,0 -0.366016,0.16014 -0.366016,0.35587 0,0.19573 -0.232886,0.56663 -0.517524,0.82422 -0.284639,0.25759 -0.595814,0.99042 -0.6915,1.62851 -0.09569,0.63808 -0.27952,1.16015 -0.408518,1.16015 -0.128998,0 -0.234541,0.41672 -0.234541,0.92604 0,0.79956 0.08621,0.92604 0.631214,0.92604 0.347168,0 0.938066,0.1592 1.313106,0.35377 0.51828,0.26889 0.608065,0.4276 0.374202,0.66146 -0.169229,0.16923 -0.522002,0.30769 -0.783939,0.30769 -0.261938,0 -0.47625,0.11906 -0.47625,0.26458 0,0.14553 0.178594,0.26459 0.396875,0.26459 0.218281,0 0.396875,0.17859 0.396875,0.39687 0,0.21828 0.193172,0.39688 0.429272,0.39688 0.339538,0 0.364506,0.078 0.119444,0.37332 -0.211802,0.2552 -0.222052,0.42757 -0.0324,0.54478 0.152587,0.0943 0.277431,0.50774 0.277431,0.91874 0,0.53367 0.156871,0.7883 0.548802,0.89079 0.301841,0.0789 0.613384,0.39047 0.692317,0.69232 0.165219,0.63179 0.610964,0.74263 0.610964,0.15192 0,-0.60215 0.663746,-0.47538 1.361292,0.26001 0.342696,0.36129 0.771912,0.65895 0.953813,0.66146 0.181901,0.003 0.330729,0.18317 0.330729,0.40145 0,0.21828 0.178594,0.39687 0.396875,0.39687 0.218281,0 0.396875,0.11907 0.396875,0.26459 0,0.14552 0.119062,0.26458 0.264583,0.26458 0.145521,0 0.264584,-0.29766 0.264584,-0.66146 0,-0.3638 0.148828,-0.66053 0.330729,-0.65939 0.405184,0.003 0.992187,1.20652 0.992187,2.03506 0,0.4729 0.147577,0.60871 0.661459,0.60871 0.363802,0 0.661458,-0.11907 0.661458,-0.26459 0,-0.14552 -0.107861,-0.26458 -0.23969,-0.26458 -0.13183,0 -0.106274,-0.2827 0.05679,-0.62823 0.251464,-0.53285 0.376693,-0.58307 0.824772,-0.33073 1.782743,1.00394 1.609465,1.80406 -0.458075,2.11518 -1.515654,0.22806 -1.768386,0.52198 -0.912877,1.06162 0.304862,0.1923 0.622718,0.16815 1.091919,-0.083 0.561841,-0.30068 0.720668,-0.29542 1.050917,0.0348 0.534474,0.53447 0.638662,1.63573 0.204273,2.15913 -0.247704,0.29847 -0.276845,0.53677 -0.09348,0.76439 0.146535,0.1819 0.349168,0.71768 0.450294,1.19062 0.101127,0.47295 0.345974,0.8599 0.544104,0.8599 0.198131,0 0.437046,0.12428 0.530922,0.27617 0.264725,0.42834 -0.39693,1.04675 -1.119941,1.04675 -0.781917,0 -0.700737,0.5439 0.137708,0.92263 0.318007,0.14365 0.578195,0.38927 0.578195,0.54581 0,0.15655 0.362823,0.63224 0.806273,1.0571 0.620618,0.59459 0.856382,0.69138 1.023892,0.42034 0.337792,-0.54656 1.201408,-0.24072 1.301091,0.46077 0.131077,0.92243 -0.276989,1.16833 -1.167854,0.70376 -1.078496,-0.56241 -1.434235,-0.50677 -1.434235,0.22435 0,0.41561 0.187107,0.67953 0.548802,0.77412 0.301841,0.0789 0.613384,0.39047 0.692317,0.69231 0.148516,0.56793 0.875548,0.77704 0.875548,0.25183 0,-0.19665 0.143346,-0.17802 0.424313,0.0552 0.305467,0.25351 0.386626,0.63312 0.28976,1.35531 -0.128775,0.96008 -0.101832,1.00316 0.627406,1.00316 0.702266,0 0.749756,-0.061 0.606192,-0.77883 l -0.155767,-0.77883 1.337536,0.0104 c 1.257971,0.01 1.347576,0.0561 1.50632,0.77883 0.128191,0.58365 0.319058,0.76847 0.793606,0.76847 0.343652,0 0.698406,0.11907 0.788342,0.26459 0.260654,0.42174 0.926042,0.30608 0.926042,-0.16098 0,-0.59885 1.250547,-0.26043 2.131145,0.57672 0.755949,0.71866 1.616516,0.83092 2.080835,0.27144 0.236528,-0.28499 0.228695,-0.40314 -0.03375,-0.50902 -0.236287,-0.0953 -0.254154,-0.20534 -0.05789,-0.35646 0.156135,-0.12022 0.360758,-0.42694 0.454717,-0.6816 0.315976,-0.8564 0.697074,-0.47289 0.876863,0.88243 0.170398,1.28452 0.850074,2.10584 1.106384,1.33694 0.140465,-0.42141 0.850025,0.12726 0.850025,0.6573 0,0.49845 0.7799,0.45902 1.36326,-0.0689 0.40872,-0.36988 0.54285,-0.38031 0.91534,-0.0712 0.38283,0.31772 0.54288,0.23909 1.30289,-0.64011 0.50748,-0.58708 0.93807,-0.88643 1.03934,-0.72258 0.32846,0.53146 0.67084,0.2771 0.67084,-0.49838 0,-0.9527 0.24973,-1.13888 0.89488,-0.66714 0.41444,0.30305 0.46212,0.56052 0.30187,1.63019 -0.10467,0.69866 -0.31504,1.34758 -0.4675,1.44203 -0.31362,0.1943 -0.0802,1.01889 0.28838,1.01889 0.13227,0 0.39673,-0.18826 0.5877,-0.41836 z m -6.05033,-3.07414 c -0.52504,-0.52503 -0.3607,-1.00542 0.34395,-1.00542 0.52917,0 0.66146,0.1323 0.66146,0.66146 0,0.70465 -0.48038,0.86899 -1.00541,0.34396 z m -2.113359,-1.31961 c -0.427589,-0.42758 -0.410753,-1.53789 0.0233,-1.53789 0.581819,0 1.768289,0.64423 1.770469,0.96133 10e-4,0.16493 -0.20629,0.37336 -0.46096,0.46319 -0.25466,0.0898 -0.58654,0.22426 -0.73752,0.29875 -0.150979,0.0745 -0.418869,-0.009 -0.595309,-0.18538 z m -8.258312,-1.4056 c -0.138317,-0.3638 -0.433026,-0.66146 -0.654909,-0.66146 -0.27186,0 -0.403424,-0.25885 -0.403424,-0.79375 0,-1.00061 0.486163,-1.02438 1.352793,-0.0661 1.322279,1.46205 1.430562,1.66913 1.011444,1.93434 -0.640869,0.40553 -1.043064,0.27833 -1.305904,-0.41299 z m 19.314581,-1.85208 c 0,-0.21828 0.16402,-0.39688 0.36448,-0.39688 0.20046,0 0.5127,0.1786 0.69386,0.39688 0.27853,0.33562 0.22228,0.39687 -0.36448,0.39687 -0.44037,0 -0.69386,-0.14499 -0.69386,-0.39687 z m -24.165275,-1.89618 c -0.09701,-0.097 -0.176389,-0.39467 -0.176389,-0.66146 0,-0.53637 1.157766,-0.70176 1.462371,-0.2089 0.352065,0.56966 -0.804154,1.35219 -1.285982,0.87036 z m -2.195236,-1.47726 c 0.08775,-0.32742 0.161164,-0.68461 0.163151,-0.79375 0.0054,-0.29672 1.005384,-0.23942 1.195701,0.0685 0.337379,0.5459 -0.157668,1.32055 -0.843902,1.32055 -0.57035,0 -0.649856,-0.0919 -0.51495,-0.59531 z m 2.548014,-1.12448 c 0,-0.21828 -0.133642,-0.39687 -0.296981,-0.39687 -0.214941,0 -0.212254,-0.10209 0.0097,-0.36956 0.395425,-0.47646 1.428959,-0.22934 1.228258,0.29368 -0.08099,0.21106 -0.147255,0.49306 -0.147255,0.62668 0,0.13362 -0.178594,0.24295 -0.396875,0.24295 -0.218282,0 -0.396875,-0.1786 -0.396875,-0.39688 z m 41.010417,-1.96841 c -0.21828,-0.11963 -0.8661,-0.44216 -1.4396,-0.71674 -0.76003,-0.36388 -1.10064,-0.72269 -1.25631,-1.32345 -0.12685,-0.48953 -0.42865,-0.88047 -0.74321,-0.96273 -0.30002,-0.0785 -0.52963,-0.36087 -0.52963,-0.65143 0,-0.28211 -0.23981,-0.72996 -0.53291,-0.99521 -0.33004,-0.29868 -0.47433,-0.66681 -0.37904,-0.96704 0.0939,-0.29592 0.0232,-0.48478 -0.18147,-0.48478 -0.26081,0 -0.26477,-0.0705 -0.0178,-0.3175 0.41157,-0.41157 0.41253,-1.79917 0.001,-1.79917 -0.17394,0 -0.64114,0.31127 -1.03822,0.6917 -0.52284,0.50091 -1.07416,0.72008 -1.99886,0.79462 -0.70228,0.0566 -1.12805,0.0331 -0.94615,-0.0523 0.48297,-0.22666 0.4201,-0.99578 -0.0661,-0.80919 -0.28423,0.10907 -0.39687,-0.0263 -0.39687,-0.47711 0,-0.59921 0.10888,-0.63847 2.26994,-0.81848 2.33738,-0.19471 2.88973,-0.51626 2.23727,-1.30244 -0.17298,-0.20842 -0.27559,-0.65338 -0.22804,-0.98882 0.0722,-0.50923 0.28293,-0.6317 1.27708,-0.74216 1.01113,-0.11235 1.20421,-0.22841 1.28071,-0.76984 0.0556,-0.3935 -0.0798,-0.73263 -0.35379,-0.88595 -0.38814,-0.21721 -0.35413,-0.29496 0.27089,-0.61922 0.99719,-0.51735 1.36058,-0.4647 1.54945,0.22449 0.13241,0.48317 0.20974,0.52285 0.41053,0.21066 0.20989,-0.32636 0.34751,-0.33106 0.9082,-0.031 0.75782,0.40558 1.49026,0.22382 1.49026,-0.36981 0,-0.5164 0.008,-0.5153 1.29733,0.17276 0.59563,0.31793 1.2311,0.9131 1.4125,1.32292 0.3572,0.80697 0.72975,0.98468 0.72975,0.3481 0,-0.21828 -0.11906,-0.39687 -0.26458,-0.39687 -0.14552,0 -0.26458,-0.29766 -0.26458,-0.66146 0,-0.83095 0.66213,-0.87835 0.92388,-0.0661 0.10552,0.32743 0.17551,0.73634 0.15554,0.90869 -0.0206,0.17756 0.47264,0.3897 1.13798,0.48947 0.83851,0.12575 1.2117,0.31914 1.30511,0.67632 0.11994,0.45866 0.19177,0.46858 0.86465,0.11949 0.65639,-0.34054 0.76988,-0.3333 1.07534,0.0686 0.53191,0.69993 0.41978,1.11083 -0.30313,1.11083 -0.40698,0 -0.66146,0.15034 -0.66146,0.39078 0,0.21492 0.29766,0.5858 0.66146,0.82418 0.4533,0.29701 0.66146,0.67433 0.66146,1.19896 0,0.69339 -0.0488,0.73512 -0.51713,0.44261 -0.69822,-0.43604 -0.99877,-0.0687 -0.44471,0.5435 0.39811,0.43991 0.40267,0.52882 0.0425,0.82776 -0.22195,0.18421 -0.40355,0.48505 -0.40355,0.66854 0,0.18349 -0.22549,0.39259 -0.50109,0.46466 -0.29664,0.0776 -0.5751,0.46799 -0.68248,0.9569 -0.0998,0.45422 -0.32076,0.82964 -0.49109,0.83426 -0.17034,0.005 -0.71959,0.42025 -1.22055,0.92361 -0.50921,0.51165 -1.298,0.98784 -1.78886,1.07993 -0.48291,0.0906 -0.94326,0.27028 -1.02301,0.3993 -0.0797,0.12903 -0.60718,0.23459 -1.17208,0.23459 -0.56491,0 -1.10069,0.11907 -1.19063,0.26459 -0.19151,0.30987 -0.3837,0.31318 -0.92604,0.016 z m 1.85415,-1.27273 c 0.003,-0.24862 1.29339,-0.8599 1.81579,-0.8599 0.50455,0 1.35714,-0.77374 1.35714,-1.23163 0,-0.19573 0.1786,-0.35587 0.39688,-0.35587 0.21828,0 0.39687,-0.16014 0.39687,-0.35587 0,-0.19572 0.23813,-0.57137 0.52917,-0.83475 0.68346,-0.61853 0.66684,-1.0936 -0.0906,-2.58976 -0.46941,-0.92721 -0.69408,-1.14992 -0.92604,-0.91796 -0.23195,0.23196 -0.38329,0.22923 -0.62376,-0.0112 -0.17462,-0.17463 -0.9857,-0.3175 -1.80238,-0.3175 -1.64683,0 -3.70095,0.8111 -3.70095,1.46138 0,0.21489 -0.11906,0.3907 -0.26458,0.3907 -0.14552,0 -0.26459,0.15784 -0.26459,0.35076 0,0.19291 -0.29765,0.63038 -0.66146,0.97216 -0.3638,0.34177 -0.66145,0.80134 -0.66145,1.02125 0,0.50446 1.03514,1.62458 1.50133,1.62458 0.19291,0 0.35075,0.26942 0.35075,0.59872 0,0.35714 0.2402,0.71768 0.59531,0.89355 0.69396,0.3437 2.04958,0.45028 2.05259,0.16138 z m -46.039568,0.0661 c 0,-0.21828 0.109325,-0.39687 0.242944,-0.39687 0.133619,0 0.431275,-0.0723 0.661459,-0.1606 0.300024,-0.11513 0.418514,-0.003 0.418514,0.39687 0,0.41825 -0.165193,0.55748 -0.661458,0.55748 -0.411574,0 -0.661459,-0.14993 -0.661459,-0.39688 z m 2.381251,-0.66146 c 0,-0.14552 0.119062,-0.26458 0.264583,-0.26458 0.145521,0 0.264583,0.11906 0.264583,0.26458 0,0.14552 -0.119062,0.26459 -0.264583,0.26459 -0.145521,0 -0.264583,-0.11907 -0.264583,-0.26459 z m 34.924997,-0.67986 c 0,-0.27578 0.19301,-0.38687 0.57459,-0.33073 0.84706,0.12465 0.93778,0.74601 0.10892,0.74601 -0.44463,0 -0.68351,-0.14513 -0.68351,-0.41528 z m -37.290951,-1.02365 c -0.630112,-0.67072 -0.547689,-1.2069 0.185527,-1.2069 0.337693,0 0.363621,-0.0706 0.116676,-0.3175 -0.712051,-0.71205 -0.05754,-2.68947 0.729244,-2.20321 0.363858,0.22488 0.355516,1.80636 -0.01146,2.17334 -0.207127,0.20713 -0.207127,0.3374 0,0.46541 0.398733,0.24643 0.360241,1.07982 -0.06622,1.43376 -0.270245,0.22428 -0.495609,0.14279 -0.953762,-0.3449 z m 3.68887,-0.41315 c 0,-0.14552 0.364214,-0.26459 0.809365,-0.26459 0.472202,0 0.741246,0.11022 0.645844,0.26459 -0.08994,0.14552 -0.454151,0.26458 -0.809365,0.26458 -0.355214,0 -0.645844,-0.11906 -0.645844,-0.26458 z m 29.157081,-0.0529 c -0.46646,-0.46646 -0.38806,-0.74083 0.21167,-0.74083 0.35278,0 0.52917,0.17639 0.52917,0.52916 0,0.59974 -0.27438,0.67813 -0.74084,0.21167 z m -25.656037,-0.62467 c -0.882251,-0.44395 -0.966132,-0.58975 -0.595933,-1.03581 0.486002,-0.5856 1.153489,-0.49078 1.478031,0.20996 0.382021,0.82484 -0.06059,1.23923 -0.882098,0.82585 z m 8.405208,-0.77762 c 0,-0.7843 0.28452,-0.84116 0.885609,-0.17697 0.48463,0.53551 0.33992,0.83843 -0.400539,0.83843 -0.34102,0 -0.48507,-0.19644 -0.48507,-0.66146 z m 5.609169,0.0794 c -0.56474,-0.56473 -0.35599,-1.00541 0.47625,-1.00541 0.47489,0 0.79375,0.13817 0.79375,0.34396 0,0.35191 -0.50842,0.97895 -0.79375,0.97895 -0.0873,0 -0.30163,-0.14287 -0.47625,-0.3175 z m 15.47446,-0.45189 c 0.10274,-0.39286 0.34699,-0.54746 0.8415,-0.53263 0.40742,0.0122 0.53194,0.0815 0.29987,0.16681 -0.21828,0.0803 -0.59695,0.31995 -0.84149,0.53263 -0.40033,0.34818 -0.4302,0.33157 -0.29988,-0.16681 z m -8.59804,-0.75196 c 0.0755,-0.91213 0.14342,-0.98781 0.84189,-0.93797 1.03193,0.0736 1.16695,0.28019 0.49212,0.75286 -0.32724,0.22921 -0.50485,0.56329 -0.41875,0.78766 0.10332,0.26927 -0.0276,0.38964 -0.42393,0.38964 -0.50086,0 -0.56305,-0.1256 -0.49133,-0.99219 z m 3.91858,-0.84232 c 0,-0.72899 0.0823,-0.81133 0.81132,-0.81133 0.72899,0 0.80283,0.0738 0.7276,0.72761 -0.0657,0.57149 -0.23983,0.74557 -0.81132,0.81132 -0.65376,0.0752 -0.7276,0.001 -0.7276,-0.7276 z m -38.61439,-2.01768 c 0.349903,-0.37246 0.678236,-0.55105 0.729627,-0.39688 0.05139,0.15417 0.262111,0.28032 0.468265,0.28032 0.206155,0 0.374827,0.17859 0.374827,0.39687 0,0.2894 -0.299106,0.39688 -1.104454,0.39688 h -1.104454 z m 13.222108,-0.0411 c -1.103057,-0.0564 -2.060161,-0.23612 -2.165605,-0.40673 -0.139941,-0.22643 -0.369224,-0.20926 -0.883946,0.0662 -0.550878,0.29482 -0.800593,0.30601 -1.204242,0.0539 -0.280087,-0.17492 -0.980088,-0.31803 -1.555558,-0.31803 -0.575469,0 -1.111741,-0.10587 -1.191715,-0.23527 -0.07997,-0.1294 -0.473953,-0.31727 -0.875511,-0.41749 -0.401557,-0.10022 -0.950423,-0.3813 -1.219702,-0.62462 -0.269279,-0.24333 -1.102716,-0.56147 -1.852083,-0.70699 -1.012246,-0.19657 -1.429624,-0.41762 -1.623663,-0.8599 -0.143648,-0.32742 -0.390784,-0.59531 -0.549192,-0.59531 -0.345822,0 -1.438589,-1.12093 -1.438589,-1.47567 0,-0.13801 -0.267891,-0.36847 -0.595312,-0.51211 -0.734699,-0.32233 -1.02565,-1.98097 -0.347493,-1.98097 0.227501,0 0.413638,-0.11906 0.413638,-0.26459 0,-0.14552 0.416719,-0.26458 0.926042,-0.26458 0.811389,0 0.926042,-0.0819 0.926042,-0.66146 0,-0.54806 0.127,-0.66146 0.740833,-0.66146 0.407459,0 0.873334,-0.1325 1.03528,-0.29444 0.352117,-0.35212 0.86972,-0.0907 0.86972,0.43933 0,0.5012 -0.820761,1.44261 -1.25773,1.44261 -0.532671,0 -0.692207,0.7337 -0.254674,1.17123 0.43922,0.43922 0.718654,0.28737 0.718654,-0.39052 0,-0.68643 2.556392,-1.83904 4.078842,-1.83904 1.205333,0 1.245113,0.0249 1.164254,0.72761 -0.06626,0.57587 -0.238791,0.74538 -0.827325,0.81286 -0.408982,0.0469 -0.910801,-0.0535 -1.115153,-0.22309 -0.29005,-0.24072 -0.53835,-0.18959 -1.131978,0.23311 -0.418236,0.29781 -0.913261,0.72563 -1.100056,0.9507 -0.294375,0.3547 -0.227174,0.40923 0.504349,0.40923 0.753064,0 0.824266,0.0641 0.660991,0.59531 l -0.182985,0.59531 0.679558,-0.62756 c 0.57966,-0.53531 0.970976,-0.63263 2.661943,-0.66205 1.755894,-0.0306 2.06743,-0.11461 2.726744,-0.73577 0.409397,-0.38571 0.982483,-0.74694 1.273525,-0.80274 0.409051,-0.0784 0.520311,-0.29447 0.490154,-0.95177 -0.03536,-0.77069 0.03277,-0.85032 0.727604,-0.85032 0.641336,0 0.766617,0.1081 0.766617,0.66146 0,0.3638 -0.106557,0.66146 -0.236793,0.66146 -0.130236,0 -0.28221,0.47625 -0.337721,1.05833 l -0.100928,1.05834 h 2.983554 2.983555 V 131.11 c 0,-0.65187 0.108773,-0.79375 0.608542,-0.79375 0.722564,0 1.243541,0.45784 1.243541,1.09285 0,0.27336 0.239872,0.49191 0.595313,0.54239 0.456274,0.0648 0.614676,0.28538 0.678222,0.94445 0.07241,0.75096 0.0037,0.85989 -0.542396,0.85989 -0.791108,0 -1.260305,-0.46296 -1.260305,-1.24354 0,-0.6168 -0.616008,-0.8456 -0.926042,-0.34396 -0.08994,0.14552 -0.668464,0.26458 -1.285615,0.26458 -0.617151,0 -1.235203,0.11259 -1.373448,0.25019 -0.138244,0.13761 -1.322916,0.27821 -2.632604,0.31246 -1.795462,0.047 -2.46054,0.16439 -2.703565,0.47741 -0.483471,0.62273 -0.408333,0.81203 0.322315,0.81203 0.363802,0 0.661458,-0.11906 0.661458,-0.26459 0,-0.14552 0.667582,-0.26458 1.483516,-0.26458 1.15168,0 1.452218,0.0816 1.343593,0.36464 -0.160341,0.41784 0.289527,0.95828 0.797683,0.95828 0.189177,0 0.343958,-0.16402 0.343958,-0.36448 0,-0.6684 0.77411,-1.09799 1.340812,-0.74408 0.652742,0.40764 1.229714,0.40099 1.380696,-0.0159 0.09582,-0.26458 0.231801,-0.26458 0.679917,0 0.30808,0.1819 0.844839,0.33073 1.192797,0.33073 0.688646,0 1.598941,0.78662 0.92828,0.80216 -0.272688,0.006 -0.255497,0.0903 0.06903,0.33733 0.237684,0.1809 0.476827,0.56407 0.531429,0.85148 0.112983,0.59472 1.43084,0.87981 1.89969,0.41096 0.15689,-0.1569 0.79723,-0.28527 1.42297,-0.28527 1.22314,0 1.48546,-0.4082 0.74084,-1.15282 -0.57108,-0.57108 -0.48883,-0.96384 0.20184,-0.96384 0.35958,0 0.70304,0.23094 0.8599,0.57819 0.14364,0.31801 0.61836,0.69305 1.05492,0.83343 0.43657,0.14037 0.86755,0.36815 0.95775,0.50617 0.34,0.52026 1.15502,0.0591 1.29088,-0.7304 0.0973,-0.56521 0.30521,-0.81461 0.72964,-0.87507 0.32648,-0.0465 0.59361,0.023 0.59361,0.15435 0,0.13138 0.38034,0.23888 0.8452,0.23888 0.46485,0 0.89149,0.13891 0.94809,0.30868 0.0593,0.17796 0.64009,0.30868 1.37136,0.30868 1.51152,0 2.15644,-0.5268 1.64583,-1.3444 -0.28094,-0.44985 -0.24145,-0.50768 0.34665,-0.50768 0.36504,0 0.6637,-0.11906 0.6637,-0.26458 0,-0.14552 -0.17859,-0.26459 -0.39687,-0.26459 -0.24695,0 -0.39688,-0.24988 -0.39688,-0.66145 0,-0.73238 0.48472,-0.85894 1.31171,-0.34248 0.414,0.25855 0.6013,0.23866 0.9886,-0.10497 0.2628,-0.23318 0.71594,-0.46724 1.00698,-0.52013 0.30756,-0.0559 0.56458,-0.34435 0.61372,-0.68877 0.0465,-0.32594 0.2624,-0.59261 0.47978,-0.59261 0.28653,0 0.37244,-0.23652 0.31233,-0.8599 -0.0664,-0.68921 -0.21421,-0.87747 -0.74437,-0.94844 -0.53292,-0.0713 -0.59752,-0.0228 -0.3324,0.24967 0.26451,0.27189 0.14142,0.425 -0.62757,0.78061 -0.57366,0.26528 -0.83698,0.51632 -0.65775,0.62709 0.21321,0.13177 0.18995,0.29362 -0.0811,0.56471 -0.54505,0.54505 -1.08745,0.4694 -1.54368,-0.2153 -0.38474,-0.57742 -0.51022,-0.59306 -4.17324,-0.5201 -3.36959,0.0671 -3.74026,0.0315 -3.43966,-0.33073 0.38071,-0.45873 2.52234,-0.56741 2.78565,-0.14136 0.3606,0.58346 0.92604,0.25528 0.92604,-0.53747 0,-0.46886 0.16487,-0.86532 0.39688,-0.95435 0.67242,-0.25803 0.43943,-0.62485 -0.39688,-0.62485 -0.52916,0 -0.79375,-0.13229 -0.79375,-0.39687 0,-0.28027 0.28366,-0.39688 0.96546,-0.39688 0.75569,0 1.16087,0.20121 1.86482,0.92604 0.68546,0.70579 1.11659,0.92604 1.81267,0.92604 0.50232,0 0.9133,-0.11906 0.9133,-0.26458 0,-0.14552 -0.34261,-0.26458 -0.76135,-0.26458 -0.41874,0 -0.92027,-0.19148 -1.11449,-0.42551 -0.29858,-0.35976 -0.28315,-0.47668 0.0999,-0.75677 0.55865,-0.40849 0.58056,-0.66981 0.0562,-0.66981 -0.53485,0 -0.50008,-0.35374 0.087,-0.88503 0.62955,-0.56974 0.9182,-0.55218 1.50052,0.0913 0.26339,0.29105 0.63903,0.52917 0.83476,0.52917 0.19573,0 0.35587,0.17859 0.35587,0.39688 0,0.24694 -0.24989,0.39687 -0.66146,0.39687 -0.95522,0 -0.81401,0.44672 0.18768,0.59373 1.50448,0.22082 2.18248,-0.1171 2.28116,-1.13694 l 0.0876,-0.90521 0.47217,1.02105 c 0.27863,0.60252 0.54737,0.89937 0.65563,0.72421 0.30567,-0.49458 0.83626,-0.33477 1.21056,0.36462 0.24962,0.46643 0.57485,0.66146 1.10304,0.66146 0.62259,0 0.74904,0.11167 0.74904,0.66146 0,0.3638 0.0893,0.66238 0.19844,0.66352 0.37878,0.004 0.8745,1.41208 0.59537,1.69121 -0.14555,0.14555 -0.26464,0.53848 -0.26464,0.87318 0,0.47272 -0.14763,0.60854 -0.66146,0.60854 -0.52917,0 -0.66146,0.1323 -0.66146,0.66146 0,0.48888 -0.14049,0.66146 -0.53847,0.66146 -0.46158,0 -1.68594,0.61133 -2.10736,1.05222 -0.43733,0.45754 -1.4986,0.81291 -2.83529,0.94941 -1.52042,0.15526 -2.69098,0.55009 -3.03067,1.02225 -0.0976,0.13563 -0.90124,0.29896 -1.78593,0.36296 -0.88469,0.064 -1.60853,0.2211 -1.60853,0.34913 0,0.12803 -1.76212,0.23278 -3.91583,0.23278 -2.15371,0 -4.02894,0.1068 -4.16719,0.23733 -0.28011,0.26448 -8.412295,0.52447 -11.488418,0.3673 z m 5.437876,-1.39838 c 0.970265,0 1.168986,-0.0851 1.168986,-0.50048 0,-0.63009 -0.66355,-0.79533 -3.042709,-0.75771 -1.018646,0.0161 -1.46513,0.0752 -0.992187,0.13134 0.71802,0.0852 0.859895,0.21308 0.859895,0.77505 0,0.50498 0.104482,0.63291 0.418515,0.5124 0.230183,-0.0883 0.944558,-0.1606 1.5875,-0.1606 z m -7.805759,-0.95145 c 0.305984,-0.36869 0.270749,-0.41067 -0.277608,-0.33073 -0.345441,0.0504 -0.677088,0.24038 -0.736993,0.42229 -0.156771,0.47603 0.600238,0.40771 1.014601,-0.0916 z m -2.005464,-1.16522 c 0.568389,-0.58208 0.890209,-1.05833 0.715155,-1.05833 -0.175054,0 -0.31828,-0.17859 -0.31828,-0.39687 0,-0.24695 -0.249884,-0.39688 -0.661458,-0.39688 -0.599425,0 -0.661459,0.1031 -0.661459,1.09934 0,1.04827 -0.02248,1.079 -0.483854,0.66146 -0.603365,-0.54604 -1.368229,-0.56896 -1.368229,-0.041 0,0.21828 0.18233,0.39688 0.405179,0.39688 0.222848,0 0.473711,0.17859 0.557474,0.39687 0.244818,0.63799 0.713254,0.46732 1.815472,-0.66146 z m 4.172223,0.88479 c -0.179131,-0.0725 -0.536319,-0.0769 -0.79375,-0.01 -0.257431,0.0671 -0.110869,0.12639 0.325694,0.13178 0.436562,0.005 0.647188,-0.0495 0.468056,-0.12197 z m -1.129515,-3.53062 c 0,-0.14552 -0.178593,-0.26458 -0.396875,-0.26458 -0.218281,0 -0.396875,0.11906 -0.396875,0.26458 0,0.14552 0.178594,0.26458 0.396875,0.26458 0.218282,0 0.396875,-0.11906 0.396875,-0.26458 z m -15.08125,5.05948 c 0,-0.59587 0.659945,-1.20465 1.046743,-0.9656 0.151895,0.0939 0.276173,0.46131 0.276173,0.81653 0,0.51251 -0.136556,0.64584 -0.661458,0.64584 -0.47069,0 -0.661458,-0.14327 -0.661458,-0.49677 z m 26.244711,-2.07749 -0.529849,-0.74411 0.689069,-0.32519 c 0.37898,-0.17885 0.78439,-0.32519 0.9009,-0.32519 0.36278,0 0.23179,1.50615 -0.15922,1.83065 -0.29551,0.24526 -0.47891,0.15647 -0.9009,-0.43616 z m 5.76987,-0.45005 c 0,-0.27014 0.23888,-0.41527 0.68351,-0.41527 0.82886,0 0.73814,0.62136 -0.10892,0.746 -0.38158,0.0561 -0.57459,-0.0549 -0.57459,-0.33073 z m 5.29167,-0.62694 c 0,-0.19124 -0.39982,-0.3175 -1.00542,-0.3175 -1.09431,0 -1.67941,-0.38426 -1.45914,-0.95828 0.10038,-0.26158 -0.0924,-0.36464 -0.68213,-0.36464 -0.94581,0 -1.01761,-0.22905 -0.33574,-1.07111 0.49948,-0.61684 1.10118,-0.52903 1.10118,0.16069 0,0.25933 0.29614,0.38126 0.92604,0.38126 0.85255,0 0.92604,-0.063 0.92604,-0.79375 0,-0.72554 0.0769,-0.79375 0.89519,-0.79375 0.69649,0 0.92856,0.12764 1.04557,0.57508 0.19981,0.76409 0.012,1.01242 -0.76575,1.01242 -0.35521,0 -0.64584,0.11906 -0.64584,0.26458 0,0.14552 0.29766,0.26458 0.66146,0.26458 0.3638,0 0.66146,0.10933 0.66146,0.24295 0,0.13362 0.0723,0.43127 0.1606,0.66146 0.11184,0.29146 0.007,0.41851 -0.34396,0.41851 -0.27751,0 -0.64744,0.14288 -0.82206,0.3175 -0.24695,0.24695 -0.3175,0.24695 -0.3175,0 z m -6.56601,-1.0451 c 0.0623,-0.54157 0.21803,-0.71556 0.60902,-0.68048 0.28892,0.0259 0.61452,-0.0931 0.72356,-0.26458 0.10903,-0.17144 0.20007,0.13477 0.20229,0.68047 0.004,0.9317 -0.0454,0.99219 -0.80727,0.99219 -0.72899,0 -0.80283,-0.0738 -0.7276,-0.7276 z m -2.42021,-0.45143 c -0.44346,-0.53435 -0.0851,-0.99601 0.60796,-0.78324 0.79105,0.24285 0.82759,0.30554 0.44607,0.76525 -0.41789,0.50352 -0.64781,0.50745 -1.05403,0.018 z m -10.309325,-1.81818 c -0.342935,-0.34294 -0.374822,-0.97154 -0.04928,-0.97154 0.128887,0 0.529957,0.15337 0.891267,0.34082 l 0.656927,0.34082 -0.607645,0.28676 c -0.432289,0.20401 -0.689493,0.20491 -0.891266,0.003 z m 7.716716,0.0438 c -0.511389,-0.51139 -0.411838,-1.54451 0.14883,-1.54451 0.661279,0 1.111249,0.51666 1.111249,1.27594 0,0.51998 -0.07,0.58281 -0.37115,0.33292 -0.25834,-0.21441 -0.400069,-0.22124 -0.466319,-0.0225 -0.0644,0.19307 -0.20123,0.1795 -0.42261,-0.0419 z M 72.903918,129.5195 c -0.602406,-0.70356 -0.57497,-0.86577 0.207847,-1.22885 0.642457,-0.29798 0.659394,-0.27929 0.659394,0.7276 0,1.1608 -0.20237,1.27777 -0.867241,0.50125 z m 13.649848,0.037 c -0.549119,-0.87928 0.567928,-1.50558 1.24031,-0.69541 0.26278,0.31663 0.26278,0.47712 0,0.79375 -0.442729,0.53345 -0.866743,0.49984 -1.24031,-0.0983 z m 16.960804,0.16449 c 0.0848,-0.18191 0.22766,-0.53909 0.31749,-0.79375 0.19943,-0.56542 0.89535,-0.61683 0.89535,-0.0661 0,0.21828 0.11906,0.39687 0.26458,0.39687 0.14552,0 0.26459,0.1786 0.26459,0.39688 0,0.27894 -0.28174,0.39687 -0.94809,0.39687 -0.66431,0 -0.90195,-0.099 -0.79392,-0.33072 z M 92.664061,129.2178 c -0.103581,-0.1676 0.03822,-0.47892 0.315114,-0.69182 0.365675,-0.28117 0.409916,-0.42204 0.161671,-0.51476 -0.539665,-0.20158 0.154358,-0.86995 0.903335,-0.86995 0.345984,0 0.629062,-0.11906 0.629062,-0.26459 0,-0.14552 0.178594,-0.26458 0.396875,-0.26458 0.218281,0 0.396875,0.11906 0.396875,0.26458 0,0.14553 0.174857,0.26459 0.388571,0.26459 0.236694,0 0.329045,0.15512 0.236276,0.39687 -0.08376,0.21828 -0.330889,0.39688 -0.54917,0.39688 -0.244076,0 -0.338241,0.1528 -0.24458,0.39687 0.11339,0.29549 -0.04008,0.39688 -0.600754,0.39688 -0.414177,0 -0.901269,0.17859 -1.082427,0.39687 -0.394448,0.47528 -0.695999,0.50451 -0.950848,0.0922 z M 81.54806,128.04567 c 0.08833,-0.23018 0.160599,-0.52784 0.160599,-0.66146 0,-0.13362 0.297656,-0.24294 0.661458,-0.24294 0.529167,0 0.661459,0.13229 0.661459,0.66146 0,0.56362 -0.121585,0.66145 -0.822058,0.66145 -0.640907,0 -0.786667,-0.0922 -0.661458,-0.41851 z m 19.47518,0.15393 c 0,-0.14552 0.23813,-0.26458 0.52917,-0.26458 0.29104,0 0.53009,-0.14883 0.53123,-0.33073 10e-4,-0.1819 0.2767,-0.45793 0.61236,-0.6134 0.56044,-0.25957 0.9236,-0.18399 1.76287,0.36691 0.0706,0.0463 -0.16754,0.31158 -0.52916,0.58943 -0.69734,0.53579 -2.90647,0.72761 -2.90647,0.25237 z m -12.964581,-0.86145 c 0,-0.63397 1.329822,-1.4457 1.845897,-1.12675 0.418547,0.25868 0.319752,1.19445 -0.126105,1.19445 -0.218281,0 -0.396875,0.11906 -0.396875,0.26458 0,0.14553 -0.297656,0.26459 -0.661458,0.26459 -0.51008,0 -0.661459,-0.1366 -0.661459,-0.59687 z m -11.1125,-1.12292 c 0,-1.06086 0.451351,-1.21377 1.186133,-0.40184 0.388229,0.42899 0.413823,0.59719 0.140902,0.92604 -0.183422,0.22101 -0.557042,0.40184 -0.830265,0.40184 -0.391348,0 -0.49677,-0.19652 -0.49677,-0.92604 z m 7.14375,0.69385 c 0,-0.1277 0.178594,-0.3804 0.396875,-0.56156 0.218281,-0.18116 0.396875,-0.67199 0.396875,-1.09073 0,-0.8232 0.15157,-0.89182 1.139875,-0.51607 0.749236,0.28486 1.153597,1.47183 0.691205,2.02898 -0.336013,0.40487 -2.62483,0.52641 -2.62483,0.13938 z m 6.261806,-1.26712 c -0.09701,-0.097 -0.176389,-0.39467 -0.176389,-0.66146 0,-0.41093 0.220013,-0.48507 1.439593,-0.48507 0.791777,0 1.513179,-0.11906 1.603115,-0.26458 0.08994,-0.14552 0.349668,-0.26458 0.577179,-0.26458 0.337696,0 0.353172,0.0729 0.08428,0.39687 -0.181158,0.21828 -0.64222,0.39953 -1.024585,0.40276 -0.382364,0.003 -0.992863,0.23871 -1.356665,0.52328 -0.7254,0.56742 -0.883304,0.61601 -1.146528,0.35278 z m 15.475805,-0.35278 c 0,-0.3638 0.0601,-0.51263 0.13345,-0.33072 0.0734,0.1819 0.0734,0.47955 0,0.66145 -0.0734,0.1819 -0.13345,0.0331 -0.13345,-0.33073 z m 4.33248,0.27855 c -0.0947,-0.1532 -0.50774,-0.27855 -0.91789,-0.27855 -0.81629,0 -1.55916,-0.62688 -1.08797,-0.9181 0.15259,-0.0943 0.27744,-0.40256 0.27744,-0.68501 0,-0.3714 0.18309,-0.51355 0.66145,-0.51355 0.5309,0 0.66146,0.13185 0.66146,0.668 0,0.4747 0.19764,0.74315 0.68297,0.92767 0.37563,0.14282 0.63608,0.40032 0.57877,0.57223 -0.14364,0.43094 -0.64768,0.56475 -0.85623,0.22731 z m -13.634674,-0.69482 c 0,-0.24639 0.180015,-0.38136 0.441096,-0.33073 0.663779,0.12873 0.754921,0.747 0.11012,0.747 -0.324998,0 -0.551216,-0.17083 -0.551216,-0.41627 z m 4.233334,-0.62644 c 0,-0.67537 0.45546,-0.93533 0.93763,-0.53517 0.60523,0.5023 0.46133,1.04872 -0.27617,1.04872 -0.47837,0 -0.66146,-0.14215 -0.66146,-0.51355 z m -3.924868,-1.35449 c 0.04862,-0.33223 0.247256,-0.65641 0.441402,-0.7204 0.239847,-0.079 0.324655,0.0773 0.264584,0.48772 -0.04863,0.33223 -0.247257,0.65641 -0.441403,0.7204 -0.239847,0.079 -0.324655,-0.0773 -0.264583,-0.48772 z m -13.537633,-0.48235 c 0,-0.12855 0.267891,-0.30552 0.595313,-0.39327 0.875514,-0.23462 0.992187,-0.20756 0.992187,0.23012 0,0.26458 -0.264583,0.39687 -0.79375,0.39687 -0.436562,0 -0.79375,-0.10517 -0.79375,-0.23372 z m 19.843751,-1.43315 c 0,-0.59413 0.57855,-1.00277 0.96529,-0.68181 0.27955,0.23201 0.27443,0.35301 -0.0277,0.65516 -0.46509,0.4651 -0.93756,0.47852 -0.93756,0.0266 z m 6.88198,-0.0495 c -0.16941,-0.20413 -0.26911,-0.62689 -0.22156,-0.93948 l 0.0864,-0.56833 0.57199,0.61992 c 0.4698,0.50918 0.50938,0.677 0.22156,0.93947 -0.27515,0.25092 -0.41658,0.23984 -0.65844,-0.0516 z m -6.08823,40.61015 c 0,-0.14552 -0.0525,-0.26458 -0.11668,-0.26458 -0.0642,0 -0.19026,0.11906 -0.2802,0.26458 -0.0899,0.14552 -0.0374,0.26458 0.11668,0.26458 0.15411,0 0.2802,-0.11906 0.2802,-0.26458 z m 7.9375,-0.38126 c 0,-0.27926 -0.50777,-0.39659 -0.65879,-0.15222 -0.0914,0.14789 0.0194,0.2689 0.2463,0.2689 0.22687,0 0.41249,-0.0525 0.41249,-0.11668 z m -13.758334,-0.94166 c 0,-0.14552 -0.178593,-0.26458 -0.396875,-0.26458 -0.218281,0 -0.396875,0.11906 -0.396875,0.26458 0,0.14552 0.178594,0.26459 0.396875,0.26459 0.218282,0 0.396875,-0.11907 0.396875,-0.26459 z M 112.759,159.62324 c -0.18115,-0.29311 -1.09246,-0.24927 -1.28472,0.0618 -0.30856,0.49927 0.1245,0.74764 0.77135,0.44238 0.35128,-0.16578 0.5823,-0.39267 0.51337,-0.50419 z m -22.431642,-1.01515 c 0.469748,-0.17556 0.457906,-0.21066 -0.152032,-0.45058 -0.464201,-0.1826 -0.693015,-0.17116 -0.767277,0.0384 -0.0582,0.1642 -0.223471,0.37527 -0.367268,0.46904 -0.162014,0.10565 -0.121768,0.3216 0.105818,0.5678 0.326216,0.3529 0.384263,0.35084 0.519301,-0.0185 0.08362,-0.22867 0.381274,-0.50144 0.661458,-0.60616 z m 24.444962,-0.0735 c 0.91524,-0.0345 1.06481,-0.12371 1.06609,-0.6355 0.002,-0.605 -0.61806,-0.82664 -0.92454,-0.33073 -0.31766,0.51398 -0.62893,0.25425 -0.71084,-0.59315 -0.0546,-0.56489 -0.24099,-0.88767 -0.54593,-0.94544 -0.37096,-0.0703 -0.46302,0.10029 -0.46302,0.85773 0,0.51999 -0.11907,0.94544 -0.26459,0.94544 -0.29427,0 -0.36319,0.87153 -0.0905,1.14424 0.0957,0.0958 0.33039,0.0444 0.52141,-0.11416 0.19103,-0.15854 0.82639,-0.30633 1.41191,-0.32843 z m -29.888661,-1.07962 c 0,-0.0832 -0.178594,-0.15119 -0.396875,-0.15119 -0.225048,0 -0.396875,0.23728 -0.396875,0.54806 0,0.48717 0.0441,0.50397 0.396875,0.15119 0.218281,-0.21828 0.396875,-0.46491 0.396875,-0.54806 z m 33.289761,-2.06942 c -0.061,-0.42982 -0.26231,-0.59531 -0.72396,-0.59531 -0.84583,0 -0.96863,0.46043 -0.22148,0.83038 0.90246,0.44686 1.03752,0.41328 0.94544,-0.23507 z M 81.541896,148.2418 c 0.08775,-0.32742 0.161163,-0.74414 0.16315,-0.92604 0.0044,-0.40509 -0.955438,-0.44084 -1.200262,-0.0447 -0.09722,0.15731 -0.465224,0.21362 -0.817779,0.12514 l -0.641008,-0.16088 0.713608,0.8009 c 0.845583,0.94902 1.560945,1.03154 1.782291,0.20559 z m 0.01943,-2.11667 c -0.100644,-0.32742 -0.197964,-0.60414 -0.216267,-0.61492 -0.0183,-0.0108 -0.474704,-0.22233 -1.014225,-0.4701 -0.539522,-0.24777 -1.052564,-0.56637 -1.140095,-0.708 -0.08753,-0.14162 -0.345291,-0.2575 -0.572802,-0.2575 -0.337696,0 -0.353173,0.0729 -0.08428,0.39688 0.181157,0.21828 0.491124,0.39687 0.688814,0.39687 0.197691,0 0.437699,0.32742 0.533351,0.7276 0.254122,1.06318 0.319137,1.12448 1.19253,1.12448 0.703275,0 0.774655,-0.0693 0.612974,-0.59531 z"
       id="path12" /><rect
       style="fill:none;fill-opacity:1;stroke:#000000;stroke-width:1.23231;stroke-dasharray:none;stroke-opacity:1"
       id="rect7"
       width="92.727097"
       height="82.134789"
       x="57.378765"
       y="100.37108"
       ry="18.276922" /><path
       style="fill:#c8c4b7;fill-opacity:1;stroke:#000000;stroke-width:2.09328;stroke-dasharray:none;stroke-opacity:1"
       d="m 484.08024,553.30245 c -1.84769,-0.53234 -2.91646,-1.49256 -3.67083,-3.29802 -0.58532,-1.40087 -1.91353,-3.00157 -2.95157,-3.55711 -1.03805,-0.55555 -2.45474,-1.97059 -3.14822,-3.14455 -1.31349,-2.22356 -1.04319,-2.78714 4.75281,-9.90967 0.35133,-0.43174 0.86869,-1.3872 1.14969,-2.12323 1.48478,-3.88918 12.71093,-6.29749 20.19231,-4.33179 3.865,1.01551 4.47545,1.47647 6.06148,4.5771 2.26043,4.41908 2.23941,5.56197 -0.15458,8.40708 -1.07935,1.28273 -1.96245,2.72279 -1.96245,3.20014 0,0.47735 -0.5386,0.86791 -1.1969,0.86791 -0.65829,0 -1.52563,0.86463 -1.92741,1.92139 -0.85912,2.25966 -3.3669,4.00337 -6.77809,4.71295 -1.34481,0.27973 -3.18455,1.19751 -4.08832,2.0395 -1.80536,1.68194 -2.43377,1.74584 -6.27792,0.6383 z"
       id="path15"
       transform="scale(0.26458333)" /><path
       style="fill:#c8c4b7;fill-opacity:1;stroke:#000000;stroke-width:2.09328;stroke-dasharray:none;stroke-opacity:1"
       d="m 272.78013,685.68211 c -24.79792,-4.99044 -44.50839,-23.87478 -51.21072,-49.0643 l -1.77535,-6.67232 v -95.37493 -95.37492 l 1.77535,-6.67232 c 6.78529,-25.50131 26.61307,-44.28325 51.86851,-49.13262 8.56411,-1.64442 228.75388,-1.64442 237.31798,0 25.25544,4.84937 45.08322,23.63131 51.86851,49.13262 l 1.77535,6.67232 v 95.37492 95.37493 l -1.75827,6.67232 c -6.64108,25.20183 -26.80366,44.33758 -51.74484,49.10961 -8.33183,1.59415 -230.1797,1.55192 -238.11652,-0.0453 z m 132.91936,-68.07447 c 2.37086,-0.70981 3.137,-0.6868 3.62883,0.10898 0.47314,0.76557 1.01355,0.79998 2.24162,0.14275 0.89,-0.47632 2.54773,-0.86603 3.68385,-0.86603 1.13611,0 2.73559,-0.35854 3.55441,-0.79676 0.81881,-0.43822 3.88645,-1.29271 6.81696,-1.89887 13.57298,-2.8075 16.74808,-4.79911 22.75876,-14.27565 2.07013,-3.2638 4.9119,-7.34883 6.31505,-9.07784 1.40315,-1.729 2.55728,-3.55177 2.56475,-4.05059 0.007,-0.49883 0.89055,-1.73882 1.96244,-2.75555 1.07188,-1.01673 1.94889,-2.27275 1.94889,-2.79116 0,-0.51842 0.87664,-2.13081 1.94811,-3.58309 1.47355,-1.99729 1.73697,-2.89495 1.08135,-3.68491 -0.63739,-0.76802 -0.60817,-1.35598 0.11045,-2.22186 1.57607,-1.89906 2.35494,-1.37058 2.35494,1.59785 0,2.55632 0.29423,2.90536 3.72865,4.42317 2.05075,0.90631 5.58968,1.82114 7.86428,2.03295 2.27459,0.21181 4.32657,0.69407 4.55995,1.07169 0.71696,1.16005 4.66566,0.76437 8.27792,-0.82951 1.88977,-0.83385 5.90863,-1.914 8.9308,-2.40035 9.42956,-1.51747 11.5672,-2.67126 19.63915,-10.60015 4.09344,-4.0209 7.44261,-7.55796 7.44261,-7.86017 0,-0.3022 1.58959,-2.31745 3.53241,-4.47833 2.44553,-2.72002 3.5324,-4.61894 3.5324,-6.17161 0,-1.40458 0.94049,-3.31389 2.51658,-5.10895 2.3049,-2.62513 2.60417,-3.60138 3.55786,-11.60576 0.57269,-4.80674 1.2366,-10.35908 1.47533,-12.33854 0.42989,-3.56444 0.37752,-3.66386 -5.45072,-10.34839 -3.23662,-3.71216 -6.09225,-7.40309 -6.34584,-8.20207 -0.51375,-1.61868 -4.33981,-4.14731 -6.27529,-4.14731 -0.86845,0 -1.2526,-0.7222 -1.2526,-2.35494 v -2.35493 h -13.28043 c -7.30425,0 -13.8392,-0.21441 -14.52211,-0.47648 -0.68293,-0.26205 -1.24167,-1.06681 -1.24167,-1.78834 0,-3.3461 -5.71422,-12.66411 -12.29181,-20.04389 -8.02793,-9.00701 -12.64404,-12.45415 -18.47581,-13.79707 -2.29017,-0.52737 -5.40028,-1.77957 -6.91137,-2.78266 -1.51108,-1.0031 -5.04348,-2.22638 -7.84978,-2.71841 -2.8063,-0.49204 -6.33871,-1.6245 -7.84979,-2.51659 -5.09247,-3.00643 -15.93282,-3.94577 -49.84616,-4.31929 -31.91931,-0.35157 -38.04445,0.0214 -49.31461,3.00246 -2.12239,0.5614 -3.30865,0.53833 -4.05226,-0.0788 -0.79113,-0.65659 -2.19155,-0.39269 -5.65746,1.06609 -2.75742,1.16059 -7.56385,2.2689 -11.97565,2.76146 -4.05326,0.45254 -7.73403,1.18725 -8.17946,1.63269 -0.44545,0.44544 -1.71066,0.80477 -2.81159,0.79852 -1.10093,-0.006 -4.47438,0.73325 -7.49655,1.64335 -3.02217,0.9101 -6.90781,2.03619 -8.63477,2.50242 -3.80157,1.02632 -9.21756,4.12079 -12.34172,7.05155 -1.26563,1.18728 -2.58397,2.15869 -2.92963,2.15869 -0.34566,0 -1.11033,0.5806 -1.69927,1.29022 -0.58893,0.70961 -2.35453,1.85764 -3.92356,2.55118 -3.17835,1.40487 -9.32465,8.08267 -9.33267,10.13971 -0.003,0.72929 -0.707,2.3857 -1.56479,3.68091 -0.86204,1.30164 -1.56192,3.68284 -1.56478,5.32382 -0.003,1.63288 -0.5516,4.27667 -1.21946,5.87507 -0.75466,1.80618 -0.91263,3.00674 -0.41734,3.17184 0.43832,0.1461 1.01579,1.56458 1.28328,3.15218 0.26748,1.5876 0.9546,3.94626 1.52694,5.24148 0.57233,1.29521 1.2824,3.99632 1.57793,6.00246 0.54707,3.71371 2.92286,8.51964 4.21165,8.51964 0.39128,0 0.91532,0.81243 1.16454,1.8054 0.25391,1.01166 1.59359,2.34924 3.0472,3.04241 4.05946,1.93583 6.54379,7.34345 7.92424,17.24863 0.6407,4.59725 1.54974,9.07769 2.02008,9.95654 0.47034,0.87885 0.8575,2.76915 0.86034,4.20069 0.003,1.43153 0.707,3.66251 1.56479,4.95772 0.85779,1.29522 1.56194,2.92986 1.56478,3.63254 0.003,0.70267 0.53341,1.71598 1.17903,2.2518 0.64563,0.53582 1.59516,2.43359 2.11008,4.21726 0.51491,1.78367 1.87563,4.12614 3.02382,5.20549 2.95945,2.78201 10.1768,14.29773 10.1768,16.23769 0,0.89352 0.52986,2.06433 1.17747,2.6018 0.64761,0.53747 1.1797,1.37551 1.18243,1.86231 0.003,0.48682 1.06245,1.48686 2.35494,2.22232 1.29249,0.73546 2.34997,1.84239 2.34997,2.45984 0,1.39537 5.88101,6.80017 7.39934,6.80017 0.61323,0 2.11349,0.8049 3.33389,1.78867 4.88252,3.93579 15.27875,6.04616 31.92053,6.47969 5.11069,0.13314 9.5262,0.49222 9.81224,0.79796 0.82434,0.88112 42.54841,-0.3795 45.91429,-1.38721 z"
       id="path16"
       transform="scale(0.26458333)" /><path
       style="fill:#ffffff;fill-opacity:1;stroke:#000000;stroke-width:2.09328;stroke-dasharray:none;stroke-opacity:1"
       d="m 403.68626,612.11995 c -0.1739,-0.52168 0.12254,-1.84633 0.65875,-2.94367 0.5362,-1.09735 1.21378,-3.63819 1.50572,-5.64632 0.44909,-3.08903 0.27717,-3.90478 -1.11665,-5.29861 -2.68418,-2.68418 -3.29084,-2.34746 -4.32606,2.40104 -0.35292,1.61886 -0.8083,1.99361 -2.03326,1.67328 -1.12291,-0.29365 -2.33127,0.40905 -4.18671,2.43473 -2.23079,2.43545 -2.95485,2.7782 -5.00354,2.36846 -1.60085,-0.32017 -3.06578,-0.0398 -4.4168,0.84548 -2.1269,1.39359 -3.6605,1.06179 -3.6605,-0.79194 0,-1.57176 -2.67902,-2.87562 -3.73624,-1.81841 -1.16124,1.16125 -2.2741,0.28537 -2.89261,-2.27661 -1.50106,-6.21764 -2.12955,-8.05345 -2.75713,-8.05345 -1.17578,0 -4.00371,5.24905 -3.51462,6.52361 0.55104,1.43601 -1.86431,2.92458 -3.58396,2.20879 -0.6476,-0.26957 -2.59043,-1.44003 -4.31738,-2.60103 -4.53672,-3.04997 -7.17384,-3.55121 -7.82867,-1.48802 -0.60973,1.92108 -1.06492,1.98452 -3.11482,0.43405 -0.83806,-0.63388 -2.18074,-1.15251 -2.98373,-1.15251 -0.92657,0 -1.87938,-1.00377 -2.60793,-2.74742 l -1.14794,-2.74743 h -5.19454 -5.19454 l 0.44585,2.74743 c 0.4265,2.62818 0.34369,2.74742 -1.90784,2.74742 -2.33178,0 -2.34892,-0.0317 -1.8429,-3.40614 0.39301,-2.62072 0.21016,-3.70676 -0.79295,-4.70987 -1.46127,-1.46128 -2.76155,-1.70553 -2.76155,-0.51875 0,1.49156 -1.60649,0.77867 -2.45832,-1.09091 -0.47009,-1.03174 -1.69886,-2.2605 -2.7306,-2.7306 -1.74836,-0.7966 -2.50806,-3.13445 -1.38387,-4.25863 0.2706,-0.27061 1.4894,0.0238 2.70844,0.65414 1.21904,0.6304 3.11707,1.14617 4.21786,1.14617 1.76016,0 2.00143,-0.32787 2.00143,-2.71981 0,-3.35189 -2.17831,-4.91487 -4.85402,-3.48287 -1.52452,0.81589 -2.00716,0.58017 -4.36354,-2.13108 -1.45719,-1.67664 -2.9135,-3.40168 -3.23625,-3.83341 -0.32275,-0.43174 -1.45002,-1.37906 -2.50503,-2.10517 l -1.9182,-1.32018 2.57934,-0.54977 c 1.41864,-0.30238 3.10495,-1.29788 3.74737,-2.21223 1.08214,-1.54019 0.99841,-1.80675 -1.13862,-3.62489 -1.26866,-1.07934 -2.5406,-3.10643 -2.82654,-4.50462 -0.28594,-1.39821 -0.84466,-2.7429 -1.2416,-2.98822 -0.40547,-0.2506 -0.16931,-1.51426 0.53895,-2.88389 1.03072,-1.9932 1.10048,-2.97246 0.38244,-5.36906 -1.04457,-3.48645 -2.53244,-4.22696 -6.11642,-3.04414 -2.01272,0.66426 -2.93439,0.64785 -3.79645,-0.0676 -1.72086,-1.42819 -0.86278,-2.03583 4.31276,-3.05406 5.43205,-1.06869 6.95661,-2.71478 5.04374,-5.44579 -0.65328,-0.93269 -2.20346,-2.22102 -3.44483,-2.86296 -2.02931,-1.0494 -2.38775,-1.03645 -3.55258,0.12838 -0.7665,0.7665 -1.14879,2.06321 -0.93617,3.17545 0.29543,1.54545 0.0688,1.83765 -1.27392,1.64231 -1.1891,-0.17299 -1.8014,-1.05091 -2.25146,-3.22817 -0.87437,-4.22996 -2.00892,-6.0367 -3.79076,-6.0367 -1.12184,0 -1.54234,0.53504 -1.54234,1.96245 0,2.58558 -0.777,2.47655 -4.19557,-0.58873 -7.50662,-6.73086 -9.64331,-7.77354 -10.62401,-5.18441 l -0.70007,1.84825 -0.9615,-2.07213 c -0.52883,-1.13968 -1.7639,-2.43773 -2.74461,-2.88457 -1.67305,-0.76229 -2.68595,-3.71819 -2.81092,-8.20298 -0.0434,-1.55882 -2.86093,-4.84841 -4.6526,-5.43218 -0.72431,-0.236 -0.0446,-0.75854 1.7662,-1.35774 4.74353,-1.56969 3.3827,-3.76575 -3.33616,-5.38379 -2.17316,-0.52335 -2.79843,-1.0939 -2.99144,-2.72968 -0.13421,-1.13742 0.2643,-2.88321 0.88558,-3.87953 0.62127,-0.99632 1.35633,-3.03906 1.63345,-4.53941 1.01417,-5.49077 7.73494,-13.3311 14.81616,-17.28426 2.49233,-1.39138 4.87159,-3.16521 5.28724,-3.94186 0.41565,-0.77665 3.78085,-2.85636 7.47822,-4.62157 5.35577,-2.55699 8.1679,-3.37323 13.83212,-4.01488 3.91031,-0.44297 7.75527,-1.15092 8.54436,-1.57323 0.7891,-0.42231 3.24737,-0.76784 5.46283,-0.76784 2.21546,0 4.66614,-0.34146 5.44596,-0.75881 0.77983,-0.41735 3.84746,-1.31254 6.81696,-1.9893 6.06108,-1.38136 10.02789,-2.12156 7.95082,-1.48362 -1.86929,0.57412 -2.66809,4.05929 -1.2544,5.47298 0.95451,0.95451 1.3414,0.94515 2.78704,-0.0674 0.92326,-0.64669 1.90063,-2.1864 2.17193,-3.42159 0.4516,-2.05613 0.97066,-2.35143 6.14574,-3.49634 3.10887,-0.6878 10.73661,-1.6299 16.95054,-2.09357 6.21394,-0.46367 11.59356,-1.02565 11.95471,-1.24886 0.36115,-0.2232 1.33345,-0.0436 2.16066,0.3991 0.82722,0.44272 9.4006,1.14 19.05196,1.54953 18.97174,0.80501 21.89413,1.27085 37.5649,5.98797 5.40145,1.62591 6.27983,2.34919 6.27983,5.17093 0,1.24235 0.33025,2.25882 0.73387,2.25882 1.52823,0 5.18791,-1.68576 6.01674,-2.7715 0.7352,-0.96306 1.49222,-0.81224 5.10236,1.01657 2.3315,1.18108 4.945,3.23569 5.80778,4.56579 0.86278,1.3301 3.6887,3.80279 6.27983,5.49485 3.63976,2.37685 5.15744,3.98766 6.67359,7.08314 1.07935,2.20366 2.38379,4.51157 2.89877,5.12869 0.60671,0.72704 0.68002,1.52727 0.20826,2.27317 -0.40043,0.63313 -0.73346,1.78362 -0.74007,2.55664 -0.0118,1.38038 -2.97766,6.1924 -4.13316,6.70595 -1.09443,0.48642 -0.5978,3.01922 0.84868,4.32827 0.79057,0.71546 1.64138,1.09687 1.89068,0.84757 0.46177,-0.46177 9.76497,-2.73303 11.19401,-2.73288 2.34523,2.5e-4 16.11502,1.82354 18.56977,2.45886 2.19136,0.56716 3.06948,1.31453 3.7128,3.15997 0.79351,2.27627 1.0178,2.38752 3.84913,1.90917 2.5771,-0.4354 3.54867,-0.13433 6.80247,2.10798 5.33239,3.67472 6.37075,6.04781 7.01647,16.03554 0.50777,7.85405 0.42992,8.58673 -1.13776,10.70714 -1.64715,2.22787 -1.76168,4.58054 -0.38013,7.8083 0.44486,1.03936 0.052,1.56411 -1.65519,2.21098 -4.40968,1.67085 -7.30755,5.98107 -4.98592,7.41592 1.6252,1.00442 0.67878,3.44566 -2.42177,6.24682 -2.21152,1.99797 -3.61234,2.72426 -4.51362,2.34017 -4.2886,-1.82764 -6.8549,0.57366 -4.68012,4.37921 1.33044,2.32806 1.32607,2.34438 -0.94224,3.51736 -1.25338,0.64815 -3.23427,1.17846 -4.40197,1.17846 -2.04603,0 -2.07344,-0.0549 -0.75515,-1.51155 1.9039,-2.10379 1.29564,-4.32114 -1.26691,-4.61833 -1.67543,-0.19429 -2.14241,0.11792 -2.34822,1.56996 -0.22149,1.56263 -0.81841,1.86898 -4.32989,2.22224 -4.38642,0.44127 -4.29677,0.39756 -5.59962,2.73017 -0.77644,1.39013 -0.87961,1.41039 -0.90075,0.17682 -0.0272,-1.58684 -1.99608,-2.48138 -7.11424,-3.23225 -6.19748,-0.90922 -8.50473,-2.90122 -12.11203,-10.45714 -1.68821,-3.53613 -3.92605,-4.6058 -6.33442,-3.02777 -1.03521,0.67829 -3.28674,1.23325 -5.0034,1.23325 -1.71667,0 -3.33952,0.35324 -3.60635,0.78498 -0.85049,1.37612 -1.96245,0.84447 -1.96245,-0.93827 0,-0.94779 -0.90924,-2.67229 -2.02054,-3.83223 l -2.02052,-2.10898 3.18123,-2.25136 c 1.74969,-1.23824 3.18879,-2.51628 3.19801,-2.84008 0.0307,-1.07958 -7.50414,-0.61054 -9.05671,0.56377 -2.15243,1.62801 -2.56366,1.49077 -2.84532,-0.94955 -0.27091,-2.34707 -2.53307,-3.34539 -4.06042,-1.79193 -0.67662,0.6882 -0.35517,1.38328 1.30462,2.82104 1.50744,1.30579 1.81708,1.90785 0.98123,1.90785 -1.58089,0 -1.57147,1.87204 0.0161,3.18956 1.02302,0.84904 1.35353,0.83879 1.90851,-0.0592 0.66896,-1.0824 1.07772,-0.0705 1.73387,4.2925 0.12793,0.85066 1.04355,1.72738 2.05285,1.96565 l 1.82192,0.43009 -1.82604,1.64604 c -2.06227,1.85898 -4.49506,2.98821 -5.93831,2.7564 -0.53478,-0.0859 -1.6282,0.19483 -2.42982,0.62384 -1.05985,0.56722 -1.93693,0.44419 -3.21494,-0.45096 -2.27258,-1.59178 -4.11684,-0.22416 -2.58376,1.91598 2.4939,3.4814 1.92145,5.90017 -1.48175,6.26099 -1.03238,0.10946 -5.0718,0.49966 -8.9765,0.86713 -7.11576,0.66964 -10.56257,1.77334 -10.56257,3.38222 0,0.58145 1.08246,0.6701 3.33616,0.27323 1.83489,-0.32312 5.63222,-0.67954 8.43852,-0.79202 2.8063,-0.1125 7.22181,-0.51281 9.81224,-0.88959 4.4942,-0.65367 4.72055,-0.79408 4.94318,-3.06635 0.20645,-2.10714 0.65834,-2.49906 3.9249,-3.40406 2.03037,-0.56252 5.54609,-1.20152 7.81272,-1.41999 l 4.12114,-0.39724 v 3.21257 c 0,1.7669 -0.20922,3.21256 -0.46492,3.21256 -0.25571,0 -1.36307,-0.70648 -2.4608,-1.56996 -2.40518,-1.89191 -3.80785,-1.99544 -4.4476,-0.32828 -0.83321,2.1713 -0.53248,2.74537 1.87846,3.58582 2.61783,0.91258 2.83396,1.97141 1.30093,6.37349 -0.98445,2.82685 -1.08841,2.8946 -2.3324,1.52 -0.96042,-1.06125 -1.07154,-1.66921 -0.42353,-2.31722 1.26093,-1.26093 0.21717,-3.33896 -1.6771,-3.33896 -1.51202,0 -2.12793,0.88547 -3.54911,5.10237 -0.51633,1.53204 -0.5581,1.5273 -1.72957,-0.19625 -1.71813,-2.52784 -3.78081,-2.19057 -7.20112,1.17747 -1.64415,1.61902 -3.53682,3.36551 -4.20593,3.8811 -0.66912,0.51558 -1.3714,1.39868 -1.56063,1.96245 -0.43445,1.29426 -10.44693,1.31167 -12.84299,0.0223 -1.28484,-0.69139 -2.01502,-0.62583 -3.33616,0.29954 -0.93023,0.65155 -1.69133,1.68974 -1.69133,2.30707 0,1.50837 5.16952,3.78702 8.90465,3.92505 1.65951,0.0613 3.29411,0.55938 3.63243,1.1068 0.77888,1.26025 0.17444,3.64317 -1.21703,4.79798 -1.09296,0.90707 -7.0434,0.65693 -10.33882,-0.43463 -1.51173,-0.50073 -1.7662,-0.30662 -1.7662,1.34731 0,1.96036 2.13468,4.5306 3.76284,4.5306 0.94903,0 2.8802,3.03836 2.29996,3.6186 -0.18933,0.18933 -0.79106,-0.19416 -1.33718,-0.8522 -0.58781,-0.70827 -2.27845,-1.19644 -4.14346,-1.19644 h -3.1505 l 0.46706,3.40753 c 0.2927,2.1355 0.12741,3.7472 -0.44279,4.31739 -1.16768,1.16768 -1.95334,1.15476 -2.35114,-0.0386 z M 388.01785,599.2312 c 0.17823,-1.82632 -0.1187,-2.5278 -1.17746,-2.78164 -3.85797,-0.92497 -5.40844,1.38219 -2.8378,4.22272 1.90607,2.10617 3.73309,1.45046 4.01526,-1.44108 z m -6.87166,-3.84494 c 1.27378,-0.65869 2.31595,-1.51615 2.31595,-1.90547 0,-1.37647 -4.16702,-3.96171 -6.38569,-3.96171 -2.02108,0 -2.24907,0.26259 -2.24907,2.59043 0,4.3474 2.12122,5.44741 6.31881,3.27675 z m -30.67612,-3.87706 c 1.14644,-1.38139 -0.67982,-4.30177 -5.13784,-8.21597 -2.25005,-1.97556 -3.05639,-2.29623 -3.93677,-1.56558 -1.87267,1.55418 -1.24104,4.1613 1.83652,7.58043 3.06643,3.40676 5.59845,4.17675 7.23809,2.20112 z m 72.24101,-7.36331 c 0,-1.28729 -3.09705,-3.44599 -4.28814,-2.98893 -1.23869,0.47533 -1.61483,2.19749 -0.68339,3.12892 0.76091,0.76092 4.97153,0.64235 4.97153,-0.13999 z m -92.57589,-7.99907 c 0.88576,-0.47404 1.51835,-1.63844 1.51835,-2.79481 0,-1.80986 -0.25538,-1.96103 -2.93714,-1.73859 -3.17828,0.26364 -4.2784,2.09523 -2.52641,4.20624 1.12227,1.35225 1.90805,1.41741 3.9452,0.32716 z m -7.84979,-3.92489 c 2.33638,-1.25039 2.06301,-5.30062 -0.39948,-5.91867 -2.50321,-0.62826 -3.34553,-0.0346 -3.96728,2.79622 -0.82064,3.73637 0.90886,4.97306 4.36676,3.12245 z m 9.22163,-7.62593 c 0.22577,-2.34154 0.0613,-2.55118 -2.00169,-2.55118 -3.31813,0 -4.33971,1.3711 -2.7113,3.6389 1.93713,2.69776 4.40287,2.12869 4.71299,-1.08772 z m 155.17983,-5.69109 c 0.26683,-0.43174 1.61233,-0.78491 2.99,-0.78482 4.16525,2.7e-4 12.15519,-3.33092 16.47482,-6.86873 2.24037,-1.83489 4.3437,-3.33616 4.67407,-3.33616 0.33036,0 1.16067,-1.39964 1.84515,-3.1103 0.68447,-1.71068 1.91796,-3.32407 2.74107,-3.58531 0.82311,-0.26125 1.49657,-0.83702 1.49657,-1.2795 0,-0.44248 0.6939,-1.68666 1.54199,-2.76483 1.45461,-1.84925 1.46818,-2.07298 0.23929,-3.94849 l -1.30269,-1.98816 2.50813,0.55088 c 2.40919,0.52915 2.50813,0.45273 2.50813,-1.93725 0,-1.78208 -0.66827,-3.07454 -2.35493,-4.55456 -2.67763,-2.34958 -3.05029,-4.07176 -0.8811,-4.07176 0.81061,0 1.91212,-0.52809 2.4478,-1.17353 0.78486,-0.94571 0.72381,-1.5553 -0.31447,-3.13992 -1.4004,-2.13727 -2.8301,-2.43749 -5.30364,-1.11369 -1.296,0.6936 -1.79667,0.5623 -2.68341,-0.7037 -0.60126,-0.85842 -2.79902,-1.96635 -4.90071,-2.47054 -3.47937,-0.83469 -3.87274,-1.16582 -4.52604,-3.80992 -0.52695,-2.13275 -1.18087,-2.96188 -2.48168,-3.14662 -1.49755,-0.21269 -1.7662,0.11023 -1.7662,2.12301 v 2.37385 l -1.85704,-1.85704 c -1.72213,-1.72213 -8.34856,-5.56187 -8.62,-4.99492 -1.2684,2.64924 -2.12063,3.35917 -3.75541,3.12837 -1.02279,-0.14439 -3.00765,-0.29451 -4.4108,-0.33359 -1.49742,-0.0417 -2.55118,-0.48154 -2.55118,-1.06485 0,-2.28596 -4.27507,-2.21908 -7.39401,0.11567 -1.43997,1.07792 -1.44561,1.19534 -0.12745,2.65189 2.15844,2.38505 1.29143,4.29078 -2.29911,5.05352 -1.72237,0.36588 -3.66144,0.93867 -4.30905,1.27286 -1.24202,0.64093 -1.52392,4.89267 -0.47782,7.20676 0.73828,1.63319 -2.35425,2.68183 -10.11939,3.43135 -3.02217,0.29171 -5.93641,0.89212 -6.47608,1.33426 -1.5271,1.25109 -1.17221,3.84858 0.58874,4.30908 1.60345,0.41931 2.20531,1.79741 0.78497,1.79741 -0.43173,0 -0.78497,0.35324 -0.78497,0.78498 0,2.12003 9.02403,0.10715 12.45235,-2.7776 1.26302,-1.06275 2.68694,-1.93228 3.1643,-1.93228 1.17393,0 1.10076,3.57047 -0.11332,5.52946 -0.67035,1.08164 -0.7206,1.7622 -0.15858,2.14804 0.45244,0.31063 0.87243,1.36475 0.9333,2.3425 0.0609,0.97774 0.83871,2.70327 1.72854,3.8345 0.88983,1.13124 1.61788,2.51899 1.61788,3.08389 0,0.56491 0.79479,1.57192 1.7662,2.23779 0.97141,0.66588 2.47287,2.54043 3.33657,4.16565 1.12168,2.11066 2.91598,3.67759 6.27983,5.48407 4.90536,2.63432 7.02767,3.11783 7.84938,1.78828 z m -165.63053,-5.49486 c 0,-1.0885 -0.43697,-1.92749 -0.98122,-1.88394 -0.53968,0.0432 -1.64992,0.13148 -2.4672,0.19624 -1.58558,0.12564 -2.75164,2.11662 -1.97531,3.37274 0.25779,0.41711 1.58359,0.65017 2.94622,0.5179 2.05523,-0.1995 2.47751,-0.57498 2.47751,-2.20294 z m 5.88734,-1.96244 c 0,-0.64761 -0.52986,-1.17747 -1.17747,-1.17747 -0.64761,0 -1.17747,0.52986 -1.17747,1.17747 0,0.64761 0.52986,1.17747 1.17747,1.17747 0.64761,0 1.17747,-0.52986 1.17747,-1.17747 z m 134.64511,-1.21185 c 0.70083,-1.13397 -1.08849,-3.10554 -2.81846,-3.10554 -1.71968,0 -2.60441,1.2278 -2.00686,2.78502 0.50218,1.30863 4.06824,1.5455 4.82532,0.32052 z m -140.8718,-4.77479 c 0.64783,-1.21048 0.66044,-2.18045 0.0459,-3.52929 -0.59454,-1.30486 -0.6031,-2.50286 -0.0287,-4.01368 0.45035,-1.1845 0.59864,-3.32727 0.32953,-4.76172 -0.39766,-2.11971 -0.81026,-2.56221 -2.20341,-2.36311 -2.39208,0.34188 -4.03634,4.01312 -3.05639,6.8242 0.62629,1.7966 0.49928,2.34254 -0.72249,3.10555 -1.88118,1.17482 -1.86069,1.78973 0.14456,4.33899 1.9653,2.49847 4.27752,2.66652 5.49102,0.39906 z m 14.67018,-2.0594 c 0.21676,-0.6603 -0.58272,-0.98122 -2.44441,-0.98122 -2.73617,0 -4.10657,0.84587 -3.06228,1.89016 0.86965,0.86965 5.15502,0.1623 5.50669,-0.90894 z m 11.80427,-3.77195 c 0.3276,-2.28994 -2.44417,-4.57831 -4.82246,-3.9814 -2.76376,0.69366 -3.34232,2.91777 -1.20848,4.64566 2.29981,1.86227 5.72343,1.48518 6.03094,-0.66426 z m 32.07317,0.0141 c 0.52439,-1.36654 -1.77944,-4.28815 -3.38142,-4.28815 -0.68331,0 -1.0558,0.96929 -1.0558,2.74743 0,2.41635 0.23945,2.74742 1.98708,2.74742 1.0929,0 2.19546,-0.54301 2.45014,-1.2067 z m 21.17318,-1.58103 c 1.79338,-2.73704 0.50251,-3.83377 -4.21973,-3.5851 -2.11403,0.11132 -2.33625,2.08691 -0.46707,4.15233 1.77844,1.96516 3.1351,1.80096 4.6868,-0.56723 z m 57.20486,-1.59383 2.35494,-1.97017 -2.74743,0.2322 c -2.16475,0.18295 -2.80062,0.60677 -2.99826,1.99839 -0.32006,2.25351 0.45721,2.19381 3.39075,-0.26042 z m -31.79164,-0.0815 c 0,-0.72772 0.77245,-2.14536 1.71656,-3.15031 2.15523,-2.29414 1.1136,-3.5921 -2.59797,-3.23729 -2.56417,0.24512 -2.65883,0.37554 -2.89025,3.98207 -0.227,3.53766 -0.13653,3.72865 1.7662,3.72865 1.35743,0 2.00546,-0.42755 2.00546,-1.32312 z m 16.32756,-3.54375 c 0.51808,-0.51809 0.94197,-1.93105 0.94197,-3.13992 0,-2.02993 -0.23299,-2.19794 -3.04836,-2.19794 -3.25699,0 -4.31414,1.43948 -3.45892,4.70988 0.46806,1.78982 4.00443,2.18886 5.56531,0.62798 z m -145.45657,-8.80485 c 0,-0.9528 -0.81221,-1.77527 -2.21481,-2.24281 -1.83718,-0.61239 -2.53983,-0.43292 -4.12114,1.05264 -2.80072,2.63115 -2.3739,3.19617 2.21481,2.93198 3.45556,-0.19894 4.12114,-0.48025 4.12114,-1.74181 z m 86.25856,-2.09448 c 2.10969,-0.3951 7.58491,-0.74349 12.16717,-0.77421 14.0207,-0.094 30.06346,-2.29636 34.10732,-4.68229 1.40553,-0.82929 6.03112,-2.20696 10.27909,-3.0615 5.38659,-1.08358 8.67725,-2.21692 10.8754,-3.74559 1.7335,-1.20554 4.58513,-2.72633 6.33695,-3.37953 2.23313,-0.83266 3.32084,-1.76258 3.63923,-3.11128 0.27218,-1.15296 1.18044,-2.09512 2.26702,-2.35162 3.45984,-0.81676 4.84448,-8.59853 2.09899,-11.79647 -0.55598,-0.6476 -1.23779,-2.1334 -1.51512,-3.30177 -0.38872,-1.63759 -1.1102,-2.23799 -3.14895,-2.62046 -1.65824,-0.31109 -3.29342,-1.3736 -4.38394,-2.84861 -1.38498,-1.87329 -2.13369,-2.25347 -3.67569,-1.86645 -1.69227,0.42473 -2.10375,0.0877 -3.26327,-2.67264 -1.59808,-3.80438 -2.5043,-4.05235 -2.5043,-0.68525 0,3.57309 -1.94516,5.36286 -5.81276,5.3484 -1.76797,-0.007 -3.74436,-0.35445 -4.39197,-0.77296 -0.91578,-0.59183 -0.69223,-0.76361 1.00586,-0.77296 2.69682,-0.0148 3.84766,-2.27856 1.77647,-3.49431 -0.78247,-0.4593 -2.45563,-1.67858 -3.71813,-2.7095 -2.06433,-1.68569 -2.49455,-1.76785 -4.273,-0.81605 -2.8556,1.52827 -3.97017,3.89345 -2.28039,4.8391 1.21454,0.67969 1.22036,0.8555 0.0703,2.1263 -1.80348,1.99283 -0.73249,3.82561 2.78973,4.77404 3.65932,0.98536 3.91619,1.54823 0.70653,1.54823 -1.56091,0 -3.34408,-0.88648 -5.29861,-2.63414 -1.62026,-1.44878 -3.7175,-3.03836 -4.66053,-3.53241 -3.70794,-1.94256 -9.20077,-0.42588 -7.19786,1.98748 0.47433,0.57154 1.90452,1.03915 3.17821,1.03915 h 2.3158 l -1.62694,2.06831 c -0.89481,1.13757 -1.62693,2.90377 -1.62693,3.9249 0,1.87612 -1.81313,2.58332 -2.74742,1.0716 -1.15618,-1.87074 -11.3822,-0.4809 -11.3822,1.54698 0,0.38872 6.15947,0.81784 13.6877,0.95361 l 13.68771,0.24684 2.3896,2.29141 c 2.10888,2.02223 2.62189,2.18559 4.36681,1.39055 1.78954,-0.81537 2.34882,-1.76644 2.0628,-3.50784 -0.0552,-0.33597 1.15922,-1.35401 2.69868,-2.26232 1.70059,-1.00337 2.63731,-2.07287 2.38695,-2.7253 -0.50863,-1.32546 0.46878,-1.39968 1.73659,-0.13187 1.12636,1.12636 1.26613,5.33786 0.17716,5.33786 -0.42066,0 -1.31283,1.05972 -1.98261,2.35493 -0.66978,1.29522 -1.69094,2.35494 -2.26923,2.35494 -0.5783,0 -2.02423,0.76519 -3.21319,1.70043 -1.76597,1.38911 -2.43013,1.53283 -3.62762,0.78498 -0.80623,-0.5035 -2.35377,-0.91545 -3.43897,-0.91545 -1.66162,0 -1.9731,0.36559 -1.9731,2.31593 0,1.38228 0.54933,2.62335 1.36262,3.07849 1.18469,0.66299 1.07436,0.83491 -0.84494,1.31662 -1.87291,0.47007 -2.13385,0.84775 -1.72131,2.49145 0.26744,1.06556 0.0745,2.43346 -0.42864,3.03977 -1.2288,1.48061 -8.44386,1.4378 -11.46234,-0.068 -1.29037,-0.64372 -4.06958,-1.26189 -6.17605,-1.37371 -3.72334,-0.19766 -3.86913,-0.12139 -5.23797,2.74035 -0.77441,1.61902 -1.63609,2.94367 -1.91484,2.94367 -1.73878,0 -8.9015,-4.20187 -9.98714,-5.85877 -1.45484,-2.22037 -4.95678,-2.73568 -5.68552,-0.83663 -0.24364,0.63492 0.2925,2.0894 1.19141,3.23218 2.03009,2.58084 1.5442,3.46322 -1.90706,3.46322 -1.47687,0 -4.07761,0.55713 -5.77942,1.23806 -2.37241,0.94925 -3.4729,1.03538 -4.71763,0.36922 -1.81502,-0.97137 -4.28569,-5.21113 -3.64285,-6.25126 0.71069,-1.14993 -1.57494,-2.43804 -6.57981,-3.70817 -3.72035,-0.94416 -5.06169,-1.01083 -5.92482,-0.29449 -0.8586,0.71258 -1.73487,0.70209 -3.80229,-0.0455 -3.27836,-1.18547 -5.02485,-0.6088 -6.01091,1.98471 -0.90867,2.39 -2.94538,1.92167 -3.63762,-0.83645 -0.43894,-1.74886 -0.83393,-1.87586 -5.83424,-1.87586 -2.94989,0 -5.58174,0.35324 -5.84857,0.78498 -0.71164,1.15146 -3.7257,0.97434 -3.33959,-0.19625 0.59412,-1.80123 4.07439,-2.92007 9.22693,-2.96628 2.8063,-0.0252 6.69194,-0.39282 8.63477,-0.817 1.94282,-0.42418 5.47522,-1.08958 7.84978,-1.47867 2.37456,-0.38909 4.96947,-0.82144 5.76647,-0.96078 1.05881,-0.18511 1.69303,0.48658 2.35493,2.49408 0.8247,2.50127 1.20476,2.76905 4.24202,2.98881 3.13839,0.22707 3.33616,0.11931 3.33616,-1.81781 0,-2.69937 -1.3239,-5.09589 -2.8151,-5.09589 -0.65444,0 -1.7039,-1.23015 -2.33211,-2.73367 -0.73329,-1.75502 -1.84241,-2.90942 -3.0981,-3.22458 -3.11146,-0.78092 -4.31435,0.10742 -4.31435,3.18619 v 2.77206 H 349.60773 338.5177 l 0.52724,-3.29722 c 0.28999,-1.81346 0.89052,-3.73492 1.33452,-4.26991 0.444,-0.53498 0.69344,-1.96547 0.55431,-3.17886 -0.22358,-1.94982 -0.5722,-2.20616 -3.0004,-2.20616 -2.60817,0 -2.75977,0.1492 -2.99105,2.94367 -0.134,1.61902 -0.53591,2.94367 -0.89314,2.94367 -0.35723,0 -2.54366,1.31746 -4.85873,2.9277 -3.88441,2.70177 -4.75707,2.96478 -11.30856,3.40834 -4.81293,0.32585 -7.78344,0.92889 -9.2235,1.87246 -1.90417,1.24766 -2.12417,1.26051 -2.12417,0.12406 0,-0.83985 -0.68445,-1.26775 -2.02786,-1.26775 -2.60471,0 -2.18392,-1.23949 1.40765,-4.14639 2.33069,-1.88639 3.0859,-2.12941 4.41195,-1.41973 2.91068,1.55775 6.3534,1.06089 7.31799,-1.05614 1.50459,-3.30221 0.43035,-4.36744 -4.40435,-4.36744 -7.01519,0 -16.12512,4.32728 -16.12512,7.65954 0,1.74104 -1.93399,0.65319 -2.21329,-1.24496 -0.15429,-1.04853 0.16688,-1.70471 0.83436,-1.70471 1.91231,0 5.45787,-4.38039 5.17327,-6.39136 -0.27861,-1.96874 -0.93615,-2.06235 -7.08585,-1.00878 -2.39023,0.4095 -2.98668,0.89581 -3.39853,2.77093 -0.33884,1.54275 -0.9827,2.27427 -2.00172,2.27427 -0.82621,0 -2.91758,0.61319 -4.6475,1.36265 -2.7388,1.18653 -3.1453,1.68991 -3.1453,3.89491 0,2.433 3.47134,7.13238 8.2091,11.11321 0.84524,0.71019 2.61846,2.41957 3.94051,3.79863 1.54147,1.60794 3.68093,2.7936 5.9642,3.30529 1.95826,0.43886 6.36772,2.203 9.79881,3.92031 5.96856,2.98736 13.99485,5.10406 18.59738,4.90453 4.80456,-0.2083 5.84952,-0.14455 9.61599,0.58668 4.60487,0.89399 40.53704,0.29645 46.22464,-0.7687 z m -99.63263,-1.97854 c 2.25233,-2.25232 0.089,-6.52193 -2.58056,-5.0932 -2.34955,1.25744 -3.00876,4.03441 -1.26107,5.31235 1.83022,1.33829 2.31166,1.31082 3.84163,-0.21915 z m 98.44349,-7.64564 c 1.39739,-1.68376 1.95552,-5.74011 0.88118,-6.40409 -1.04905,-0.64835 -7.06023,1.08061 -7.06023,2.03069 0,0.85726 3.94404,5.42944 4.68353,5.42944 0.3405,0 1.01348,-0.47522 1.49552,-1.05604 z m 21.09896,-1.79366 c 2.4656,-0.66076 2.38477,-3.43013 -0.10013,-3.43013 -2.09088,0 -4.03252,1.85117 -3.25728,3.10552 0.58147,0.94085 0.93161,0.9747 3.35741,0.32461 z m 20.40945,-4.14674 c 1.40315,-0.55381 2.55118,-1.52546 2.55118,-2.15922 0,-2.32697 -1.64243,-4.18956 -3.75627,-4.25978 -2.04025,-0.0678 -2.02077,-0.1026 0.45703,-0.81699 3.04173,-0.87698 3.83907,-2.40539 2.63428,-5.04961 -0.70733,-1.55244 -1.44969,-1.91239 -3.9441,-1.91239 -3.13111,0 -4.02571,0.86779 -4.02571,3.90511 0,2.88242 -4.76128,2.85722 -6.30828,-0.0334 -1.05144,-1.96463 -2.19316,-1.91571 -4.43458,0.18999 -2.80036,2.6308 -2.40511,4.57304 0.93063,4.57304 2.38697,0 2.74742,0.25053 2.74742,1.90955 0,2.03619 0.5985,2.35145 6.08359,3.20447 1.83489,0.28536 3.33616,0.87046 3.33616,1.30023 0,0.42977 0.26493,0.64066 0.58873,0.46865 0.32381,-0.172 1.73677,-0.76586 3.13992,-1.31967 z m -22.11973,-2.75915 c 0.26308,-1.04818 0.25724,-2.60234 -0.0129,-3.45368 -0.43869,-1.38217 -0.76142,-1.45127 -3.01456,-0.64539 -2.9806,1.06608 -3.67253,1.86117 -3.68871,4.23867 -0.0105,1.53785 0.392,1.7662 3.11294,1.7662 2.65386,0 3.19707,-0.28731 3.60328,-1.9058 z m -10.55028,-2.99626 c 1.01895,-1.90393 -0.16839,-2.9175 -3.43902,-2.93571 -1.77088,-0.01 -2.15869,0.33353 -2.15869,1.91142 0,3.52528 3.87932,4.23513 5.59771,1.02429 z m -39.78122,-6.21365 c 1.09966,-0.50104 1.99938,-1.16974 1.99938,-1.486 0,-0.76009 -5.71945,-3.03634 -6.47607,-2.57736 -0.90929,0.55157 -0.69631,2.98282 0.35324,4.03237 1.16826,1.16827 1.61995,1.17167 4.12345,0.031 z m 30.25862,-1.2644 c 0,-2.56851 -2.07981,-4.88943 -4.38149,-4.88943 -2.07049,0 -2.70099,1.79042 -1.70006,4.82762 0.5648,1.71382 1.16074,2.0802 3.38354,2.0802 2.37449,0 2.69801,-0.24202 2.69801,-2.01839 z m -48.58432,-3.47712 c 1.55923,-2.91344 -3.05006,-5.98241 -5.42222,-3.61025 -1.43898,1.43897 -1.12586,3.55008 0.7181,4.84164 1.93666,1.35649 3.54436,0.93565 4.70412,-1.23139 z m 65.7271,1.33104 c 0.25504,-0.25504 0.0244,-1.06494 -0.51254,-1.79977 -0.53694,-0.73484 -1.18381,-1.95424 -1.4375,-2.70978 -0.81305,-2.42144 -3.30078,-1.60397 -4.60295,1.51254 -0.96485,2.30921 -1.00618,3.02112 -0.20678,3.56086 1.0179,0.68726 5.91734,0.27858 6.75977,-0.56385 z m -119.19003,-3.00501 c 0,-1.87086 -0.2214,-3.62298 -0.49201,-3.89358 -0.65863,-0.65863 -5.00284,1.62779 -5.00284,2.63306 0,1.64876 2.59521,4.6621 4.01518,4.6621 1.22194,0 1.47967,-0.5925 1.47967,-3.40158 z m 74.57882,0.64713 c 0.54067,-0.65147 2.35013,-1.4031 4.02101,-1.67029 1.77027,-0.28307 3.03797,-0.92374 3.03797,-1.53531 0,-0.57724 0.70648,-1.42762 1.56996,-1.88974 2.10241,-1.12518 1.94218,-2.44007 -0.51575,-4.23215 -1.85732,-1.35418 -2.21749,-1.38081 -4.09647,-0.30291 -1.13306,0.64999 -3.05513,1.41908 -4.27129,1.70909 -1.74589,0.41634 -2.16085,0.91136 -1.972,2.35248 0.13155,1.00385 -0.23759,2.39966 -0.82031,3.10179 -1.22707,1.47853 -0.65706,3.65153 0.95785,3.65153 0.6083,0 1.54835,-0.53302 2.08903,-1.18449 z m -39.64726,-5.48783 c 0,-2.15862 -0.22432,-2.35493 -2.69095,-2.35493 -2.25694,0 -2.78192,0.34015 -3.25499,2.10903 -0.71983,2.69155 -0.23901,3.12141 3.17046,2.83444 2.50864,-0.21114 2.77548,-0.46001 2.77548,-2.58854 z m 77.89378,1.08991 c 3.77414,-1.82703 3.93893,-2.9109 0.68374,-4.49701 -1.72721,-0.84159 -2.61895,-0.8618 -4.45567,-0.10101 -1.26296,0.52313 -2.29629,1.25247 -2.29629,1.62074 0,0.36827 -1.07127,1.22356 -2.3806,1.90064 -5.51824,2.8536 2.63254,3.89225 8.44882,1.07664 z m -52.50553,-2.14679 c 2.50545,-1.92717 2.09192,-5.13082 -0.70433,-5.45654 -3.55228,-0.41378 -7.78342,4.31277 -5.7136,6.38259 0.99885,0.99885 4.58889,0.48084 6.41793,-0.92605 z m -44.00991,-2.12754 c 2.18575,-1.53097 2.1935,-2.51641 0.0378,-4.81102 -2.22157,-2.36475 -4.54286,-2.38991 -4.66605,-0.0506 -0.31015,5.88983 1.07816,7.34816 4.62822,4.86161 z m 30.2001,0.39572 c 2.74137,-0.76132 2.94367,-1.02238 2.94367,-3.79885 0,-3.45801 -1.64321,-5.31953 -5.35012,-6.06091 -2.36372,-0.47274 -2.49967,-0.37228 -2.49967,1.84726 0,1.29096 -0.70648,3.24535 -1.56996,4.34308 -0.86347,1.09773 -1.56996,2.35227 -1.56996,2.78787 0,1.71352 3.62152,2.1103 8.04604,0.88155 z m 20.17048,-6.20813 c 1.18914,-0.84675 3.67944,-1.88047 5.53399,-2.29716 3.43712,-0.77227 5.17715,-2.29343 3.98598,-3.4846 -0.36415,-0.36415 -1.74486,-0.10217 -3.06824,0.58217 -1.3391,0.69248 -4.31751,1.24427 -6.71619,1.24427 -4.69741,0 -5.58731,0.65577 -4.85413,3.57702 0.58184,2.31821 2.2238,2.43956 5.11859,0.3783 z m 54.75024,-1.3892 c -0.19902,-0.76376 -0.37495,-0.32893 -0.39095,0.96629 -0.016,1.29521 0.14684,1.9201 0.36187,1.38865 0.21502,-0.53146 0.2281,-1.59118 0.0291,-2.35494 z m 18.92018,0.9044 c 0.15842,-1.10241 -0.40846,-1.9077 -1.78409,-2.53449 -1.28245,-0.58432 -2.18832,-1.77891 -2.489,-3.28229 -0.39551,-1.97756 -0.84535,-2.36361 -2.75417,-2.36361 -1.48752,0 -2.4294,0.47804 -2.7066,1.37371 -0.23384,0.75554 -0.7972,2.0585 -1.25193,2.89545 -0.66687,1.22743 -0.48715,1.79674 0.92925,2.94367 0.9658,0.78206 2.75575,1.42194 3.97766,1.42194 1.2219,0 2.45204,0.37279 2.73365,0.82844 0.82816,1.33998 3.09316,0.47141 3.34523,-1.28282 z m -51.2558,-1.51882 c 0,-1.01931 -0.61157,-1.64607 -1.7662,-1.81005 -1.30072,-0.18473 -1.76621,0.14283 -1.76621,1.24288 0,0.82155 0.24771,1.74143 0.55046,2.04418 1.04131,1.04131 2.98195,0.0801 2.98195,-1.47701 z m 17.66202,-2.31657 c 0,-2.43099 -2.69766,-4.11929 -4.36756,-2.7334 -1.17565,0.9757 -1.50601,3.24287 -0.60397,4.14491 0.28782,0.28783 1.52416,0.52332 2.74743,0.52332 1.84059,0 2.2241,-0.33363 2.2241,-1.93483 z m -16.90968,-5.67189 c 0.58789,-2.34237 0.17548,-2.9714 -1.52127,-2.3203 -1.50516,0.57759 -2.30032,2.46126 -1.69971,4.02644 0.6458,1.68293 2.6348,0.62936 3.22098,-1.70614 z m -47.7222,-1.4733 c 0.82089,-2.13922 -0.87007,-2.9604 -3.9815,-1.93353 -4.17976,1.37944 -3.69012,3.16376 0.86818,3.16376 1.67397,0 2.81412,-0.45053 3.11332,-1.23023 z m 72.87416,-7.10779 c 0,-0.92257 -0.55546,-1.47421 -1.4844,-1.47421 -1.87088,0 -3.24755,2.10481 -2.55578,3.90753 0.47582,1.23995 0.69787,1.2601 2.28362,0.2072 0.96611,-0.64147 1.75656,-1.82971 1.75656,-2.64052 z m 24.75692,1.62945 c 0.83445,-1.00546 0.74173,-1.5694 -0.54038,-3.28667 -2.31823,-3.10501 -3.4146,-3.11767 -3.4146,-0.0394 0,2.44073 1.117,4.53979 2.41582,4.53979 0.29252,0 0.98514,-0.54617 1.53916,-1.21372 z"
       id="path17"
       transform="scale(0.26458333)" /></g></svg>
